<svg width="390" height="118" viewBox="0 0 390 118" fill="none" xmlns="http://www.w3.org/2000/svg">
<path d="M14.6119 8.32002V21.8C14.6119 23.92 14.7319 28.52 14.7319 28.8C14.7319 29.64 14.4919 29.8 13.5719 29.8H8.93188C8.01188 29.8 7.77188 29.64 7.77188 28.8C7.77188 28.52 7.89188 23.92 7.89188 21.8V9.00002C7.89188 8.28002 7.77188 8.00002 7.41188 8.00002C7.25188 8.00002 7.09188 8.04002 6.77188 8.16002C5.41188 8.64002 4.21188 9.12002 3.13188 9.60002C2.81188 9.76002 2.57188 9.84002 2.37188 9.84002C2.01188 9.84002 1.85188 9.56002 1.65188 8.96002L0.251875 5.00002C0.131875 4.68002 0.0918751 4.44002 0.0918751 4.24002C0.0918751 3.88002 0.331875 3.72002 1.01188 3.52002C3.41188 2.80002 6.17188 1.84002 8.57188 0.800017C9.41188 0.440017 10.0119 0.320019 10.9319 0.320019H13.5719C14.4919 0.320019 14.7319 0.480019 14.7319 1.32002C14.7319 1.60002 14.6119 6.20002 14.6119 8.32002ZM27.5437 19.296V14.088C27.5437 13.224 27.4957 12.36 27.4957 11.496C27.4957 10.488 27.9277 10.176 28.8877 10.176C29.7277 10.176 30.5677 10.224 31.4077 10.224H38.2237C39.0397 10.224 39.8797 10.176 40.6957 10.176C41.5117 10.176 42.1117 10.344 42.1117 11.496C42.1117 12.36 42.0637 13.248 42.0637 14.112V25.776C42.0637 26.4 42.1357 27 42.1357 27.624C42.1357 28.896 41.9677 29.832 40.7677 30.48C39.7837 31.008 38.7037 31.152 37.4317 31.152C36.2077 31.152 35.9197 30.816 35.7517 30.048C35.6317 29.544 35.5357 28.776 35.5357 28.248C35.5357 27.864 35.6557 27.552 36.1117 27.552C36.3997 27.552 36.9037 27.648 37.3117 27.648C38.3677 27.648 38.4157 27.216 38.4157 26.736V24.216C38.4157 23.856 38.1037 23.544 37.7437 23.544H31.9357C31.2877 23.544 31.0237 23.736 30.9037 24.384C30.6877 25.632 30.1837 26.976 29.6317 28.152C29.3197 28.824 28.2157 31.08 27.4237 31.08C26.7997 31.08 24.8077 29.808 24.8077 29.04C24.8077 28.824 24.9997 28.608 25.1437 28.44C26.1037 27.216 26.8477 25.368 27.1837 23.832C27.5197 22.296 27.5437 20.808 27.5437 19.296ZM31.2157 14.28V14.592C31.2157 14.952 31.5277 15.264 31.8877 15.264H37.7437C38.1037 15.264 38.4157 14.952 38.4157 14.592V14.28C38.4157 13.896 38.1037 13.608 37.7437 13.608H31.8877C31.5277 13.608 31.2157 13.896 31.2157 14.28ZM32.0317 20.304H37.7437C38.1037 20.304 38.4157 19.992 38.4157 19.632V19.2C38.4157 18.84 38.1037 18.528 37.7437 18.528H31.9837C31.4557 18.528 31.2157 18.816 31.2157 19.344V19.488C31.2157 20.016 31.4797 20.304 32.0317 20.304ZM62.1197 24.04H63.6797C65.7597 24.04 70.0797 23.96 70.3597 23.96C71.1997 23.96 71.3597 24.2 71.3597 25.12V28.64C71.3597 29.56 71.1997 29.8 70.3597 29.8C70.0797 29.8 65.7597 29.72 63.6797 29.72H57.9597C55.8397 29.72 51.1597 29.8 50.8797 29.8C50.0397 29.8 49.8797 29.56 49.8797 28.64V26.92C49.8797 25.88 49.9997 25.6 50.8797 25.04C51.6797 24.48 52.3197 24 53.0797 23.36C60.7197 16.88 64.1597 13.4 64.1597 10.12C64.1597 7.92002 62.7197 6.40002 59.8397 6.40002C57.5597 6.40002 55.4797 7.68002 54.1597 9.20002C53.7997 9.60002 53.5997 9.80002 53.3597 9.80002C53.1197 9.80002 52.9197 9.60002 52.5597 9.24002L49.5997 6.08002C49.2797 5.72002 49.1197 5.48002 49.1197 5.20002C49.1197 4.96002 49.2797 4.72002 49.6397 4.36002C52.1997 1.76002 56.1197 1.81198e-05 60.3597 1.81198e-05C67.2397 1.81198e-05 71.1597 3.92002 71.1597 9.04002C71.1597 14.36 67.0397 18.8 61.8397 23.28C61.5197 23.56 61.3997 23.72 61.3997 23.84C61.3997 23.96 61.6397 24.04 62.1197 24.04ZM92.0284 0.0800171C99.0684 0.0800171 104.788 4.88002 104.788 14.36C104.788 24.28 98.8684 30.04 91.4284 30.04C84.2284 30.04 78.6684 25 78.6684 15.52C78.6684 7.00002 83.1884 0.0800171 92.0284 0.0800171ZM92.0284 6.64002C87.3884 6.64002 85.5084 10.88 85.5084 15.72C85.5084 21.08 87.7084 23.84 91.4284 23.84C95.3484 23.84 97.9884 20.16 97.9884 14.6C97.9884 9.24002 95.6284 6.64002 92.0284 6.64002ZM118.247 22.296V25.176C118.247 25.56 118.559 25.848 118.919 25.848H124.631C124.991 25.848 125.303 25.56 125.303 25.176V22.272C125.303 21.888 124.991 21.6 124.631 21.6H118.919C118.559 21.6 118.247 21.888 118.247 22.296ZM118.247 15.048V17.64C118.247 18.024 118.559 18.336 118.919 18.336H124.631C124.991 18.336 125.303 18.024 125.303 17.664V15.048C125.303 14.688 124.991 14.376 124.631 14.376H118.919C118.559 14.376 118.247 14.688 118.247 15.048ZM124.367 29.304H119.111C118.655 29.304 118.343 29.496 118.319 30C118.295 30.624 118.031 30.648 116.927 30.648H115.679C114.695 30.648 114.383 30.6 114.383 29.976C114.383 28.776 114.455 27.576 114.455 26.376V14.856C114.455 14.016 114.407 13.152 114.407 12.288C114.407 11.256 114.911 10.968 115.871 10.968C116.759 10.968 117.623 11.016 118.511 11.016H125.039C125.903 11.016 126.767 10.968 127.655 10.968C128.567 10.968 129.143 11.184 129.143 12.288C129.143 13.152 129.095 14.016 129.095 14.856V26.376C129.095 27.576 129.167 28.752 129.167 29.952C129.167 30.552 128.879 30.624 128.111 30.624H126.335C125.447 30.624 125.231 30.552 125.231 29.904C125.231 29.64 124.991 29.304 124.367 29.304ZM13.0679 54.44V66.572C13.0679 68.48 13.1759 72.62 13.1759 72.872C13.1759 73.628 12.9599 73.772 12.1319 73.772H7.95588C7.12788 73.772 6.91188 73.628 6.91188 72.872C6.91188 72.62 7.01988 68.48 7.01988 66.572V55.052C7.01988 54.404 6.91188 54.152 6.58788 54.152C6.44388 54.152 6.29988 54.188 6.01188 54.296C4.78788 54.728 3.70788 55.16 2.73588 55.592C2.44788 55.736 2.23188 55.808 2.05188 55.808C1.72788 55.808 1.58388 55.556 1.40388 55.016L0.143875 51.452C0.035875 51.164 -0.000124931 50.948 -0.000124931 50.768C-0.000124931 50.444 0.215875 50.3 0.827875 50.12C2.98788 49.472 5.47188 48.608 7.63188 47.672C8.38788 47.348 8.92788 47.24 9.75587 47.24H12.1319C12.9599 47.24 13.1759 47.384 13.1759 48.14C13.1759 48.392 13.0679 52.532 13.0679 54.44ZM38.2001 57.284L34.6721 66.536C34.0601 68.192 33.4841 69.776 32.4401 72.764C32.1161 73.628 31.9361 73.772 31.0001 73.772H26.3201C25.7441 73.772 25.4921 73.7 25.4921 73.376C25.4921 73.232 25.5641 73.052 25.6721 72.764C26.8601 69.884 27.5081 68.228 28.1201 66.644L32.9441 53.972C33.0521 53.72 33.0881 53.504 33.0881 53.36C33.0881 53.036 32.8361 52.964 32.2601 52.964H27.4361C25.5281 52.964 21.6041 53.072 21.1361 53.072C20.3801 53.072 20.2361 52.82 20.2361 51.992V48.284C20.2361 47.456 20.3801 47.24 21.1361 47.24C21.3881 47.24 25.5281 47.312 27.4361 47.312H33.4121C35.3201 47.312 39.4601 47.24 39.7121 47.24C40.4681 47.24 40.6121 47.456 40.6121 48.284V50.048C40.6121 50.84 40.5041 51.416 40.2161 52.136C39.4601 53.972 38.7401 55.844 38.2001 57.284ZM50.1732 66.68C52.1532 66.68 53.6292 68.048 53.6292 70.028C53.6292 72.26 52.2612 73.988 49.7772 73.988C47.8332 73.988 46.2852 72.584 46.2852 70.568C46.2852 68.516 47.6532 66.68 50.1732 66.68ZM50.1732 53.756C52.1532 53.756 53.6292 55.124 53.6292 57.068C53.6292 59.264 52.2612 61.064 49.7772 61.064C47.8332 61.064 46.2852 59.624 46.2852 57.644C46.2852 55.556 47.6532 53.756 50.1732 53.756ZM72.8031 47.024C79.1391 47.024 84.2871 51.344 84.2871 59.876C84.2871 68.804 78.9591 73.988 72.2631 73.988C65.7831 73.988 60.7791 69.452 60.7791 60.92C60.7791 53.252 64.8471 47.024 72.8031 47.024ZM72.8031 52.928C68.6271 52.928 66.9351 56.744 66.9351 61.1C66.9351 65.924 68.9151 68.408 72.2631 68.408C75.7911 68.408 78.1671 65.096 78.1671 60.092C78.1671 55.268 76.0431 52.928 72.8031 52.928ZM102.815 47.024C109.151 47.024 114.299 51.344 114.299 59.876C114.299 68.804 108.971 73.988 102.275 73.988C95.7953 73.988 90.7913 69.452 90.7913 60.92C90.7913 53.252 94.8593 47.024 102.815 47.024ZM102.815 52.928C98.6393 52.928 96.9473 56.744 96.9473 61.1C96.9473 65.924 98.9273 68.408 102.275 68.408C105.803 68.408 108.179 65.096 108.179 60.092C108.179 55.268 106.055 52.928 102.815 52.928ZM132.467 62.684C131.207 61.964 130.091 61.352 128.579 61.352C126.887 61.352 125.735 62.108 124.943 63.116C124.655 63.476 124.511 63.656 124.295 63.656C124.115 63.656 123.935 63.476 123.647 63.116L121.847 60.92C121.559 60.56 121.451 60.344 121.451 60.092C121.451 59.84 121.595 59.588 121.847 59.228C123.503 57.068 125.951 55.844 128.291 55.844C130.487 55.844 131.963 56.564 133.367 57.392C134.483 58.04 135.491 58.544 136.859 58.544C138.695 58.544 139.775 57.824 140.531 56.888C140.82 56.528 141 56.348 141.215 56.348C141.395 56.348 141.575 56.528 141.863 56.888L143.664 59.048C143.952 59.372 144.095 59.624 144.095 59.876C144.095 60.128 143.952 60.344 143.664 60.704C141.899 62.792 139.775 64.016 137.111 64.016C135.131 64.016 133.727 63.404 132.467 62.684ZM161.575 68.588H162.979C164.851 68.588 168.739 68.516 168.991 68.516C169.747 68.516 169.891 68.732 169.891 69.56V72.728C169.891 73.556 169.747 73.772 168.991 73.772C168.739 73.772 164.851 73.7 162.979 73.7H157.831C155.923 73.7 151.711 73.772 151.459 73.772C150.703 73.772 150.559 73.556 150.559 72.728V71.18C150.559 70.244 150.667 69.992 151.459 69.488C152.179 68.984 152.755 68.552 153.439 67.976C160.315 62.144 163.411 59.012 163.411 56.06C163.411 54.08 162.115 52.712 159.523 52.712C157.471 52.712 155.599 53.864 154.411 55.232C154.087 55.592 153.907 55.772 153.691 55.772C153.475 55.772 153.295 55.592 152.971 55.268L150.307 52.424C150.019 52.1 149.875 51.884 149.875 51.632C149.875 51.416 150.019 51.2 150.343 50.876C152.647 48.536 156.175 46.952 159.991 46.952C166.183 46.952 169.711 50.48 169.711 55.088C169.711 59.876 166.003 63.872 161.323 67.904C161.035 68.156 160.927 68.3 160.927 68.408C160.927 68.516 161.143 68.588 161.575 68.588ZM188.492 47.024C194.829 47.024 199.977 51.344 199.977 59.876C199.977 68.804 194.649 73.988 187.953 73.988C181.472 73.988 176.468 69.452 176.468 60.92C176.468 53.252 180.536 47.024 188.492 47.024ZM188.492 52.928C184.317 52.928 182.624 56.744 182.624 61.1C182.624 65.924 184.604 68.408 187.953 68.408C191.481 68.408 193.857 65.096 193.857 60.092C193.857 55.268 191.733 52.928 188.492 52.928ZM210.981 66.68C212.961 66.68 214.437 68.048 214.437 70.028C214.437 72.26 213.069 73.988 210.585 73.988C208.641 73.988 207.093 72.584 207.093 70.568C207.093 68.516 208.461 66.68 210.981 66.68ZM210.981 53.756C212.961 53.756 214.437 55.124 214.437 57.068C214.437 59.264 213.069 61.064 210.585 61.064C208.641 61.064 207.093 59.624 207.093 57.644C207.093 55.556 208.461 53.756 210.981 53.756ZM233.611 47.024C239.947 47.024 245.095 51.344 245.095 59.876C245.095 68.804 239.767 73.988 233.071 73.988C226.591 73.988 221.587 69.452 221.587 60.92C221.587 53.252 225.655 47.024 233.611 47.024ZM233.611 52.928C229.435 52.928 227.743 56.744 227.743 61.1C227.743 65.924 229.723 68.408 233.071 68.408C236.599 68.408 238.975 65.096 238.975 60.092C238.975 55.268 236.851 52.928 233.611 52.928ZM263.623 47.024C269.959 47.024 275.107 51.344 275.107 59.876C275.107 68.804 269.779 73.988 263.083 73.988C256.603 73.988 251.599 69.452 251.599 60.92C251.599 53.252 255.667 47.024 263.623 47.024ZM263.623 52.928C259.447 52.928 257.755 56.744 257.755 61.1C257.755 65.924 259.735 68.408 263.083 68.408C266.611 68.408 268.987 65.096 268.987 60.092C268.987 55.268 266.863 52.928 263.623 52.928ZM14.6919 115.08L14.9519 115.78C15.0119 115.94 15.0319 116.06 15.0319 116.16C15.0319 116.34 14.9119 116.44 14.6119 116.58C12.8319 117.4 10.6519 117.9 8.47188 117.9C3.55188 117.9 0.231875 115.24 0.231875 110.3C0.231875 104.66 4.23188 98.8 10.9119 98.8C15.6119 98.8 18.6719 101.5 18.6719 106.7C18.6719 111.68 16.5719 113.18 14.0119 113.18C13.1719 113.18 12.1519 112.9 11.5919 112.36C11.4719 112.24 11.3119 112.1 11.1919 112.1C11.0919 112.1 10.9919 112.16 10.7919 112.28C9.87188 112.86 8.83188 113.18 7.69188 113.18C5.73188 113.18 4.29188 111.8 4.29188 109.42C4.29188 105.36 7.83188 103.26 11.0519 103.26C12.1719 103.26 13.0519 103.36 13.8519 103.58C14.2519 103.7 14.4319 103.88 14.4319 104.22C14.4319 104.4 14.3719 104.72 14.3319 104.94C14.2119 105.56 14.1319 106.08 14.0519 106.66L13.6119 109.92C13.5919 110.08 13.5719 110.28 13.5719 110.42C13.5719 110.94 13.8719 111.32 14.5919 111.32C15.6919 111.32 16.6519 110.14 16.6519 106.9C16.6519 103.08 15.2719 100.66 10.8719 100.66C5.83188 100.66 2.27188 104.98 2.27188 110.3C2.27188 113.66 4.23188 115.98 8.51188 115.98C10.2919 115.98 12.3919 115.52 13.8519 114.8C14.0519 114.7 14.1919 114.66 14.2919 114.66C14.4719 114.66 14.5719 114.78 14.6919 115.08ZM10.9919 106.9C11.0119 106.76 11.0519 106.5 11.0519 106.4C11.0519 106.2 10.9519 106.08 10.6319 106.08C8.93188 106.08 7.43188 107.36 7.43188 109.04C7.43188 110.06 7.99188 110.54 8.89188 110.54C9.25188 110.54 9.63188 110.46 10.0319 110.28C10.4319 110.08 10.5719 109.92 10.6319 109.48L10.9919 106.9ZM29.3416 102.68V109.66C29.3416 110.72 29.4016 113.02 29.4016 113.16C29.4016 113.58 29.2816 113.66 28.8216 113.66H26.4616C26.0016 113.66 25.8816 113.58 25.8816 113.16C25.8816 113.02 25.9416 110.72 25.9416 109.66V102.68C25.9416 102.18 25.8416 102.08 25.3416 102.08H24.9216C24.2016 102.08 22.3616 102.12 22.2216 102.12C21.8016 102.12 21.7216 102 21.7216 101.54V99.46C21.7216 99 21.8016 98.88 22.2216 98.88C22.3616 98.88 24.3816 98.92 25.3216 98.92H29.9616C30.9016 98.92 32.9216 98.88 33.0616 98.88C33.4816 98.88 33.5616 99 33.5616 99.46V101.54C33.5616 102 33.4816 102.12 33.0616 102.12C32.9216 102.12 31.0816 102.08 30.3616 102.08H29.9416C29.4416 102.08 29.3416 102.18 29.3416 102.68ZM43.1353 113.66H41.3153C40.8753 113.66 40.7953 113.6 40.7753 113.14C40.7553 112.88 40.7153 112.76 40.5953 112.76C40.5353 112.76 40.4353 112.8 40.3153 112.88C39.4153 113.5 38.3553 113.78 37.3753 113.78C35.4953 113.78 34.0953 112.76 34.0953 110.74C34.0953 108.24 36.7953 106.92 39.9953 106.6C40.2953 106.58 40.4353 106.5 40.4353 106.34C40.4353 106.26 40.3753 106.14 40.2953 106C40.0553 105.56 39.6153 105.34 38.8353 105.34C37.9153 105.34 36.7953 105.72 35.9753 106.22C35.7953 106.34 35.6753 106.4 35.5953 106.4C35.4553 106.4 35.3753 106.28 35.2553 106L34.6153 104.42C34.5353 104.24 34.5153 104.14 34.5153 104.04C34.5153 103.84 34.6153 103.74 34.9153 103.58C36.1553 102.96 37.7953 102.54 39.2953 102.54C42.5753 102.54 43.7153 104.02 43.7153 107.06L43.6353 110.88C43.6153 111.64 43.6953 112.98 43.6953 113.24C43.6953 113.58 43.5753 113.66 43.1353 113.66ZM40.5153 109.46C40.5153 109.06 40.4553 108.94 40.1753 108.94C40.1153 108.94 39.8953 108.96 39.7953 108.98C38.3953 109.22 37.3153 109.72 37.3153 110.42C37.3153 111.04 37.7153 111.28 38.4353 111.28C38.9553 111.28 39.4953 111.12 39.9953 110.84C40.3953 110.62 40.4953 110.46 40.4953 109.98L40.5153 109.46ZM51.3834 109.62L50.9234 110.12C50.8034 110.24 50.7234 110.38 50.7234 110.66C50.7234 111.28 50.7634 113.02 50.7634 113.16C50.7634 113.58 50.6434 113.66 50.1834 113.66H48.0634C47.6034 113.66 47.4834 113.58 47.4834 113.16C47.4834 113.02 47.5234 111.08 47.5234 110.26V101.66C47.5234 100.84 47.4834 98.9 47.4834 98.76C47.4834 98.34 47.6034 98.26 48.0634 98.26H50.1834C50.6434 98.26 50.7634 98.34 50.7634 98.76C50.7634 98.96 50.7234 100.86 50.7234 101.66V105.68C50.7234 105.9 50.7634 106.02 50.8634 106.02C50.9234 106.02 51.0234 105.96 51.1234 105.84L51.6234 105.28C52.2034 104.64 52.8434 103.92 53.5234 103.12C53.8434 102.74 54.0034 102.66 54.5034 102.66H57.0434C57.3234 102.66 57.4634 102.74 57.4634 102.88C57.4634 102.94 57.4234 103.04 57.3234 103.14C56.3634 104.16 55.6434 104.94 54.9034 105.74L54.3834 106.32C54.2034 106.52 54.1034 106.66 54.1034 106.82C54.1034 106.94 54.1634 107.08 54.2834 107.28L55.8834 110.16C56.3634 111.02 56.9434 112.04 57.6034 113.14C57.7034 113.3 57.7434 113.4 57.7434 113.48C57.7434 113.62 57.6034 113.66 57.3034 113.66H54.7834C54.2634 113.66 54.1434 113.58 53.9034 113.12C53.3234 112 52.8034 111.06 52.3434 110.24L52.0434 109.7C51.9234 109.48 51.8434 109.38 51.7234 109.38C51.6434 109.38 51.5234 109.46 51.3834 109.62ZM62.3641 97.94C63.4241 97.94 64.2241 98.68 64.2241 99.7C64.2241 100.92 63.4841 101.86 62.1641 101.86C61.1041 101.86 60.3041 101.1 60.3041 100.04C60.3041 98.9 61.0241 97.94 62.3641 97.94ZM63.3641 113.66H61.1641C60.7041 113.66 60.5841 113.58 60.5841 113.16C60.5841 113.02 60.6241 111.08 60.6241 110.26V106.06C60.6241 105.24 60.5841 103.3 60.5841 103.16C60.5841 102.74 60.7041 102.66 61.1641 102.66H63.3641C63.8241 102.66 63.9441 102.74 63.9441 103.16C63.9441 103.3 63.9041 105.24 63.9041 106.06V110.26C63.9041 111.08 63.9441 113.02 63.9441 113.16C63.9441 113.58 63.8241 113.66 63.3641 113.66ZM76.6738 113.66H74.3738C73.9138 113.66 73.7938 113.58 73.7938 113.16C73.7938 113.02 73.8538 110.72 73.8538 109.66V102.86C73.8538 101.8 73.7938 99.58 73.7938 99.44C73.7938 99.02 73.9338 98.88 74.3538 98.88C74.4938 98.88 76.2538 98.92 77.1738 98.92H79.7938C82.8538 98.92 84.7338 100.44 84.7338 103.46C84.7338 106.7 82.8338 108.92 78.8938 108.92H77.7938C77.2938 108.92 77.1938 109.02 77.1938 109.52C77.1938 110.74 77.2538 113.02 77.2538 113.16C77.2538 113.58 77.1338 113.66 76.6738 113.66ZM77.1938 102.5V105.48C77.1938 105.98 77.2938 106.08 77.7938 106.08H78.8738C80.3938 106.08 81.3138 105.3 81.3138 103.78C81.3138 102.58 80.6938 101.9 79.2138 101.9H77.7938C77.2938 101.9 77.1938 102 77.1938 102.5ZM92.8263 113.06C92.8263 113.56 92.7263 113.66 92.2263 113.7C91.9063 113.72 91.5863 113.72 91.2663 113.72C88.6863 113.72 87.8863 112.62 87.8863 110.14V101.66C87.8863 100.84 87.8463 98.9 87.8463 98.76C87.8463 98.34 87.9663 98.26 88.4263 98.26H90.6063C91.0663 98.26 91.1863 98.34 91.1863 98.76C91.1863 98.9 91.1463 100.84 91.1463 101.66V109.8C91.1463 110.56 91.3463 110.9 92.0263 110.9C92.2063 110.9 92.4663 110.88 92.5263 110.88C92.7463 110.88 92.8263 110.96 92.8263 111.24V113.06ZM104.445 113.66H102.625C102.185 113.66 102.105 113.6 102.085 113.14C102.065 112.88 102.025 112.76 101.905 112.76C101.845 112.76 101.745 112.8 101.625 112.88C100.725 113.5 99.6655 113.78 98.6855 113.78C96.8055 113.78 95.4055 112.76 95.4055 110.74C95.4055 108.24 98.1055 106.92 101.305 106.6C101.605 106.58 101.745 106.5 101.745 106.34C101.745 106.26 101.685 106.14 101.605 106C101.365 105.56 100.925 105.34 100.145 105.34C99.2255 105.34 98.1055 105.72 97.2855 106.22C97.1055 106.34 96.9855 106.4 96.9055 106.4C96.7655 106.4 96.6855 106.28 96.5655 106L95.9255 104.42C95.8455 104.24 95.8255 104.14 95.8255 104.04C95.8255 103.84 95.9255 103.74 96.2255 103.58C97.4655 102.96 99.1055 102.54 100.605 102.54C103.885 102.54 105.025 104.02 105.025 107.06L104.945 110.88C104.925 111.64 105.005 112.98 105.005 113.24C105.005 113.58 104.885 113.66 104.445 113.66ZM101.825 109.46C101.825 109.06 101.765 108.94 101.485 108.94C101.425 108.94 101.205 108.96 101.105 108.98C99.7055 109.22 98.6255 109.72 98.6255 110.42C98.6255 111.04 99.0255 111.28 99.7455 111.28C100.265 111.28 100.805 111.12 101.305 110.84C101.705 110.62 101.805 110.46 101.805 109.98L101.825 109.46ZM113.374 110.96H114.474C115.254 110.96 116.834 110.92 116.974 110.92C117.394 110.92 117.474 111.04 117.474 111.5V113.1C117.474 113.56 117.394 113.68 116.974 113.68C116.834 113.68 115.254 113.66 114.474 113.66H111.334C110.554 113.66 108.974 113.68 108.834 113.68C108.414 113.68 108.334 113.56 108.334 113.1V112.42C108.334 111.92 108.394 111.72 108.694 111.32C109.014 110.92 109.314 110.5 109.614 110.08L112.514 106C112.614 105.86 112.674 105.74 112.674 105.68C112.674 105.56 112.534 105.52 112.254 105.52H111.454C110.674 105.52 109.094 105.56 108.954 105.56C108.534 105.56 108.454 105.44 108.454 104.98V103.22C108.454 102.76 108.534 102.64 108.954 102.64C109.094 102.64 110.674 102.66 111.454 102.66H114.334C115.114 102.66 116.694 102.64 116.834 102.64C117.254 102.64 117.334 102.76 117.334 103.22V104.08C117.334 104.58 117.274 104.78 116.954 105.18C116.654 105.58 116.354 106 116.034 106.42L113.114 110.48C113.014 110.62 112.954 110.74 112.954 110.8C112.954 110.92 113.094 110.96 113.374 110.96ZM129.238 113.66H127.418C126.978 113.66 126.898 113.6 126.878 113.14C126.858 112.88 126.818 112.76 126.698 112.76C126.638 112.76 126.538 112.8 126.418 112.88C125.518 113.5 124.458 113.78 123.478 113.78C121.598 113.78 120.198 112.76 120.198 110.74C120.198 108.24 122.898 106.92 126.098 106.6C126.398 106.58 126.538 106.5 126.538 106.34C126.538 106.26 126.478 106.14 126.398 106C126.158 105.56 125.718 105.34 124.938 105.34C124.018 105.34 122.898 105.72 122.078 106.22C121.898 106.34 121.778 106.4 121.698 106.4C121.558 106.4 121.478 106.28 121.358 106L120.718 104.42C120.638 104.24 120.618 104.14 120.618 104.04C120.618 103.84 120.718 103.74 121.018 103.58C122.258 102.96 123.898 102.54 125.398 102.54C128.678 102.54 129.818 104.02 129.818 107.06L129.738 110.88C129.718 111.64 129.798 112.98 129.798 113.24C129.798 113.58 129.678 113.66 129.238 113.66ZM126.618 109.46C126.618 109.06 126.558 108.94 126.278 108.94C126.218 108.94 125.998 108.96 125.898 108.98C124.498 109.22 123.418 109.72 123.418 110.42C123.418 111.04 123.818 111.28 124.538 111.28C125.058 111.28 125.598 111.12 126.098 110.84C126.498 110.62 126.598 110.46 126.598 109.98L126.618 109.46ZM144.859 113.66H142.839C141.919 113.66 140.159 113.7 140.019 113.7C139.599 113.7 139.459 113.56 139.459 113.14C139.459 113 139.519 110.78 139.519 109.72V102.86C139.519 101.8 139.459 99.58 139.459 99.44C139.459 99.02 139.599 98.88 140.019 98.88C140.159 98.88 141.919 98.92 142.839 98.92H144.879C147.999 98.92 149.859 99.74 149.859 102.38C149.859 103.54 149.599 104.62 148.639 105.42C148.479 105.56 148.399 105.64 148.399 105.72C148.399 105.8 148.499 105.86 148.719 105.96C149.759 106.44 150.519 107.4 150.519 109.04C150.519 112.28 148.539 113.66 144.859 113.66ZM142.859 102.3V104.06C142.859 104.56 142.959 104.66 143.459 104.66H144.599C145.939 104.66 146.519 104.1 146.519 102.98C146.519 102.14 145.959 101.7 144.799 101.7H143.459C142.959 101.7 142.859 101.8 142.859 102.3ZM142.859 107.96V110.32C142.859 110.82 142.959 110.92 143.459 110.92H144.759C146.239 110.92 147.119 110.24 147.119 109.02C147.119 107.98 146.579 107.36 145.099 107.36H143.459C142.959 107.36 142.859 107.46 142.859 107.96ZM159.782 110.78H160.562C161.602 110.78 163.762 110.74 163.902 110.74C164.322 110.74 164.402 110.86 164.402 111.32V113.08C164.402 113.54 164.322 113.66 163.902 113.66C163.762 113.66 161.602 113.62 160.562 113.62H157.702C156.642 113.62 154.302 113.66 154.162 113.66C153.742 113.66 153.662 113.54 153.662 113.08V112.22C153.662 111.7 153.722 111.56 154.162 111.28C154.562 111 154.882 110.76 155.262 110.44C159.082 107.2 160.802 105.46 160.802 103.82C160.802 102.72 160.082 101.96 158.642 101.96C157.502 101.96 156.462 102.6 155.802 103.36C155.622 103.56 155.522 103.66 155.402 103.66C155.282 103.66 155.182 103.56 155.002 103.38L153.522 101.8C153.362 101.62 153.282 101.5 153.282 101.36C153.282 101.24 153.362 101.12 153.542 100.94C154.822 99.64 156.782 98.76 158.902 98.76C162.342 98.76 164.302 100.72 164.302 103.28C164.302 105.94 162.242 108.16 159.642 110.4C159.482 110.54 159.422 110.62 159.422 110.68C159.422 110.74 159.542 110.78 159.782 110.78ZM171.831 108.08V109.66C171.831 110.72 171.891 113.02 171.891 113.16C171.891 113.58 171.771 113.66 171.311 113.66H169.011C168.551 113.66 168.431 113.58 168.431 113.16C168.431 113.02 168.491 110.72 168.491 109.66V102.86C168.491 101.8 168.431 99.58 168.431 99.44C168.431 99.02 168.571 98.88 168.991 98.88C169.131 98.88 170.891 98.92 171.811 98.92H173.411C174.351 98.92 176.371 98.88 176.511 98.88C176.931 98.88 177.011 99 177.011 99.46V101.52C177.011 101.98 176.931 102.1 176.511 102.1C176.371 102.1 174.351 102.06 173.411 102.06H172.431C171.931 102.06 171.831 102.16 171.831 102.66V103.96C171.831 104.42 171.911 104.5 172.371 104.5H172.951C173.891 104.5 175.911 104.46 176.051 104.46C176.471 104.46 176.551 104.58 176.551 105.04V106.94C176.551 107.4 176.471 107.52 176.051 107.52C175.911 107.52 173.891 107.48 172.951 107.48H172.431C171.931 107.48 171.831 107.58 171.831 108.08ZM186.687 99.12H193.427C193.927 99.12 194.467 99.12 194.747 99.08C194.887 99.06 195.067 99.04 195.207 99.04C195.547 99.04 196.147 99.62 196.507 99.98C196.727 100.2 196.887 100.34 196.887 100.64C196.887 100.84 196.807 101.08 196.767 101.26C196.567 101.96 196.287 103.46 196.147 104.24C195.367 108.2 193.307 111.2 190.067 113.58C189.767 113.8 188.987 114.38 188.647 114.38C188.067 114.38 186.627 112.6 186.627 112.22C186.627 112.02 186.947 111.86 187.147 111.76C187.207 111.74 187.227 111.72 187.267 111.7C188.427 111.12 189.567 110.1 190.427 109.14C191.927 107.48 193.167 104.86 193.167 102.58C193.167 102.12 192.807 102.08 192.447 102.08H186.467C186.127 102.08 185.847 102.36 185.847 102.7V104.7C185.847 105.22 185.887 105.76 185.887 106.28C185.887 106.8 185.767 106.9 184.967 106.9H183.647C182.907 106.9 182.747 106.82 182.747 106.38C182.747 105.82 182.787 105.26 182.787 104.7V101.16C182.787 100.96 182.767 100.76 182.767 100.56C182.767 99.58 182.807 99.08 184.047 99.08C184.927 99.08 185.807 99.12 186.687 99.12ZM206.327 104.06H215.527C216.707 104.06 217.987 103.98 218.167 103.98C218.687 103.98 218.767 104.2 218.767 104.78V105.74C218.767 106.84 218.747 107.18 218.107 107.18C217.327 107.18 216.407 107.12 215.527 107.12H206.327C205.447 107.12 204.507 107.18 203.767 107.18C203.087 107.18 203.087 106.8 203.087 105.74V104.82C203.087 104.22 203.147 103.98 203.667 103.98C203.947 103.98 205.067 104.06 206.327 104.06ZM233.787 100.38H236.547C236.907 100.38 237.147 100.36 237.667 100.24C237.747 100.22 237.807 100.22 237.887 100.22C238.487 100.22 239.527 101.68 239.527 101.96C239.527 102.1 239.267 102.5 239.167 102.66C238.967 102.98 238.787 103.32 238.607 103.66C236.127 108.34 234.067 111.14 229.347 113.76C229.047 113.92 228.307 114.32 228.047 114.32C227.687 114.32 226.827 113.56 226.507 113.28C226.267 113.06 225.807 112.64 225.807 112.36C225.807 112.14 226.087 112 226.347 111.86C226.407 111.84 226.467 111.8 226.527 111.78C229.747 110.26 232.307 108.16 234.247 105.18C234.467 104.84 235.047 103.9 235.047 103.52C235.047 103.26 234.767 103.24 234.527 103.24H231.667C231.327 103.24 231.167 103.48 230.987 103.72C230.587 104.28 229.727 105.28 229.227 105.8C228.967 106.08 228.027 107.08 227.707 107.08C227.307 107.08 225.867 106.1 225.527 105.82C225.407 105.7 225.267 105.54 225.267 105.36C225.267 105.22 225.367 105.12 225.467 105.04C226.727 104.04 227.707 103 228.647 101.72C229.467 100.6 230.467 98.98 230.947 97.68C231.047 97.42 231.147 97.12 231.307 97.12C231.487 97.12 233.567 98.16 233.907 98.34C234.147 98.44 234.387 98.54 234.387 98.7C234.387 98.8 234.287 98.84 234.207 98.88C233.727 99.14 233.407 99.88 233.407 100.02C233.407 100.24 233.587 100.34 233.787 100.38ZM250.487 98.06C250.847 98.06 252.887 99.46 253.307 99.76C253.587 99.96 254.647 100.7 254.647 100.98C254.647 101.42 253.347 103.1 252.947 103.1C252.807 103.1 252.547 102.88 252.427 102.78C251.367 101.96 250.287 101.18 249.147 100.48C249.027 100.4 248.767 100.24 248.767 100.08C248.767 99.7 250.087 98.06 250.487 98.06ZM246.527 104.58C246.527 104.2 247.687 102.36 248.127 102.36C248.447 102.36 250.667 103.72 251.067 103.98C251.467 104.22 252.547 104.86 252.547 105.2C252.547 105.64 251.267 107.4 250.827 107.4C250.687 107.4 250.447 107.24 250.327 107.14C249.127 106.28 248.247 105.72 246.947 104.98C246.727 104.86 246.527 104.76 246.527 104.58ZM247.907 111.14C247.907 110.96 248.187 110.9 248.327 110.86C248.787 110.76 250.207 110.22 250.727 110.02C252.607 109.3 254.147 108.54 255.567 107.08C257.187 105.42 258.307 102.96 259.087 100.8C259.167 100.58 259.287 100.28 259.587 100.28C259.867 100.28 260.487 100.86 260.727 101.08C260.987 101.34 261.727 102.06 261.727 102.36C261.727 102.62 261.407 103.4 261.287 103.68C259.127 108.88 255.687 111.64 250.507 113.58C249.967 113.78 249.927 113.78 249.687 114.12C249.667 114.18 249.587 114.26 249.507 114.26C249.307 114.26 249.047 113.68 248.967 113.5C248.687 112.94 248.267 111.92 248.007 111.42C247.967 111.34 247.907 111.22 247.907 111.14ZM271.647 102.54H279.007C279.647 102.54 280.067 102.78 280.067 103.46V111.14C280.067 111.56 280.087 112 280.087 112.44C280.087 113.2 279.987 113.32 279.187 113.32H278.427C277.847 113.32 277.687 113.24 277.607 112.92C277.547 112.7 277.447 112.66 276.907 112.66H272.767C272.067 112.66 271.347 112.7 270.647 112.7C270.207 112.7 270.107 112.6 270.107 111.62V110.92C270.107 110.46 270.147 110.16 270.567 110.16C271.027 110.16 271.987 110.2 272.727 110.2H277.127C277.347 110.2 277.507 110.02 277.507 109.82V109.2C277.507 108.98 277.347 108.82 277.127 108.82H272.927C272.187 108.82 271.327 108.86 270.787 108.86C270.307 108.86 270.267 108.56 270.267 107.8V107.28C270.267 106.64 270.287 106.36 270.747 106.36C270.987 106.36 271.487 106.4 272.007 106.4H277.127C277.347 106.4 277.507 106.22 277.507 106.02V105.4C277.507 105.2 277.347 105.02 277.127 105.02H272.727C272.047 105.02 271.347 105.06 270.647 105.06C270.147 105.06 270.107 104.82 270.107 104V103.4C270.107 102.8 270.147 102.52 270.567 102.52C270.867 102.52 271.207 102.54 271.647 102.54ZM292.667 103.42C293.307 104.18 293.847 105.12 294.347 106.02C294.447 106.22 294.507 106.38 294.507 106.46C294.507 106.96 292.747 107.74 292.447 107.74C292.227 107.74 292.107 107.5 292.027 107.34C291.547 106.42 291.027 105.54 290.447 104.7C290.367 104.58 290.267 104.44 290.267 104.3C290.267 103.88 291.907 103.14 292.267 103.14C292.367 103.14 292.527 103.24 292.667 103.42ZM296.147 102.02C296.247 102.02 296.387 102.12 296.507 102.26C297.147 103 297.767 104.1 298.247 104.96C298.327 105.12 298.367 105.26 298.367 105.34C298.367 105.82 296.627 106.6 296.327 106.6C296.107 106.6 295.987 106.38 295.887 106.2C295.407 105.24 294.887 104.38 294.267 103.5C294.187 103.4 294.127 103.3 294.127 103.16C294.127 102.78 295.767 102.02 296.147 102.02ZM300.147 102.4C300.347 102.4 301.507 102.84 301.767 102.94C302.367 103.14 302.947 103.32 302.947 103.62C302.947 103.72 302.847 103.82 302.687 103.94C302.507 104.08 302.467 104.08 302.367 104.44C301.687 106.68 301.187 108.2 299.647 110.04C298.047 111.94 296.327 112.9 294.007 113.68C293.847 113.74 293.507 113.86 293.347 113.86C293.027 113.86 292.507 113.12 292.307 112.84C292.287 112.8 292.247 112.76 292.207 112.7C292.047 112.46 291.807 112.1 291.807 111.88C291.807 111.62 291.947 111.54 292.167 111.48C293.187 111.24 294.507 110.64 295.427 110.12C296.647 109.4 297.647 108.52 298.367 107.3C299.187 105.92 299.627 104.44 299.847 102.84C299.887 102.66 299.947 102.4 300.147 102.4ZM325.667 96.4C326.807 96.4 327.747 97.34 327.747 98.48C327.747 99.64 326.827 100.58 325.667 100.58C324.507 100.58 323.587 99.64 323.587 98.48C323.587 97.34 324.507 96.4 325.667 96.4ZM325.667 97.42C325.087 97.42 324.607 97.9 324.607 98.48C324.607 99.08 325.067 99.54 325.667 99.54C326.247 99.54 326.727 99.08 326.727 98.48C326.727 97.9 326.247 97.42 325.667 97.42ZM314.007 99.68H320.447C321.067 99.68 321.947 99.64 322.347 99.64C322.787 99.64 323.287 100.18 323.587 100.5L323.747 100.66C324.067 101 324.627 101.58 324.627 101.88C324.627 102 324.487 102.38 324.447 102.54C324.367 102.88 324.307 103.16 324.227 103.5C323.367 107.74 321.067 110.5 317.347 112.58C316.747 112.9 314.927 113.84 314.327 113.84C313.887 113.84 313.527 113.2 313.327 112.86C313.147 112.56 312.667 111.7 312.667 111.36C312.667 111.14 312.867 111.08 313.047 111.04C314.987 110.6 317.487 109.16 318.827 107.7C320.067 106.36 320.987 104.22 320.987 103.14C320.987 102.78 320.627 102.74 320.307 102.74H313.947C313.087 102.74 312.247 102.76 311.387 102.76C310.707 102.76 310.607 102.68 310.607 101.9V100.6C310.607 99.76 310.707 99.64 311.287 99.64C312.187 99.64 313.107 99.68 314.007 99.68ZM334.172 99.5C334.592 99.5 336.172 99.66 336.692 99.72C337.072 99.76 337.392 99.8 337.392 99.96C337.392 100.04 337.312 100.12 337.272 100.16C337.092 100.36 337.052 100.5 337.052 100.92C337.052 101.16 337.072 101.4 337.072 101.64C337.072 103.3 337.012 105.14 336.692 106.76C336.312 108.8 335.172 110.86 333.712 112.32C333.492 112.54 333.152 112.9 332.892 112.9C332.472 112.9 331.352 112.2 330.952 111.94C330.752 111.82 330.412 111.62 330.412 111.36C330.412 111.18 330.572 111.04 330.712 110.92C333.652 108.4 333.992 105.72 333.992 102.08C333.992 101.16 333.912 99.78 333.912 99.7C333.912 99.52 334.012 99.5 334.172 99.5ZM341.632 102.5V106.94C341.632 107.76 341.672 108.04 342.032 108.04C342.752 108.04 345.892 105.08 346.532 104.44C346.632 104.34 346.772 104.18 346.952 104.18C347.232 104.18 347.572 104.8 347.832 105.26C347.992 105.54 348.352 106.18 348.352 106.5C348.352 106.86 347.772 107.36 347.412 107.68C347.352 107.74 347.272 107.8 347.232 107.84C346.292 108.66 345.352 109.46 344.372 110.24C343.552 110.9 342.692 111.52 341.892 112.22C341.692 112.4 341.392 112.68 341.152 112.68C340.852 112.68 339.652 112.08 339.352 111.9C339.012 111.72 338.492 111.42 338.492 110.96C338.492 110.56 338.552 109.66 338.552 108.54V102.26C338.552 101.86 338.572 101.2 338.572 100.58C338.572 100.12 338.552 99.68 338.532 99.42C338.512 99.36 338.512 99.32 338.512 99.26C338.512 99.12 338.612 99.1 338.732 99.1C338.772 99.1 339.592 99.18 339.752 99.2C340.072 99.24 341.472 99.4 341.752 99.44C341.912 99.48 342.032 99.5 342.032 99.66C342.032 99.78 341.932 99.86 341.852 99.94C341.652 100.14 341.652 100.44 341.652 100.7C341.632 101.3 341.632 101.9 341.632 102.5ZM356.127 104.06H365.327C366.507 104.06 367.787 103.98 367.967 103.98C368.487 103.98 368.567 104.2 368.567 104.78V105.74C368.567 106.84 368.547 107.18 367.907 107.18C367.127 107.18 366.207 107.12 365.327 107.12H356.127C355.247 107.12 354.307 107.18 353.567 107.18C352.887 107.18 352.887 106.8 352.887 105.74V104.82C352.887 104.22 352.947 103.98 353.467 103.98C353.747 103.98 354.867 104.06 356.127 104.06ZM380.802 98.16C381.102 98.16 382.782 98.9 383.162 99.08C383.222 99.1 383.282 99.14 383.342 99.16C383.642 99.28 383.962 99.4 383.962 99.6C383.962 99.72 383.802 99.8 383.702 99.86C383.342 100.04 383.142 100.42 382.942 100.78C382.902 100.84 382.862 100.92 382.822 100.98C381.582 103.26 380.502 105.6 379.282 107.9C379.222 108.02 379.182 108.08 379.182 108.22C379.182 108.42 379.342 108.58 379.562 108.58C379.662 108.58 379.882 108.56 380.042 108.54C381.142 108.44 382.262 108.32 383.382 108.2C383.782 108.16 384.122 108.12 384.122 107.82C384.122 107.68 383.982 107.5 383.842 107.36C383.442 106.94 383.002 106.56 382.582 106.18C382.462 106.06 382.362 105.96 382.362 105.8C382.362 105.46 383.022 104.9 383.282 104.68C383.662 104.32 384.022 103.96 384.322 103.96C384.542 103.96 384.722 104.1 384.862 104.24C385.762 105.04 386.942 106.32 387.722 107.24C388.142 107.74 389.982 109.94 389.982 110.46C389.982 110.92 389.402 111.38 389.062 111.64C388.762 111.88 388.202 112.34 387.802 112.34C387.542 112.34 387.342 112 386.962 111.36C386.882 111.24 386.802 111.1 386.722 110.96C386.562 110.74 386.402 110.56 386.102 110.56C386.042 110.56 385.302 110.66 385.182 110.68C383.922 110.82 375.662 111.82 374.982 111.94C374.762 111.98 374.662 112.04 374.542 112.22C374.462 112.3 374.402 112.38 374.282 112.38C374.042 112.38 373.962 112 373.862 111.58C373.702 110.92 373.582 110.26 373.422 109.62C373.382 109.46 373.362 109.28 373.362 109.12C373.362 108.84 373.622 108.84 373.822 108.84C374.042 108.84 374.262 108.86 374.482 108.86H374.862C375.642 108.86 375.682 108.78 376.262 107.58C376.382 107.32 376.542 107.02 376.722 106.66C377.522 105.08 379.962 100.06 380.422 98.6C380.482 98.38 380.542 98.16 380.802 98.16Z" fill="#3B35AB"/>
</svg>
