<svg width="457" height="260" viewBox="0 0 457 260" fill="none" xmlns="http://www.w3.org/2000/svg">
<path d="M60.65 23.74V23.85C59.55 40.13 34.36 60.15 34.36 86.66C34.36 87.98 34.47 89.19 34.58 90.51C35.24 97.88 32.05 101.18 29.3 101.18C26.44 101.18 23.58 97.99 23.58 91.94C23.58 91.72 23.58 91.61 23.58 91.39C24.24 64.11 51.52 40.79 52.73 31.99C52.73 31.88 52.73 31.77 52.73 31.66C52.73 31.44 52.62 31.22 52.51 31.22C52.29 31.22 52.07 31.33 51.85 31.44C49.1 32.65 46.35 33.09 43.71 33.09C38.21 33.09 32.93 31.33 28.31 31.33C18.41 31.33 16.65 41.12 16.43 48.93C16.43 51.02 14.89 52.01 13.57 52.01C12.14 52.01 10.82 51.13 10.82 49.48C10.82 49.48 10.82 49.37 10.82 49.26C11.37 43.21 12.47 34.52 12.47 27.81C12.47 26.27 12.36 24.84 12.25 23.52C12.14 22.42 13.24 21.43 15 21.43C16.32 21.43 17.64 22.09 17.64 23.63C17.64 27.04 17.86 27.59 18.41 27.59C18.63 27.59 18.96 27.37 19.29 27.04C23.14 23.3 27.43 22.2 31.83 22.2C37.66 22.2 43.49 24.07 48.77 24.07C51.74 24.07 54.38 23.52 56.8 21.76C57.24 21.43 57.68 21.32 58.12 21.32C59.44 21.32 60.65 22.42 60.65 23.74ZM118.929 18.24C119.259 17.8 120.029 17.58 121.019 17.58C122.779 17.58 124.979 18.35 124.979 20.11C124.979 20.22 124.979 20.22 124.979 20.33C116.509 39.03 97.3685 83.91 90.9885 100.96C90.6585 101.51 89.7785 101.84 88.7885 101.84C87.0285 101.84 84.8285 100.85 84.8285 99.2C84.8285 99.09 84.8285 99.09 84.8285 98.98C91.9785 82.81 111.779 37.27 118.929 18.24ZM201.979 23.74V23.85C200.879 40.13 175.689 60.15 175.689 86.66C175.689 87.98 175.799 89.19 175.909 90.51C176.569 97.88 173.379 101.18 170.629 101.18C167.769 101.18 164.909 97.99 164.909 91.94C164.909 91.72 164.909 91.61 164.909 91.39C165.569 64.11 192.849 40.79 194.059 31.99C194.059 31.88 194.059 31.77 194.059 31.66C194.059 31.44 193.949 31.22 193.839 31.22C193.619 31.22 193.399 31.33 193.179 31.44C190.429 32.65 187.679 33.09 185.039 33.09C179.539 33.09 174.259 31.33 169.639 31.33C159.739 31.33 157.979 41.12 157.759 48.93C157.759 51.02 156.219 52.01 154.899 52.01C153.469 52.01 152.149 51.13 152.149 49.48C152.149 49.48 152.149 49.37 152.149 49.26C152.699 43.21 153.799 34.52 153.799 27.81C153.799 26.27 153.689 24.84 153.579 23.52C153.469 22.42 154.569 21.43 156.329 21.43C157.649 21.43 158.969 22.09 158.969 23.63C158.969 27.04 159.189 27.59 159.739 27.59C159.959 27.59 160.289 27.37 160.619 27.04C164.469 23.3 168.759 22.2 173.159 22.2C178.989 22.2 184.819 24.07 190.099 24.07C193.069 24.07 195.709 23.52 198.129 21.76C198.569 21.43 199.009 21.32 199.449 21.32C200.769 21.32 201.979 22.42 201.979 23.74ZM244.067 102.408C244.171 102.46 244.223 102.564 244.223 102.668C244.223 103.032 243.703 103.552 243.235 103.552C243.183 103.552 243.131 103.5 243.079 103.5C236.995 100.224 230.079 92.164 230.079 79.736C230.079 67.672 236.995 59.716 243.079 56.388C243.131 56.336 243.235 56.336 243.287 56.336C243.703 56.336 244.171 56.908 244.171 57.272C244.171 57.376 244.171 57.48 244.067 57.532C239.387 60.548 235.071 69.388 235.071 79.736C235.071 90.552 239.439 99.288 244.067 102.408ZM285.388 80.984H268.644C265.576 98.716 252.992 100.848 252.992 100.848C252.836 100.848 252.784 100.796 252.784 100.744C252.784 100.588 253.096 100.328 253.928 99.808C263.288 94.244 265.368 82.856 265.42 70.792C265.42 60.964 264.484 56.596 264.172 55.452C264.12 55.296 264.068 55.14 264.068 55.088C264.068 54.984 264.12 54.932 264.224 54.932C264.38 54.932 268.488 56.232 270.516 57.532L270.724 57.688H283.984C284.244 57.688 284.4 57.584 284.608 57.272C285.544 56.024 286.116 55.348 286.688 55.348C287.78 55.348 291.732 57.896 291.732 58.884C291.732 59.404 291.212 59.872 290.276 60.392C289.236 60.912 289.132 61.068 289.132 68.816C289.132 74.432 289.288 81.92 289.392 87.016C289.444 89.928 289.6 91.436 289.6 93.568C289.6 97.624 285.752 100.276 282.528 100.276C282.008 100.276 281.748 100.068 281.332 99.496C280.5 98.352 273.948 95.544 273.948 95.128C273.948 95.076 274 95.076 274.052 95.076C274.156 95.076 274.312 95.076 274.52 95.128C277.328 95.648 279.408 95.908 280.968 95.908C284.348 95.908 285.232 94.764 285.284 92.84C285.388 89.304 285.388 85.144 285.388 80.984ZM285.336 69.856H269.476V71.416C269.424 74.224 269.216 76.928 268.852 79.528H285.388C285.388 76.2 285.388 72.872 285.336 69.856ZM284.348 59.092H270.516L270.152 59.352C269.528 59.768 269.372 59.924 269.372 61.64C269.424 63.668 269.476 66.008 269.476 68.452H285.284C285.284 66.996 285.232 65.644 285.232 64.396C285.18 62.784 285.18 61.172 285.076 59.82C285.076 59.404 284.764 59.092 284.348 59.092ZM323.192 79.736C323.192 92.164 316.224 100.224 310.192 103.5C310.14 103.5 310.088 103.552 310.036 103.552C309.568 103.552 308.996 103.032 308.996 102.668C308.996 102.564 309.048 102.46 309.152 102.408C313.832 99.288 318.148 90.552 318.148 79.736C318.148 69.388 313.832 60.548 309.152 57.532C309.048 57.48 309.048 57.376 309.048 57.272C309.048 56.908 309.516 56.336 309.984 56.336C310.036 56.336 310.14 56.336 310.192 56.388C316.224 59.716 323.192 67.672 323.192 79.736Z" fill="#FAECC0"/>
<path d="M20.928 179.08H5.232C4.56 179.08 4.224 178.792 4.224 178.456C4.224 178.168 4.464 177.832 4.896 177.544C10.512 177.208 10.848 177.064 10.848 172.744V149.944C10.848 149.704 10.656 149.512 10.464 149.512H4.944C4.368 149.512 4.128 149.224 4.128 148.936C4.128 148.552 4.512 148.072 4.992 148.024C9.84 147.544 12.096 145.912 13.104 144.952C13.584 144.472 13.92 144.184 14.688 144.184C15.648 144.184 15.936 145 15.936 145.768C15.936 145.816 15.936 145.864 15.936 145.912C15.888 146.776 15.744 147.976 15.744 149.608V171.832C15.744 177.256 16.08 177.352 21.216 177.544C21.6 177.736 21.888 178.12 21.888 178.456C21.888 178.792 21.6 179.08 20.928 179.08ZM52.8566 149.176L40.2326 149.224C39.3686 149.224 37.3046 150.376 35.9126 155.752C35.7206 156.04 35.4326 156.184 35.1446 156.184C34.8566 156.184 34.5686 155.944 34.5686 155.272C35.2406 152.056 35.9126 148.312 36.1526 146.152C36.2966 145 37.3046 144.856 37.8806 144.856H54.6326C55.6406 144.856 56.0726 145.48 56.0726 146.632C56.0726 147.832 55.4966 148.6 54.8726 149.56C49.1606 158.632 45.8966 168.28 45.8966 175.384C45.8966 177.352 45.3686 179.608 43.2566 179.608C41.3366 179.608 40.4246 177.928 40.4246 176.44C40.4246 172.984 41.3366 167.224 52.8566 149.176ZM72.3533 163.96C70.6253 163.96 69.1853 162.472 69.1853 160.6C69.1853 158.776 70.6253 157.384 72.3533 157.384C74.0813 157.384 75.6173 158.776 75.6173 160.6C75.6173 162.472 74.0813 163.96 72.3533 163.96ZM72.3533 179.656C70.6253 179.656 69.1853 178.168 69.1853 176.296C69.1853 174.472 70.6253 173.032 72.3533 173.032C74.0813 173.032 75.6173 174.472 75.6173 176.296C75.6173 178.168 74.0813 179.656 72.3533 179.656ZM99.7762 179.704C91.2322 179.704 88.4962 170.824 88.4962 162.04C88.4962 153.256 91.9522 144.136 99.4882 144.136C107.744 144.136 110.768 153.112 110.768 161.8C110.768 170.584 107.504 179.704 99.7762 179.704ZM99.8242 178.168C104.48 178.168 105.536 169.864 105.536 161.944C105.536 153.784 104.768 145.624 99.4402 145.624C95.0242 145.624 93.6322 153.976 93.6322 161.992C93.6322 169.864 94.4002 178.168 99.8242 178.168ZM132.137 179.704C123.593 179.704 120.857 170.824 120.857 162.04C120.857 153.256 124.313 144.136 131.849 144.136C140.105 144.136 143.129 153.112 143.129 161.8C143.129 170.584 139.865 179.704 132.137 179.704ZM132.185 178.168C136.841 178.168 137.897 169.864 137.897 161.944C137.897 153.784 137.129 145.624 131.801 145.624C127.385 145.624 125.993 153.976 125.993 161.992C125.993 169.864 126.761 178.168 132.185 178.168ZM177.122 166.744C177.122 167.08 175.154 171.4 170.642 171.4C166.61 171.4 163.394 167.752 159.698 167.752C158.642 167.752 156.53 167.944 155.234 169.48C155.09 169.624 154.898 169.72 154.706 169.72C154.418 169.72 154.178 169.576 154.178 169.24C154.178 168.712 156.338 164.536 160.61 164.536C164.786 164.536 167.858 168.136 171.698 168.136C173.042 168.136 174.53 167.944 176.162 166.408C176.354 166.216 176.498 166.168 176.642 166.168C176.93 166.168 177.122 166.408 177.122 166.744ZM207.548 179.08H190.22C189.596 179.08 188.78 178.792 188.78 177.88C188.78 176.632 191.276 171.64 198.476 163.96C203.036 159.16 205.004 157.144 205.004 152.68C205.004 148.984 203.564 145.72 199.532 145.72C196.94 145.72 194.252 147.784 194.252 150.808C194.252 150.952 194.3 151.576 194.444 151.768C195.02 152.488 195.548 153.112 195.548 154.12C195.548 155.704 194.444 157.24 192.476 157.24C190.028 157.24 189.308 155.032 189.308 153.688C189.308 149.992 193.148 144.136 199.868 144.136C204.812 144.136 209.996 146.728 209.996 153.016C209.996 159.304 204.428 162.664 200.348 166.312C197.756 168.616 193.916 172.024 192.044 174.904L204.476 174.856C204.908 174.856 207.164 173.848 208.796 168.664C208.892 168.52 209.132 168.424 209.42 168.424C209.756 168.424 210.092 168.616 210.092 169.096C210.092 169.144 210.092 169.192 210.092 169.24C209.276 172.552 208.796 175.672 208.412 178.216C208.268 178.648 207.932 178.984 207.548 179.08ZM231.797 179.704C223.253 179.704 220.517 170.824 220.517 162.04C220.517 153.256 223.973 144.136 231.509 144.136C239.765 144.136 242.789 153.112 242.789 161.8C242.789 170.584 239.525 179.704 231.797 179.704ZM231.845 178.168C236.501 178.168 237.557 169.864 237.557 161.944C237.557 153.784 236.789 145.624 231.461 145.624C227.045 145.624 225.653 153.976 225.653 161.992C225.653 169.864 226.421 178.168 231.845 178.168ZM258.829 163.96C257.101 163.96 255.661 162.472 255.661 160.6C255.661 158.776 257.101 157.384 258.829 157.384C260.557 157.384 262.093 158.776 262.093 160.6C262.093 162.472 260.557 163.96 258.829 163.96ZM258.829 179.656C257.101 179.656 255.661 178.168 255.661 176.296C255.661 174.472 257.101 173.032 258.829 173.032C260.557 173.032 262.093 174.472 262.093 176.296C262.093 178.168 260.557 179.656 258.829 179.656ZM286.253 179.704C277.709 179.704 274.973 170.824 274.973 162.04C274.973 153.256 278.429 144.136 285.965 144.136C294.221 144.136 297.245 153.112 297.245 161.8C297.245 170.584 293.981 179.704 286.253 179.704ZM286.301 178.168C290.957 178.168 292.013 169.864 292.013 161.944C292.013 153.784 291.245 145.624 285.917 145.624C281.501 145.624 280.109 153.976 280.109 161.992C280.109 169.864 280.877 178.168 286.301 178.168ZM318.613 179.704C310.069 179.704 307.333 170.824 307.333 162.04C307.333 153.256 310.789 144.136 318.325 144.136C326.581 144.136 329.605 153.112 329.605 161.8C329.605 170.584 326.341 179.704 318.613 179.704ZM318.661 178.168C323.317 178.168 324.373 169.864 324.373 161.944C324.373 153.784 323.605 145.624 318.277 145.624C313.861 145.624 312.469 153.976 312.469 161.992C312.469 169.864 313.237 178.168 318.661 178.168Z" fill="#FAECC0"/>
<path d="M22.08 241.232V240.656C20.832 242.768 19.008 244.352 16.08 244.352C12.192 244.352 11.52 240.56 11.52 238.592C11.52 233.408 15.456 224.144 21.984 224.144C23.28 224.144 24.816 224.72 25.488 225.632L27.504 224.624C27.648 224.576 27.792 224.576 27.888 224.576C28.32 224.576 28.464 224.816 28.464 225.152C28.464 225.296 28.416 225.488 28.368 225.68C27.12 230.72 25.68 237.968 25.68 240.032C25.68 241.136 25.968 242.768 27.12 242.768C30.912 242.768 33.84 238.352 33.84 232.064C33.84 225.152 28.8 219.824 21.264 219.824C13.296 219.824 7.2 226.88 7.2 236.192C7.2 246.224 15.072 250.16 20.784 250.16C25.632 250.16 30.144 248.336 32.688 246.032C32.832 245.936 32.976 245.936 33.12 245.936C33.6 245.936 33.936 246.368 33.936 246.8C33.936 246.944 33.936 247.088 33.84 247.232C31.344 249.728 27.12 252.56 19.872 252.56C11.424 252.56 3.024 247.76 3.024 235.712C3.024 226.496 10.224 217.376 20.64 217.376C31.584 217.376 36.288 224.672 36.288 231.776C36.288 237.2 33.744 244.688 26.256 244.688C23.568 244.688 22.08 243.056 22.08 241.232ZM17.088 242.336C20.64 242.336 23.856 232.4 23.856 227.6C23.856 226.688 23.568 225.776 22.416 225.776C18.768 225.776 15.36 233.696 15.36 238.88C15.36 240.608 15.504 242.336 17.088 242.336ZM68.529 252.08H54.801C54.177 252.08 53.889 251.792 53.889 251.504C53.889 251.168 54.129 250.784 54.513 250.544C58.449 250.4 58.785 249.92 59.025 248.816C59.313 247.424 59.313 244.928 59.313 239.648V227.312C59.313 223.568 59.313 221.36 59.121 219.968C58.977 219.872 58.689 219.728 57.681 219.728H53.697C51.153 219.728 48.273 225.824 47.409 227.744C47.217 227.984 46.929 228.08 46.689 228.08C46.305 228.08 46.017 227.84 45.969 227.36C46.401 224.048 47.073 220.064 47.361 218.624C47.505 217.904 47.937 217.76 48.417 217.76C48.513 217.76 48.657 217.76 48.753 217.76C50.769 217.856 53.265 218 58.593 218H64.833C70.113 218 72.753 217.856 74.577 217.76C74.673 217.76 74.817 217.76 74.913 217.76C75.441 217.76 75.921 217.904 76.065 218.624C76.353 220.016 76.977 223.808 77.505 227.36C77.361 227.84 76.977 228.08 76.641 228.08C76.449 228.08 76.257 228.032 76.113 227.936C75.201 225.632 72.321 219.728 69.489 219.728H65.889C64.785 219.728 64.497 219.968 64.353 220.064C64.161 221.408 64.113 223.472 64.113 227.312V239.648C64.113 245.648 64.161 248.336 64.401 249.008C64.737 249.92 65.265 250.496 68.817 250.544C69.201 250.784 69.441 251.168 69.441 251.456C69.441 251.792 69.153 252.08 68.529 252.08ZM98.1248 248.912C96.7328 250.976 95.0048 252.704 91.4048 252.704C88.5248 252.704 84.9728 251.168 84.9728 246.704C84.9728 241.568 89.1488 240.416 97.6928 238.928C97.8848 238.928 97.8848 237.68 97.8848 237.248C97.8848 233.552 97.8368 230.384 94.2368 230.384C92.4608 230.384 91.2128 231.536 91.2128 232.544C91.2128 232.64 91.2128 232.736 91.2608 232.832C91.2608 232.88 91.7888 233.6 91.7888 234.224C91.7888 235.952 90.6368 236.96 89.1488 236.96C87.4208 236.96 86.6048 235.568 86.6048 234.224C86.6048 231.152 91.1168 228.752 94.9568 228.752C100.669 228.752 102.157 232.544 102.157 235.136C102.157 237.392 101.917 241.52 101.917 246.176C101.917 248.672 102.013 250.016 102.925 250.016C103.357 250.016 104.125 249.728 105.037 248.384C105.133 248.384 105.181 248.384 105.229 248.384C105.949 248.384 106.093 248.816 106.093 249.296C105.085 251.408 103.549 252.512 101.773 252.512C99.3248 252.512 98.4128 250.832 98.1248 248.912ZM97.6448 246.272C97.6448 246.272 97.7888 241.664 97.7888 240.704C97.7888 240.512 97.6448 240.512 97.5968 240.512C90.7328 241.808 89.3888 243.68 89.3888 246.32C89.3888 249.392 91.4048 250.208 92.6048 250.208C95.6288 250.16 97.5968 248 97.6448 246.272ZM138.676 252.08H129.22C128.692 252.08 128.5 251.84 128.5 251.504C128.5 251.264 128.644 250.976 128.98 250.784C129.604 250.784 131.236 250.784 131.236 250.16C131.236 249.776 126.868 243.2 125.092 240.848C124.18 241.568 123.604 242.192 122.884 242.864C122.884 244.88 122.884 248.096 122.98 249.344C123.076 250.256 123.46 250.784 125.956 250.784C126.244 251.024 126.388 251.264 126.388 251.504C126.388 251.84 126.148 252.08 125.716 252.08H116.26C115.732 252.08 115.54 251.84 115.54 251.504C115.54 251.264 115.684 250.976 115.972 250.784C118.324 250.688 118.564 250.304 118.66 249.344C118.804 247.424 118.852 244.976 118.852 243.008V222.128C118.852 220.016 118.756 219.968 116.452 219.296C116.068 219.2 115.924 218.96 115.924 218.72C115.924 218.48 116.068 218.288 116.404 218.192C118.612 217.664 120.868 216.992 122.404 216.416C122.548 216.368 122.692 216.32 122.836 216.32C123.124 216.32 123.364 216.464 123.364 217.04C123.364 217.04 123.364 217.088 123.364 217.136C123.028 221.504 122.884 225.728 122.884 230.432V240.704C124.708 239.216 131.524 232.88 131.524 231.968C131.524 231.248 129.892 231.2 128.548 231.152C128.164 231.104 127.972 230.768 127.972 230.432C127.972 230.144 128.164 229.808 128.692 229.808H136.756C137.188 229.808 137.428 230.048 137.428 230.384C137.428 230.624 137.332 230.864 137.044 231.104C135.508 231.296 134.836 231.584 133.156 233.264C131.86 234.56 129.748 236.864 128.26 238.208C130.852 241.664 134.692 247.52 136.084 249.536C136.756 250.304 137.332 250.832 138.964 250.832C139.252 251.072 139.348 251.36 139.348 251.552C139.348 251.888 139.156 252.08 138.676 252.08ZM152.757 223.904C151.029 223.904 149.637 222.416 149.637 220.688C149.637 218.912 151.029 217.472 152.757 217.472C154.485 217.472 155.829 218.912 155.829 220.688C155.829 222.416 154.485 223.904 152.757 223.904ZM157.653 252.08H148.101C147.621 252.08 147.333 251.84 147.333 251.504C147.333 251.264 147.525 251.024 147.861 250.736C150.357 250.592 150.597 250.16 150.693 249.344C150.885 247.952 150.885 246.656 150.885 244.352V234.128C150.885 232.16 150.741 231.92 148.725 231.44C148.389 231.344 148.197 231.152 148.197 230.912C148.197 230.672 148.341 230.48 148.725 230.384C150.789 229.904 152.661 229.232 154.245 228.608C154.437 228.56 154.581 228.512 154.725 228.512C155.061 228.512 155.205 228.752 155.205 229.232C155.205 229.28 155.205 229.376 155.205 229.424C155.157 230.96 154.965 234.848 154.965 237.488V243.68C154.965 244.544 154.965 245.36 154.965 246.176C154.965 250.448 155.013 250.736 157.941 250.736C158.229 251.024 158.325 251.264 158.325 251.504C158.325 251.84 158.037 252.08 157.653 252.08ZM202.622 252.08H189.95C189.278 252.08 188.894 251.84 188.894 251.504C188.894 251.216 189.134 250.88 189.614 250.544C192.734 250.352 193.022 249.968 193.31 248.864C193.55 247.856 193.598 244.208 193.598 239.552V229.136C193.598 224.48 193.598 221.936 193.358 220.832C193.214 220.208 192.974 219.44 189.566 219.44C189.038 219.2 188.846 218.864 188.846 218.576C188.846 218.192 189.23 217.904 189.854 217.904H202.478C209.15 217.904 216.11 220.064 216.11 227.216C216.11 235.376 207.998 237.296 203.438 237.296C201.662 237.296 199.55 237.104 198.398 236.912C198.398 237.008 198.35 237.872 198.35 238.064V242.912C198.35 250.112 198.446 250.496 202.91 250.496C203.294 250.832 203.486 251.216 203.486 251.504C203.486 251.84 203.198 252.08 202.622 252.08ZM198.35 225.536V234.944C198.35 235.088 199.598 235.328 202.094 235.328C206.222 235.328 210.974 234.032 210.974 227.408C210.974 222.56 207.806 219.584 202.046 219.584C199.454 219.584 198.59 219.824 198.542 220.352C198.398 221.6 198.35 222.416 198.35 225.536ZM236.12 252.08H226.712C226.184 252.08 225.944 251.84 225.944 251.552C225.944 251.36 226.088 251.072 226.376 250.832C228.776 250.736 228.968 250.112 229.016 249.344C229.16 247.472 229.16 245.888 229.16 243.968V221.984C229.16 219.872 229.016 219.92 226.76 219.296C226.376 219.2 226.232 218.96 226.232 218.768C226.232 218.528 226.424 218.336 226.76 218.24C228.824 217.808 231.752 216.848 233 216.416C233.192 216.32 233.336 216.272 233.48 216.272C233.672 216.272 233.768 216.416 233.768 216.848C233.768 216.944 233.768 216.992 233.768 217.04C233.432 221.408 233.336 225.536 233.336 230.192V243.968C233.336 246.032 233.336 248.096 233.432 249.392C233.528 250.304 233.864 250.784 236.36 250.784C236.648 251.072 236.792 251.36 236.792 251.552C236.792 251.888 236.552 252.08 236.12 252.08ZM259.242 248.912C257.85 250.976 256.122 252.704 252.522 252.704C249.642 252.704 246.09 251.168 246.09 246.704C246.09 241.568 250.266 240.416 258.81 238.928C259.002 238.928 259.002 237.68 259.002 237.248C259.002 233.552 258.954 230.384 255.354 230.384C253.578 230.384 252.33 231.536 252.33 232.544C252.33 232.64 252.33 232.736 252.378 232.832C252.378 232.88 252.906 233.6 252.906 234.224C252.906 235.952 251.754 236.96 250.266 236.96C248.538 236.96 247.722 235.568 247.722 234.224C247.722 231.152 252.234 228.752 256.074 228.752C261.786 228.752 263.274 232.544 263.274 235.136C263.274 237.392 263.034 241.52 263.034 246.176C263.034 248.672 263.13 250.016 264.042 250.016C264.474 250.016 265.242 249.728 266.154 248.384C266.25 248.384 266.298 248.384 266.346 248.384C267.066 248.384 267.21 248.816 267.21 249.296C266.202 251.408 264.666 252.512 262.89 252.512C260.442 252.512 259.53 250.832 259.242 248.912ZM258.762 246.272C258.762 246.272 258.906 241.664 258.906 240.704C258.906 240.512 258.762 240.512 258.714 240.512C251.85 241.808 250.506 243.68 250.506 246.32C250.506 249.392 252.522 250.208 253.722 250.208C256.746 250.16 258.714 248 258.762 246.272ZM293.457 252.08H277.473C276.801 252.08 276.321 251.936 276.321 251.36C276.321 250.688 276.609 250.448 276.993 249.92L290.337 231.392H284.529C282.993 231.392 280.737 232.16 279.153 236.48C279.009 236.672 278.769 236.72 278.577 236.72C278.241 236.72 277.905 236.576 277.857 236.288L278.961 230.048C279.009 229.664 279.153 229.568 279.345 229.568C279.441 229.568 279.537 229.616 279.633 229.616C280.257 229.712 280.689 229.808 281.457 229.808H294.129C294.945 229.808 295.185 229.856 295.185 230.48C295.185 231.536 294.801 231.92 294.369 232.496L281.073 250.448H287.217C289.569 250.448 292.545 249.872 294.657 244.352C294.753 244.064 294.993 243.92 295.281 243.92C295.569 243.92 295.857 244.112 295.905 244.496C295.617 246.464 295.089 249.584 294.705 251.216C294.465 252.08 294.321 252.08 293.457 252.08ZM319.416 248.912C318.024 250.976 316.296 252.704 312.696 252.704C309.816 252.704 306.264 251.168 306.264 246.704C306.264 241.568 310.44 240.416 318.984 238.928C319.176 238.928 319.176 237.68 319.176 237.248C319.176 233.552 319.128 230.384 315.528 230.384C313.752 230.384 312.504 231.536 312.504 232.544C312.504 232.64 312.504 232.736 312.552 232.832C312.552 232.88 313.08 233.6 313.08 234.224C313.08 235.952 311.928 236.96 310.44 236.96C308.712 236.96 307.896 235.568 307.896 234.224C307.896 231.152 312.408 228.752 316.248 228.752C321.96 228.752 323.448 232.544 323.448 235.136C323.448 237.392 323.208 241.52 323.208 246.176C323.208 248.672 323.304 250.016 324.216 250.016C324.648 250.016 325.416 249.728 326.328 248.384C326.424 248.384 326.472 248.384 326.52 248.384C327.24 248.384 327.384 248.816 327.384 249.296C326.376 251.408 324.84 252.512 323.064 252.512C320.616 252.512 319.704 250.832 319.416 248.912ZM318.936 246.272C318.936 246.272 319.08 241.664 319.08 240.704C319.08 240.512 318.936 240.512 318.888 240.512C312.024 241.808 310.68 243.68 310.68 246.32C310.68 249.392 312.696 250.208 313.896 250.208C316.92 250.16 318.888 248 318.936 246.272ZM373.302 252.08H358.902C358.278 252.08 357.99 251.792 357.99 251.456C357.99 251.168 358.23 250.832 358.566 250.64C361.782 250.352 361.926 250.16 362.214 249.056C362.454 248.048 362.454 244.352 362.454 239.696V228.896C362.454 224.24 362.454 221.648 362.214 220.544C362.07 219.92 361.83 219.344 358.422 219.344C357.99 219.152 357.75 218.864 357.75 218.528C357.75 218.192 358.086 217.856 358.71 217.856H372.438C378.918 217.856 383.958 220.352 383.958 226.064C383.958 230.336 381.174 232.88 378.342 233.984C382.086 234.944 385.974 237.68 385.974 242.48C385.974 250.544 378.006 252.08 373.302 252.08ZM368.118 233.312H371.574C374.31 233.312 379.014 232.112 379.014 226.352C379.014 222.944 376.374 219.392 371.334 219.392C367.926 219.392 367.638 219.728 367.398 220.592C367.206 221.936 367.158 222.848 367.158 226.832V233.312C367.158 233.312 367.158 233.312 368.118 233.312ZM371.238 235.088H367.878C367.542 235.088 367.302 235.136 367.158 235.136V243.968C367.158 246.416 367.206 248.048 367.59 249.056C367.974 250.112 369.942 250.4 372.678 250.4C377.766 250.4 380.838 246.944 380.838 242.672C380.838 236.816 376.95 235.088 371.238 235.088ZM416.073 252.08H398.745C398.121 252.08 397.305 251.792 397.305 250.88C397.305 249.632 399.801 244.64 407.001 236.96C411.561 232.16 413.529 230.144 413.529 225.68C413.529 221.984 412.089 218.72 408.057 218.72C405.465 218.72 402.777 220.784 402.777 223.808C402.777 223.952 402.825 224.576 402.969 224.768C403.545 225.488 404.073 226.112 404.073 227.12C404.073 228.704 402.969 230.24 401.001 230.24C398.553 230.24 397.833 228.032 397.833 226.688C397.833 222.992 401.673 217.136 408.393 217.136C413.337 217.136 418.521 219.728 418.521 226.016C418.521 232.304 412.953 235.664 408.873 239.312C406.281 241.616 402.441 245.024 400.569 247.904L413.001 247.856C413.433 247.856 415.689 246.848 417.321 241.664C417.417 241.52 417.657 241.424 417.945 241.424C418.281 241.424 418.617 241.616 418.617 242.096C418.617 242.144 418.617 242.192 418.617 242.24C417.801 245.552 417.321 248.672 416.937 251.216C416.793 251.648 416.457 251.984 416.073 252.08ZM442.577 252.08H429.857C429.185 252.08 428.897 251.84 428.897 251.504C428.897 251.216 429.137 250.88 429.521 250.544C432.737 250.256 432.881 250.064 433.169 248.864C433.409 247.76 433.409 243.92 433.409 238.976V229.52C433.409 224.624 433.409 221.84 433.169 220.688C433.025 220.016 432.785 219.44 429.377 219.44C428.945 219.152 428.753 218.816 428.753 218.48C428.753 218.144 429.041 217.856 429.665 217.856H452.849C453.713 217.856 454.097 217.952 454.241 218.672C454.481 220.064 455.057 224.048 455.201 227.216C455.057 227.552 454.769 227.84 454.433 227.84C454.241 227.84 454.049 227.792 453.809 227.648C453.569 226.928 451.361 219.824 447.137 219.824H439.985C439.313 219.824 438.401 219.872 438.353 220.448C438.209 221.792 438.161 223.184 438.161 226.736V233.648C438.161 233.696 438.209 233.648 438.257 233.648H443.777C445.649 233.648 448.097 232.736 448.433 228.8C448.721 228.416 448.961 228.224 449.201 228.224C449.585 228.224 449.825 228.608 449.921 229.088V241.136C449.729 241.568 449.393 241.808 449.057 241.808C448.673 241.808 448.385 241.52 448.337 240.896C448.193 236.912 445.649 235.616 443.873 235.616H438.257C438.161 235.616 438.161 235.616 438.161 235.712V242.816C438.161 250.16 438.209 250.496 442.913 250.496C443.249 250.832 443.441 251.168 443.441 251.504C443.441 251.84 443.153 252.08 442.577 252.08Z" fill="#FAECC0"/>
</svg>
