<svg width="623" height="44" viewBox="0 0 623 44" fill="none" xmlns="http://www.w3.org/2000/svg">
<path d="M91.9567 25.628C91.4887 26.564 91.2007 28.544 90.9487 29.66C90.8407 30.2 90.7687 30.308 90.2287 30.668C88.3927 31.82 84.9367 32.648 82.2007 32.648C74.3167 32.648 67.1887 28.112 67.1887 18.824C67.1887 11.624 73.3807 5.504 81.6247 5.504C84.9727 5.504 86.8807 6.188 89.5447 6.188C89.6167 6.188 89.6887 6.188 89.7607 6.188C89.9047 6.188 90.0487 6.188 90.1927 6.188C90.7687 6.188 90.9127 6.296 90.9127 7.016C90.9487 8.024 91.5607 11.228 91.5607 12.56V12.596C91.5607 12.884 91.2367 13.064 90.9127 13.064C90.6967 13.064 90.5167 12.992 90.4447 12.776C88.9687 8.456 85.3687 6.764 81.4807 6.764C76.5487 6.764 71.4727 10.616 71.4727 18.824C71.4727 27.068 76.6567 31.352 82.5607 31.352C86.1967 31.352 89.3647 28.4 90.8047 25.124C90.8767 24.98 91.0567 24.908 91.2367 24.908C91.5967 24.908 91.9927 25.124 91.9927 25.448C91.9927 25.484 91.9927 25.556 91.9567 25.628ZM102.91 31.172C103.09 31.316 103.162 31.496 103.162 31.676C103.162 31.928 103.018 32.144 102.802 32.144C102.802 32.144 100.282 31.964 97.8697 31.964C96.6817 31.964 95.4937 32 94.6657 32.144C94.6297 32.144 94.6297 32.144 94.5937 32.144C94.4137 32.144 94.3417 32 94.3417 31.784C94.3417 31.568 94.4497 31.316 94.6297 31.208C96.6457 31.136 96.8617 30.02 96.9337 29.192C97.0057 28.292 97.0777 26.528 97.0777 19.328C97.0777 15.836 97.0417 11.66 96.9337 9.176C96.8617 7.484 96.5737 7.052 95.1337 6.728C94.9177 6.692 94.8097 6.512 94.8097 6.296C94.8097 6.116 94.9177 5.9 95.0977 5.864C96.8617 5.612 98.5897 4.856 100.138 4.244C100.246 4.208 100.318 4.208 100.39 4.208C100.606 4.208 100.75 4.316 100.75 4.568C100.75 4.604 100.75 4.676 100.75 4.712C100.498 7.304 100.354 15.044 100.354 22.46C100.354 26.06 100.462 28.976 100.462 29.156C100.57 30.092 100.858 30.992 102.91 31.172ZM111.055 8.564C111.055 9.932 109.975 11.084 108.607 11.084C107.239 11.084 106.123 9.932 106.123 8.564C106.123 7.232 107.239 6.116 108.607 6.116C109.975 6.116 111.055 7.232 111.055 8.564ZM112.891 31.136C113.071 31.28 113.143 31.496 113.143 31.712C113.143 31.928 113.035 32.144 112.819 32.144C112.819 32.144 110.515 31.892 108.139 31.892C106.951 31.892 105.763 31.964 104.791 32.144C104.755 32.144 104.755 32.144 104.719 32.144C104.539 32.144 104.431 31.964 104.431 31.748C104.431 31.532 104.503 31.316 104.683 31.172C106.915 30.884 107.239 30.272 107.239 25.7C107.239 19.472 107.167 19.328 105.259 18.896C105.079 18.86 104.971 18.644 104.971 18.464C104.971 18.248 105.079 18.068 105.295 18.032C106.879 17.816 108.751 17.132 110.011 16.556C110.191 16.484 110.335 16.412 110.479 16.412C110.659 16.412 110.767 16.52 110.767 16.844C110.767 16.88 110.767 16.916 110.767 16.988C110.695 17.744 110.443 22.82 110.443 25.916C110.443 30.2 110.443 30.956 112.891 31.136ZM129.209 29.516C129.209 29.804 127.157 32.648 122.909 32.648C118.517 32.648 115.097 29.804 115.097 25.268C115.097 20.084 119.057 16.772 123.377 16.7C123.953 16.7 124.601 16.772 125.249 16.844C125.645 16.88 125.933 16.916 126.221 16.916C126.365 16.916 126.509 16.916 126.689 16.88C126.761 16.88 126.833 16.88 126.869 16.88C128.273 16.88 128.993 19.58 128.993 20.084C128.993 20.804 128.633 21.02 128.273 21.02C127.661 21.02 127.013 20.444 126.545 19.652C125.969 18.752 124.745 17.744 123.197 17.744C120.461 17.744 118.553 20.3 118.553 23.756C118.553 28.184 121.145 30.668 124.277 30.668C125.717 30.668 127.445 29.84 128.345 28.976C128.453 28.904 128.525 28.868 128.633 28.868C128.921 28.868 129.209 29.192 129.209 29.516ZM148.834 31.172C149.014 31.316 149.086 31.532 149.086 31.712C149.086 31.964 148.978 32.144 148.762 32.144C148.762 32.144 146.458 31.964 144.19 31.964C143.038 31.964 141.886 32 141.022 32.144H140.986C140.77 32.144 140.662 31.928 140.662 31.712C140.662 31.532 140.734 31.316 140.95 31.208C141.598 31.1 142.354 30.92 142.354 30.452C142.354 29.696 137.494 24.404 137.026 24.332C136.99 24.332 136.954 24.296 136.882 24.296C136.594 24.296 136.594 24.44 136.594 24.836C136.558 25.736 136.558 26.852 136.558 27.788C136.558 30.056 136.63 30.956 138.79 31.208C138.934 31.352 139.042 31.568 139.042 31.748C139.042 31.964 138.934 32.144 138.718 32.144C138.718 32.144 136.522 31.928 134.29 31.928C133.138 31.928 132.022 32 131.122 32.144C131.086 32.144 131.05 32.144 131.05 32.144C130.834 32.144 130.762 32 130.762 31.82C130.762 31.604 130.87 31.316 131.05 31.208C132.85 30.992 133.066 30.164 133.138 29.372C133.426 25.628 133.426 15.152 133.426 14.468C133.426 7.268 133.426 7.196 131.374 6.692C131.194 6.62 131.086 6.44 131.086 6.26C131.086 6.044 131.194 5.864 131.41 5.864C133.21 5.612 135.226 4.64 136.27 4.208C136.378 4.172 136.486 4.136 136.558 4.136C136.738 4.136 136.882 4.244 136.882 4.568C136.882 4.604 136.882 4.64 136.882 4.712C136.738 6.404 136.558 20.192 136.558 22.712C136.558 23.072 136.702 23.252 136.918 23.252C136.954 23.252 136.954 23.252 136.99 23.252C137.818 23.252 142.714 19.508 142.714 18.824C142.714 18.428 142.03 18.248 141.274 18.14C141.058 17.996 140.986 17.816 140.986 17.636C140.986 17.42 141.13 17.204 141.382 17.204C141.382 17.204 142.966 17.384 144.802 17.384C145.738 17.384 146.746 17.348 147.646 17.204H147.682C147.898 17.204 148.042 17.456 148.042 17.708C148.042 17.888 147.934 18.104 147.754 18.176C145.018 18.68 140.014 22.676 140.014 22.892C140.014 22.964 140.05 23.072 140.158 23.18C147.214 30.848 147.43 30.992 148.834 31.172ZM177.845 31.172C178.025 31.352 178.097 31.532 178.097 31.712C178.097 31.964 177.953 32.144 177.773 32.144C177.737 32.144 175.541 31.892 173.237 31.892C172.085 31.892 170.897 31.964 169.961 32.144C169.925 32.144 169.925 32.144 169.889 32.144C169.709 32.144 169.601 31.964 169.601 31.748C169.601 31.568 169.709 31.352 169.925 31.172C172.157 30.992 172.193 30.056 172.265 25.484C172.265 24.512 172.229 22.676 172.193 22.1C172.049 19.904 170.825 18.68 169.133 18.68C166.757 18.68 165.353 20.408 165.245 21.416C165.173 21.884 165.173 23.18 165.173 24.584C165.173 26.528 165.209 28.688 165.245 29.264C165.317 30.164 165.785 31.172 167.657 31.172C167.801 31.316 167.873 31.532 167.873 31.712C167.873 31.928 167.765 32.144 167.549 32.144C167.513 32.144 165.281 31.892 163.013 31.892C161.861 31.892 160.673 31.964 159.773 32.144C159.737 32.144 159.701 32.144 159.701 32.144C159.485 32.144 159.413 32 159.413 31.784C159.413 31.568 159.485 31.316 159.701 31.172C161.465 30.992 161.753 30.128 161.825 29.3C161.861 28.904 162.005 25.628 162.005 14.576C162.005 7.232 162.005 7.196 159.809 6.656C159.701 6.656 159.629 6.476 159.629 6.296C159.629 6.116 159.701 5.936 159.845 5.9C161.537 5.612 163.877 4.748 164.921 4.244C165.029 4.208 165.137 4.172 165.209 4.172C165.389 4.172 165.497 4.28 165.497 4.568C165.497 4.568 165.497 4.604 165.497 4.64C165.353 7.988 165.353 11.372 165.281 17.024L165.245 19.004C165.245 19.112 165.281 19.148 165.317 19.148C165.353 19.148 165.425 19.112 165.461 19.076C167.045 17.204 169.025 16.664 170.393 16.664C173.273 16.664 175.397 18.572 175.505 21.668C175.541 22.568 175.577 24.26 175.577 25.52C175.577 26.816 175.577 28.544 175.613 29.336C175.685 30.272 176.153 31.136 177.845 31.172ZM187.845 16.664C191.697 16.664 193.533 19.256 193.533 21.02C193.533 22.712 191.517 22.928 185.001 22.928C183.345 22.928 183.237 22.928 183.237 24.296C183.237 27.644 185.217 30.992 188.925 30.992C191.049 30.992 192.309 29.912 192.777 29.516C192.849 29.444 192.921 29.408 193.029 29.408C193.281 29.408 193.569 29.768 193.569 30.056C193.569 30.524 191.265 32.72 187.521 32.72C182.949 32.72 179.853 29.48 179.853 24.944C179.853 20.336 183.237 16.664 187.845 16.664ZM189.861 20.48C189.861 19.688 189.285 17.744 187.233 17.744C184.569 17.744 183.561 20.768 183.561 21.596C183.561 21.812 183.633 22.028 183.813 22.028C183.849 22.028 183.849 22.028 183.885 22.028C185.181 21.704 187.233 21.416 188.925 21.236C189.321 21.2 189.825 20.948 189.861 20.48ZM205.747 16.628C207.295 16.628 207.871 17.24 207.871 17.96C207.871 18.932 206.827 20.084 205.747 20.084C205.387 20.084 205.063 19.976 204.739 19.724C204.127 19.256 203.551 19.04 203.047 19.04C202.003 19.04 201.283 19.976 201.247 21.128C201.211 21.56 201.211 22.352 201.211 23.216C201.211 24.368 201.211 25.664 201.247 26.384C201.247 26.924 201.247 27.428 201.247 27.896C201.247 30.38 201.427 30.848 204.235 31.172C204.415 31.316 204.487 31.568 204.487 31.748C204.487 31.964 204.379 32.144 204.199 32.144C204.199 32.144 201.643 31.964 199.159 31.964C197.899 31.964 196.675 32 195.775 32.144C195.739 32.144 195.739 32.144 195.703 32.144C195.523 32.144 195.451 32 195.451 31.82C195.451 31.604 195.559 31.352 195.703 31.208C197.539 31.1 197.827 30.308 197.935 29.3C198.007 28.58 198.007 25.232 198.007 23.252C198.007 20.084 197.899 19.04 196.171 18.644C196.027 18.608 195.955 18.464 195.955 18.284C195.955 18.104 196.027 17.924 196.207 17.888C197.647 17.6 199.411 16.844 200.563 16.34C200.635 16.34 200.707 16.304 200.743 16.304C201.031 16.304 201.139 16.52 201.139 16.916C201.139 16.952 201.139 16.988 201.139 17.06L201.031 18.572C201.031 18.752 201.067 18.824 201.139 18.824C201.175 18.824 201.211 18.788 201.283 18.716C202.615 17.6 204.451 16.628 205.747 16.628ZM217.517 16.664C221.369 16.664 223.205 19.256 223.205 21.02C223.205 22.712 221.189 22.928 214.673 22.928C213.017 22.928 212.909 22.928 212.909 24.296C212.909 27.644 214.889 30.992 218.597 30.992C220.721 30.992 221.981 29.912 222.449 29.516C222.521 29.444 222.593 29.408 222.701 29.408C222.953 29.408 223.241 29.768 223.241 30.056C223.241 30.524 220.937 32.72 217.193 32.72C212.621 32.72 209.525 29.48 209.525 24.944C209.525 20.336 212.909 16.664 217.517 16.664ZM219.533 20.48C219.533 19.688 218.957 17.744 216.905 17.744C214.241 17.744 213.233 20.768 213.233 21.596C213.233 21.812 213.305 22.028 213.485 22.028C213.521 22.028 213.521 22.028 213.557 22.028C214.853 21.704 216.905 21.416 218.597 21.236C218.993 21.2 219.497 20.948 219.533 20.48ZM246.133 30.704C246.133 30.956 244.297 32.612 241.525 32.612C239.041 32.612 237.277 31.208 237.097 28.652C237.025 27.644 236.989 26.348 236.989 25.052C236.989 23 237.061 20.804 237.133 19.364C237.133 18.932 237.025 18.932 236.737 18.932C236.341 18.932 235.621 19.076 235.261 19.112C235.045 19.112 234.901 18.824 234.901 18.536C234.901 18.284 235.009 17.996 235.225 17.96C237.313 17.384 239.041 15.836 239.725 14.036C239.833 13.82 240.085 13.712 240.301 13.712C240.589 13.712 240.877 13.856 240.877 14.036C240.877 14.792 240.769 16.52 240.769 16.772C240.769 16.808 240.769 16.88 240.769 16.916C240.769 17.168 240.841 17.24 241.093 17.24C241.273 17.24 244.477 16.916 245.197 16.772C245.233 16.772 245.269 16.772 245.269 16.772C245.557 16.772 245.701 17.096 245.701 17.456C245.701 17.924 245.557 18.464 245.269 18.464C243.505 18.5 241.345 18.68 241.057 18.68C240.481 18.752 240.445 19.076 240.445 23.792C240.445 28.904 240.589 30.704 243.001 30.704C243.865 30.704 244.981 30.308 245.629 30.056H245.665C245.845 30.056 246.133 30.452 246.133 30.704ZM263.799 24.764C263.799 28.976 260.775 32.684 255.699 32.684C251.775 32.684 247.599 29.984 247.599 24.764C247.599 20.3 251.055 16.7 255.771 16.7C260.739 16.7 263.799 20.336 263.799 24.764ZM260.091 25.592C260.091 24.188 259.767 17.636 255.555 17.636C251.271 17.636 251.271 23.468 251.271 23.9C251.271 26.456 252.063 31.676 255.951 31.676C256.995 31.676 260.091 31.388 260.091 25.592ZM285.833 16.628C287.381 16.628 287.957 17.24 287.957 17.96C287.957 18.932 286.913 20.084 285.833 20.084C285.473 20.084 285.149 19.976 284.825 19.724C284.213 19.256 283.637 19.04 283.133 19.04C282.089 19.04 281.369 19.976 281.333 21.128C281.297 21.56 281.297 22.352 281.297 23.216C281.297 24.368 281.297 25.664 281.333 26.384C281.333 26.924 281.333 27.428 281.333 27.896C281.333 30.38 281.513 30.848 284.321 31.172C284.501 31.316 284.573 31.568 284.573 31.748C284.573 31.964 284.465 32.144 284.285 32.144C284.285 32.144 281.729 31.964 279.245 31.964C277.985 31.964 276.761 32 275.861 32.144C275.825 32.144 275.825 32.144 275.789 32.144C275.609 32.144 275.537 32 275.537 31.82C275.537 31.604 275.645 31.352 275.789 31.208C277.625 31.1 277.913 30.308 278.021 29.3C278.093 28.58 278.093 25.232 278.093 23.252C278.093 20.084 277.985 19.04 276.257 18.644C276.113 18.608 276.041 18.464 276.041 18.284C276.041 18.104 276.113 17.924 276.293 17.888C277.733 17.6 279.497 16.844 280.649 16.34C280.721 16.34 280.793 16.304 280.829 16.304C281.117 16.304 281.225 16.52 281.225 16.916C281.225 16.952 281.225 16.988 281.225 17.06L281.117 18.572C281.117 18.752 281.153 18.824 281.225 18.824C281.261 18.824 281.297 18.788 281.369 18.716C282.701 17.6 284.537 16.628 285.833 16.628ZM297.603 16.664C301.455 16.664 303.291 19.256 303.291 21.02C303.291 22.712 301.275 22.928 294.759 22.928C293.103 22.928 292.995 22.928 292.995 24.296C292.995 27.644 294.975 30.992 298.683 30.992C300.807 30.992 302.067 29.912 302.535 29.516C302.607 29.444 302.679 29.408 302.787 29.408C303.039 29.408 303.327 29.768 303.327 30.056C303.327 30.524 301.023 32.72 297.279 32.72C292.707 32.72 289.611 29.48 289.611 24.944C289.611 20.336 292.995 16.664 297.603 16.664ZM299.619 20.48C299.619 19.688 299.043 17.744 296.991 17.744C294.327 17.744 293.319 20.768 293.319 21.596C293.319 21.812 293.391 22.028 293.571 22.028C293.607 22.028 293.607 22.028 293.643 22.028C294.939 21.704 296.991 21.416 298.683 21.236C299.079 21.2 299.583 20.948 299.619 20.48ZM321.949 35.384C321.949 39.344 317.557 43.412 312.301 43.412C307.801 43.412 304.957 40.82 304.957 39.128C304.957 38.624 305.353 38.408 305.713 38.012C306.145 37.508 307.801 35.492 309.061 34.124C309.097 34.088 309.133 34.052 309.133 33.98C309.133 33.908 309.025 33.872 308.917 33.836C307.189 33.44 305.785 31.964 305.785 30.992C305.785 30.272 305.857 30.308 306.397 29.984C307.045 29.66 308.377 28.652 309.277 27.968C309.385 27.896 309.457 27.86 309.457 27.788C309.457 27.752 309.421 27.68 309.313 27.644C307.297 26.78 306.073 24.764 306.073 22.712C306.073 18.644 309.349 16.628 312.445 16.628C313.885 16.628 315.361 16.916 316.549 17.708C317.017 17.996 317.665 18.068 318.277 18.068C318.385 18.068 318.493 18.068 318.601 18.068C319.321 17.996 319.933 17.888 320.653 17.852C321.625 17.852 321.985 17.888 321.985 18.608C321.985 19.22 321.697 20.012 321.265 20.012C321.229 20.012 321.229 20.012 321.229 20.012C320.041 19.904 319.429 19.832 318.853 19.832C318.745 19.832 318.637 19.832 318.529 19.832C318.385 19.868 318.313 19.904 318.313 19.976C318.313 20.012 318.313 20.048 318.349 20.084C318.673 20.804 318.889 21.452 318.889 22.208C318.889 26.24 316.405 27.896 312.877 28.112C311.257 28.22 309.169 28.58 309.169 30.2C309.169 30.992 310.429 31.352 312.445 31.352C312.733 31.352 313.021 31.316 313.309 31.316C314.461 31.244 316.153 31.136 317.161 31.136C320.041 31.172 321.949 32.9 321.949 35.384ZM315.613 23.18C315.613 21.164 315.037 17.6 312.265 17.6C310.321 17.6 309.457 19.724 309.457 21.92C309.457 25.772 311.401 27.14 312.805 27.14C314.533 27.14 315.613 25.808 315.613 23.18ZM313.561 41.54C318.277 41.54 319.753 38.156 319.753 36.572C319.753 34.196 316.909 34.16 316.045 34.16C314.893 34.16 313.057 34.232 311.725 34.304C308.881 34.304 308.593 38.408 308.593 38.696C308.593 41.072 311.869 41.54 313.561 41.54ZM329.832 8.564C329.832 9.932 328.752 11.084 327.384 11.084C326.016 11.084 324.9 9.932 324.9 8.564C324.9 7.232 326.016 6.116 327.384 6.116C328.752 6.116 329.832 7.232 329.832 8.564ZM331.668 31.136C331.848 31.28 331.92 31.496 331.92 31.712C331.92 31.928 331.812 32.144 331.596 32.144C331.596 32.144 329.292 31.892 326.916 31.892C325.728 31.892 324.54 31.964 323.568 32.144C323.532 32.144 323.532 32.144 323.496 32.144C323.316 32.144 323.208 31.964 323.208 31.748C323.208 31.532 323.28 31.316 323.46 31.172C325.692 30.884 326.016 30.272 326.016 25.7C326.016 19.472 325.944 19.328 324.036 18.896C323.856 18.86 323.748 18.644 323.748 18.464C323.748 18.248 323.856 18.068 324.072 18.032C325.656 17.816 327.528 17.132 328.788 16.556C328.968 16.484 329.112 16.412 329.256 16.412C329.436 16.412 329.544 16.52 329.544 16.844C329.544 16.88 329.544 16.916 329.544 16.988C329.472 17.744 329.22 22.82 329.22 25.916C329.22 30.2 329.22 30.956 331.668 31.136ZM343.63 27.932C343.63 31.028 341.074 32.576 338.158 32.576C336.358 32.576 334.09 32.144 333.622 31.028C333.442 30.2 333.334 28.544 333.334 28.22C333.334 28.004 333.586 27.896 333.802 27.896C334.018 27.896 334.234 27.968 334.27 28.076C334.954 29.912 336.142 31.568 338.086 31.568C339.454 31.568 340.894 30.884 340.894 29.084C340.894 27.788 339.778 26.852 338.446 26.024C334.198 23.612 334.198 21.38 334.198 20.66C334.198 17.528 337.69 16.592 339.382 16.592C340.354 16.592 341.542 16.772 342.406 17.096C342.694 17.24 342.91 17.384 343.018 17.672C343.234 18.356 343.45 20.012 343.45 20.12C343.45 20.3 343.162 20.444 342.91 20.444C342.802 20.444 342.658 20.408 342.622 20.3C341.866 18.824 340.93 17.564 339.346 17.564C337.834 17.564 336.97 18.392 336.97 19.688C336.97 20.912 337.69 21.416 338.986 22.208C341.902 23.9 343.63 25.232 343.63 27.932ZM357.156 30.704C357.156 30.956 355.32 32.612 352.548 32.612C350.064 32.612 348.3 31.208 348.12 28.652C348.048 27.644 348.012 26.348 348.012 25.052C348.012 23 348.084 20.804 348.156 19.364C348.156 18.932 348.048 18.932 347.76 18.932C347.364 18.932 346.644 19.076 346.284 19.112C346.068 19.112 345.924 18.824 345.924 18.536C345.924 18.284 346.032 17.996 346.248 17.96C348.336 17.384 350.064 15.836 350.748 14.036C350.856 13.82 351.108 13.712 351.324 13.712C351.612 13.712 351.9 13.856 351.9 14.036C351.9 14.792 351.792 16.52 351.792 16.772C351.792 16.808 351.792 16.88 351.792 16.916C351.792 17.168 351.864 17.24 352.116 17.24C352.296 17.24 355.5 16.916 356.22 16.772C356.256 16.772 356.292 16.772 356.292 16.772C356.58 16.772 356.724 17.096 356.724 17.456C356.724 17.924 356.58 18.464 356.292 18.464C354.528 18.5 352.368 18.68 352.08 18.68C351.504 18.752 351.468 19.076 351.468 23.792C351.468 28.904 351.612 30.704 354.024 30.704C354.888 30.704 356.004 30.308 356.652 30.056H356.688C356.868 30.056 357.156 30.452 357.156 30.704ZM366.65 16.664C370.502 16.664 372.338 19.256 372.338 21.02C372.338 22.712 370.322 22.928 363.806 22.928C362.15 22.928 362.042 22.928 362.042 24.296C362.042 27.644 364.022 30.992 367.73 30.992C369.854 30.992 371.114 29.912 371.582 29.516C371.654 29.444 371.726 29.408 371.834 29.408C372.086 29.408 372.374 29.768 372.374 30.056C372.374 30.524 370.07 32.72 366.326 32.72C361.754 32.72 358.658 29.48 358.658 24.944C358.658 20.336 362.042 16.664 366.65 16.664ZM368.666 20.48C368.666 19.688 368.09 17.744 366.038 17.744C363.374 17.744 362.366 20.768 362.366 21.596C362.366 21.812 362.438 22.028 362.618 22.028C362.654 22.028 362.654 22.028 362.69 22.028C363.986 21.704 366.038 21.416 367.73 21.236C368.126 21.2 368.63 20.948 368.666 20.48ZM384.552 16.628C386.1 16.628 386.676 17.24 386.676 17.96C386.676 18.932 385.632 20.084 384.552 20.084C384.192 20.084 383.868 19.976 383.544 19.724C382.932 19.256 382.356 19.04 381.852 19.04C380.808 19.04 380.088 19.976 380.052 21.128C380.016 21.56 380.016 22.352 380.016 23.216C380.016 24.368 380.016 25.664 380.052 26.384C380.052 26.924 380.052 27.428 380.052 27.896C380.052 30.38 380.232 30.848 383.04 31.172C383.22 31.316 383.292 31.568 383.292 31.748C383.292 31.964 383.184 32.144 383.004 32.144C383.004 32.144 380.448 31.964 377.964 31.964C376.704 31.964 375.48 32 374.58 32.144C374.544 32.144 374.544 32.144 374.508 32.144C374.328 32.144 374.256 32 374.256 31.82C374.256 31.604 374.364 31.352 374.508 31.208C376.344 31.1 376.632 30.308 376.74 29.3C376.812 28.58 376.812 25.232 376.812 23.252C376.812 20.084 376.704 19.04 374.976 18.644C374.832 18.608 374.76 18.464 374.76 18.284C374.76 18.104 374.832 17.924 375.012 17.888C376.452 17.6 378.216 16.844 379.368 16.34C379.44 16.34 379.512 16.304 379.548 16.304C379.836 16.304 379.944 16.52 379.944 16.916C379.944 16.952 379.944 16.988 379.944 17.06L379.836 18.572C379.836 18.752 379.872 18.824 379.944 18.824C379.98 18.824 380.016 18.788 380.088 18.716C381.42 17.6 383.256 16.628 384.552 16.628ZM404.012 8.564C404.012 9.932 402.932 11.084 401.564 11.084C400.196 11.084 399.08 9.932 399.08 8.564C399.08 7.232 400.196 6.116 401.564 6.116C402.932 6.116 404.012 7.232 404.012 8.564ZM405.848 31.136C406.028 31.28 406.1 31.496 406.1 31.712C406.1 31.928 405.992 32.144 405.776 32.144C405.776 32.144 403.472 31.892 401.096 31.892C399.908 31.892 398.72 31.964 397.748 32.144C397.712 32.144 397.712 32.144 397.676 32.144C397.496 32.144 397.388 31.964 397.388 31.748C397.388 31.532 397.46 31.316 397.64 31.172C399.872 30.884 400.196 30.272 400.196 25.7C400.196 19.472 400.124 19.328 398.216 18.896C398.036 18.86 397.928 18.644 397.928 18.464C397.928 18.248 398.036 18.068 398.252 18.032C399.836 17.816 401.708 17.132 402.968 16.556C403.148 16.484 403.292 16.412 403.436 16.412C403.616 16.412 403.724 16.52 403.724 16.844C403.724 16.88 403.724 16.916 403.724 16.988C403.652 17.744 403.4 22.82 403.4 25.916C403.4 30.2 403.4 30.956 405.848 31.136ZM425.766 31.172C425.91 31.316 425.982 31.496 425.982 31.676C425.982 31.928 425.838 32.144 425.658 32.144C425.658 32.144 423.354 31.964 421.086 31.964C419.97 31.964 418.854 32 418.062 32.144C418.026 32.144 418.026 32.144 417.99 32.144C417.774 32.144 417.666 31.964 417.666 31.784C417.666 31.568 417.774 31.352 417.99 31.208C420.006 30.992 420.222 30.344 420.222 25.412C420.222 24.224 420.186 22.676 420.15 22.028C420.006 19.688 418.674 18.644 417.126 18.644C414.858 18.644 413.382 20.264 413.274 21.416C413.202 22.028 413.166 23.144 413.166 24.332C413.166 25.268 413.202 26.204 413.202 26.888C413.202 30.128 413.202 31.172 415.506 31.208C415.65 31.352 415.722 31.532 415.722 31.748C415.722 31.964 415.614 32.144 415.434 32.144C415.398 32.144 413.13 31.928 410.862 31.928C409.746 31.928 408.63 32 407.802 32.144C407.766 32.144 407.766 32.144 407.73 32.144C407.55 32.144 407.442 32 407.442 31.784C407.442 31.604 407.55 31.352 407.73 31.208C409.746 30.956 409.962 30.56 409.962 25.232C409.962 19.688 409.89 19.184 408.126 18.824C407.982 18.788 407.91 18.608 407.91 18.428C407.91 18.212 407.982 18.032 408.162 18.032C409.746 17.744 411.654 16.844 412.59 16.412C412.698 16.34 412.806 16.34 412.878 16.34C413.058 16.34 413.166 16.448 413.166 16.772C413.166 16.808 413.166 16.844 413.166 16.88C413.13 17.492 413.058 18.536 413.058 19.076C413.094 19.184 413.13 19.22 413.202 19.22C413.238 19.22 413.31 19.184 413.346 19.148C413.634 18.788 415.542 16.664 418.386 16.664C421.23 16.664 423.39 18.5 423.498 21.668C423.534 22.496 423.534 24.548 423.534 26.24C423.534 27.824 423.534 28.796 423.606 29.516C423.678 30.416 424.146 31.1 425.766 31.172ZM452.311 30.56C452.311 30.596 451.159 32.648 448.567 32.648C447.487 32.648 446.371 32.216 445.867 30.776C445.795 30.488 445.759 30.38 445.687 30.38C445.687 30.38 445.651 30.38 445.579 30.452C443.635 32.684 441.331 32.756 440.755 32.756C438.271 32.756 437.083 30.848 437.083 29.336C437.083 27.824 438.559 26.636 439.999 26.024C442.231 25.052 444.211 24.62 445.543 23.9C445.651 23.864 445.759 23.756 445.759 23.54C445.831 23.144 445.903 21.632 445.903 21.308C445.903 19.184 445.219 17.888 443.599 17.888C443.059 17.888 441.799 18.068 441.691 19.796C441.619 21.956 439.567 22.136 439.243 22.136C438.523 22.136 437.983 21.74 437.983 21.056C437.983 19.508 441.043 16.7 444.823 16.7C447.163 16.7 449.323 17.636 449.323 20.912C449.323 21.092 449.323 21.236 449.323 21.416C448.999 25.592 448.963 26.996 448.963 27.536C448.963 29.732 449.359 30.632 450.223 30.632C450.259 30.632 450.871 30.632 451.663 30.056C451.735 30.02 451.771 29.984 451.843 29.984C452.095 29.984 452.311 30.344 452.311 30.56ZM445.759 25.52C445.759 25.484 445.759 25.448 445.759 25.412C445.759 25.16 445.687 25.052 445.579 25.052C445.507 25.052 445.435 25.088 445.327 25.124C444.427 25.556 442.627 26.168 441.727 26.672C440.827 27.14 440.575 27.716 440.575 28.364C440.575 29.804 441.619 30.776 442.699 30.776C444.103 30.776 445.687 29.084 445.687 28.364C445.687 28.328 445.687 28.292 445.687 28.292C445.651 28.076 445.651 27.788 445.651 27.5C445.651 26.78 445.723 25.916 445.759 25.52ZM471.578 31.172C470.354 31.46 468.05 32.18 467.258 32.684C467.078 32.792 466.97 32.864 466.862 32.864C466.43 32.864 465.746 31.172 465.71 31.1C465.674 31.028 465.638 30.956 465.566 30.956C465.53 30.956 465.494 30.992 465.422 31.028C464.738 31.568 463.19 32.576 461.102 32.576C456.314 32.576 453.65 28.976 453.65 24.908C453.65 20.66 456.458 16.772 461.786 16.772C462.902 16.772 463.91 17.096 465.062 17.384C465.062 17.384 465.062 17.384 465.098 17.384C465.242 17.384 465.422 17.132 465.422 16.844C465.422 15.872 465.494 13.928 465.494 12.164C465.494 7.376 465.314 7.196 463.298 6.764C463.118 6.728 463.01 6.512 463.01 6.296C463.01 6.116 463.118 5.9 463.262 5.9C464.954 5.612 467.006 4.856 468.374 4.244C468.482 4.208 468.59 4.172 468.662 4.172C468.878 4.172 469.058 4.316 469.058 4.676C468.878 8.24 468.662 18.752 468.662 24.296C468.662 25.448 468.662 26.564 468.698 27.68C468.734 29.552 469.67 30.236 470.894 30.236C471.074 30.236 471.29 30.236 471.47 30.2C471.65 30.164 471.794 30.524 471.794 30.776C471.794 30.992 471.722 31.136 471.578 31.172ZM465.422 22.748C465.314 19.472 463.586 17.924 461.426 17.924C457.898 17.924 457.07 21.416 457.07 23.792C457.07 28.076 459.554 30.848 462.11 30.848C464.522 30.848 465.206 29.228 465.35 28.364C465.422 27.68 465.458 26.312 465.458 25.052C465.458 24.188 465.458 23.324 465.422 22.748ZM488.82 18.176C487.776 18.356 487.2 18.788 486.732 19.544C485.976 20.876 481.98 30.164 481.224 32.36C481.116 32.684 480.864 32.864 480.576 32.864C480.324 32.864 480.072 32.72 479.964 32.36C479.784 31.784 479.28 30.344 478.596 28.76C477.408 25.952 475.392 21.668 474.492 19.94C473.952 18.896 473.376 18.32 472.26 18.176C472.116 18.032 472.008 17.78 472.008 17.6C472.008 17.348 472.152 17.168 472.404 17.168C472.404 17.168 474.312 17.348 476.436 17.348C477.48 17.348 478.56 17.312 479.496 17.168C479.532 17.168 479.532 17.168 479.568 17.168C479.748 17.168 479.856 17.348 479.856 17.564C479.856 17.78 479.784 18.032 479.568 18.176C478.74 18.248 477.948 18.356 477.948 19.04C477.948 19.76 481.548 27.824 481.656 27.824C481.836 27.824 485.112 20.372 485.112 19.184C485.112 18.356 484.068 18.284 483.24 18.176C483.024 18.032 482.916 17.816 482.916 17.636C482.916 17.384 483.06 17.168 483.312 17.168C483.348 17.168 484.752 17.348 486.336 17.348C487.128 17.348 487.956 17.312 488.676 17.168C488.712 17.168 488.748 17.168 488.748 17.168C489 17.168 489.144 17.384 489.144 17.6C489.144 17.852 489.036 18.104 488.82 18.176ZM505.362 30.56C505.362 30.596 504.21 32.648 501.618 32.648C500.538 32.648 499.422 32.216 498.918 30.776C498.846 30.488 498.81 30.38 498.738 30.38C498.738 30.38 498.702 30.38 498.63 30.452C496.686 32.684 494.382 32.756 493.806 32.756C491.322 32.756 490.134 30.848 490.134 29.336C490.134 27.824 491.61 26.636 493.05 26.024C495.282 25.052 497.262 24.62 498.594 23.9C498.702 23.864 498.81 23.756 498.81 23.54C498.882 23.144 498.954 21.632 498.954 21.308C498.954 19.184 498.27 17.888 496.65 17.888C496.11 17.888 494.85 18.068 494.742 19.796C494.67 21.956 492.618 22.136 492.294 22.136C491.574 22.136 491.034 21.74 491.034 21.056C491.034 19.508 494.094 16.7 497.874 16.7C500.214 16.7 502.374 17.636 502.374 20.912C502.374 21.092 502.374 21.236 502.374 21.416C502.05 25.592 502.014 26.996 502.014 27.536C502.014 29.732 502.41 30.632 503.274 30.632C503.31 30.632 503.922 30.632 504.714 30.056C504.786 30.02 504.822 29.984 504.894 29.984C505.146 29.984 505.362 30.344 505.362 30.56ZM498.81 25.52C498.81 25.484 498.81 25.448 498.81 25.412C498.81 25.16 498.738 25.052 498.63 25.052C498.558 25.052 498.486 25.088 498.378 25.124C497.478 25.556 495.678 26.168 494.778 26.672C493.878 27.14 493.626 27.716 493.626 28.364C493.626 29.804 494.67 30.776 495.75 30.776C497.154 30.776 498.738 29.084 498.738 28.364C498.738 28.328 498.738 28.292 498.738 28.292C498.702 28.076 498.702 27.788 498.702 27.5C498.702 26.78 498.774 25.916 498.81 25.52ZM524.484 31.172C524.628 31.316 524.7 31.496 524.7 31.676C524.7 31.928 524.556 32.144 524.376 32.144C524.376 32.144 522.072 31.964 519.804 31.964C518.688 31.964 517.572 32 516.78 32.144C516.744 32.144 516.744 32.144 516.708 32.144C516.492 32.144 516.384 31.964 516.384 31.784C516.384 31.568 516.492 31.352 516.708 31.208C518.724 30.992 518.94 30.344 518.94 25.412C518.94 24.224 518.904 22.676 518.868 22.028C518.724 19.688 517.392 18.644 515.844 18.644C513.576 18.644 512.1 20.264 511.992 21.416C511.92 22.028 511.884 23.144 511.884 24.332C511.884 25.268 511.92 26.204 511.92 26.888C511.92 30.128 511.92 31.172 514.224 31.208C514.368 31.352 514.44 31.532 514.44 31.748C514.44 31.964 514.332 32.144 514.152 32.144C514.116 32.144 511.848 31.928 509.58 31.928C508.464 31.928 507.348 32 506.52 32.144C506.484 32.144 506.484 32.144 506.448 32.144C506.268 32.144 506.16 32 506.16 31.784C506.16 31.604 506.268 31.352 506.448 31.208C508.464 30.956 508.68 30.56 508.68 25.232C508.68 19.688 508.608 19.184 506.844 18.824C506.7 18.788 506.628 18.608 506.628 18.428C506.628 18.212 506.7 18.032 506.88 18.032C508.464 17.744 510.372 16.844 511.308 16.412C511.416 16.34 511.524 16.34 511.596 16.34C511.776 16.34 511.884 16.448 511.884 16.772C511.884 16.808 511.884 16.844 511.884 16.88C511.848 17.492 511.776 18.536 511.776 19.076C511.812 19.184 511.848 19.22 511.92 19.22C511.956 19.22 512.028 19.184 512.064 19.148C512.352 18.788 514.26 16.664 517.104 16.664C519.948 16.664 522.108 18.5 522.216 21.668C522.252 22.496 522.252 24.548 522.252 26.24C522.252 27.824 522.252 28.796 522.324 29.516C522.396 30.416 522.864 31.1 524.484 31.172ZM540.712 29.516C540.712 29.804 538.66 32.648 534.412 32.648C530.02 32.648 526.6 29.804 526.6 25.268C526.6 20.084 530.56 16.772 534.88 16.7C535.456 16.7 536.104 16.772 536.752 16.844C537.148 16.88 537.436 16.916 537.724 16.916C537.868 16.916 538.012 16.916 538.192 16.88C538.264 16.88 538.336 16.88 538.372 16.88C539.776 16.88 540.496 19.58 540.496 20.084C540.496 20.804 540.136 21.02 539.776 21.02C539.164 21.02 538.516 20.444 538.048 19.652C537.472 18.752 536.248 17.744 534.7 17.744C531.964 17.744 530.056 20.3 530.056 23.756C530.056 28.184 532.648 30.668 535.78 30.668C537.22 30.668 538.948 29.84 539.848 28.976C539.956 28.904 540.028 28.868 540.136 28.868C540.424 28.868 540.712 29.192 540.712 29.516ZM550.834 16.664C554.686 16.664 556.522 19.256 556.522 21.02C556.522 22.712 554.506 22.928 547.99 22.928C546.334 22.928 546.226 22.928 546.226 24.296C546.226 27.644 548.206 30.992 551.914 30.992C554.038 30.992 555.298 29.912 555.766 29.516C555.838 29.444 555.91 29.408 556.018 29.408C556.27 29.408 556.558 29.768 556.558 30.056C556.558 30.524 554.254 32.72 550.51 32.72C545.938 32.72 542.842 29.48 542.842 24.944C542.842 20.336 546.226 16.664 550.834 16.664ZM552.85 20.48C552.85 19.688 552.274 17.744 550.222 17.744C547.558 17.744 546.55 20.768 546.55 21.596C546.55 21.812 546.622 22.028 546.802 22.028C546.838 22.028 546.838 22.028 546.874 22.028C548.17 21.704 550.222 21.416 551.914 21.236C552.31 21.2 552.814 20.948 552.85 20.48Z" fill="#FAECC0"/>
<path d="M16 21L4 27.9282L4 14.0718L16 21Z" fill="#F2DAA5"/>
<path d="M607 21L619 14.0718V27.9282L607 21Z" fill="#F2DAA5"/>
</svg>
