<svg width="623" height="41" viewBox="0 0 623 41" fill="none" xmlns="http://www.w3.org/2000/svg">
<path d="M97.768 22.604H92.296C92.368 24.188 92.476 26.312 92.548 27.248V27.32C92.548 27.896 92.116 28.652 90.928 28.652C90.316 28.652 89.74 28.328 89.74 27.572V27.536C89.74 27.32 89.776 26.96 89.776 26.6H83.476V26.996C83.512 27.824 83.62 29.264 83.62 29.948V30.02C83.62 33.872 79.552 34.196 78.904 34.196C78.508 34.196 78.256 34.052 78.004 33.656C77.356 32.648 73.504 31.064 73.504 30.776C73.504 30.74 73.54 30.74 73.648 30.74C73.72 30.74 73.828 30.74 74.008 30.776C75.88 31.1 77.32 31.28 78.364 31.28C80.128 31.28 80.812 30.776 80.884 29.48C80.92 29.084 80.92 28.04 80.92 26.6H80.776C77.788 26.6 75.052 26.708 71.668 26.96H71.632C70.984 26.96 69.868 25.628 69.868 25.196C73.864 25.628 77.932 25.7 80.956 25.7V22.604H79.156C76.312 22.604 71.308 22.676 67.6 22.964H67.564C66.916 22.964 65.872 21.596 65.872 21.164C70.156 21.596 76.348 21.668 79.192 21.668H80.956V18.896H80.776C79.192 18.896 74.656 18.932 71.776 19.22H71.74C71.056 19.22 70.048 17.96 70.048 17.528C73.36 17.924 79.156 17.996 80.956 17.996V14.972H74.8V15.368C74.8 16.232 73.864 16.592 73.216 16.592C72.604 16.592 72.064 16.268 72.064 15.584V15.404C72.208 14.324 72.28 12.272 72.28 11.624C72.28 11.192 72.28 9.788 72.028 8.636C72.028 8.564 71.992 8.492 71.992 8.456C71.992 8.384 72.028 8.348 72.064 8.348C72.352 8.348 74.476 9.212 75.484 9.896C75.52 9.896 75.52 9.932 75.556 9.932H80.92C80.92 8.744 80.884 7.772 80.884 7.124H78.508C76.492 7.124 71.74 7.196 68.572 7.52H68.536C67.924 7.52 66.844 6.116 66.844 5.648C70.48 6.08 76.564 6.224 78.652 6.224H80.848C80.812 5.036 80.776 3.416 80.488 2.3C80.452 2.156 80.452 2.084 80.452 2.012C80.452 1.94 80.452 1.904 80.56 1.904C80.776 1.904 84.88 2.444 84.88 3.164C84.88 3.452 84.556 3.704 84.124 3.884C83.62 4.064 83.584 4.352 83.512 5.288C83.512 5.468 83.476 5.792 83.476 6.224H90.64C90.892 6.224 91.108 6.08 91.216 5.9C91.648 5.288 92.404 4.172 93.016 3.668C93.088 3.596 93.232 3.56 93.376 3.56C93.448 3.56 93.52 3.56 93.592 3.596C94.888 4.064 96.904 6.116 96.904 6.692C96.904 6.908 96.724 7.124 96.112 7.124H83.476C83.476 7.88 83.44 8.852 83.44 9.932H88.732C88.912 9.932 89.056 9.896 89.2 9.716C89.992 8.636 90.244 8.636 90.388 8.636C90.712 8.636 93.304 9.896 93.304 10.724C93.304 11.012 92.98 11.228 92.584 11.48C91.9 11.912 91.972 11.624 91.936 12.308C91.936 12.884 92.08 14.324 92.116 15.008V15.08C92.116 15.8 91.288 16.196 90.568 16.196C89.992 16.196 89.452 15.944 89.452 15.332V15.296L89.488 14.972H83.44V17.996H89.056C89.236 17.996 89.38 17.96 89.524 17.78C89.776 17.492 90.028 17.096 90.28 16.88C90.424 16.772 90.532 16.664 90.712 16.664C91.252 16.664 93.7 18.104 93.7 18.824C93.7 19.148 93.376 19.4 92.944 19.688C92.26 20.12 92.368 20.084 92.296 20.912C92.296 21.092 92.26 21.344 92.26 21.668H93.124C93.268 21.668 93.556 21.56 93.664 21.38C94.312 20.156 95.14 19.076 95.464 19.076C95.932 19.076 98.596 21.236 98.596 22.136C98.596 22.388 98.416 22.604 97.768 22.604ZM89.812 22.604H83.44C83.44 23.792 83.476 24.872 83.476 25.7H89.776C89.776 24.764 89.812 23.648 89.812 22.604ZM80.92 10.868H75.412C74.944 11.12 74.8 11.264 74.764 11.948V14.072H80.956C80.956 12.92 80.92 11.84 80.92 10.868ZM89.02 10.868H83.44V14.072H89.488C89.524 13.568 89.524 13.028 89.524 12.56C89.524 12.092 89.524 11.66 89.488 11.336C89.488 11.048 89.344 10.868 89.02 10.868ZM89.272 18.896H83.44V21.668H89.812C89.812 20.624 89.776 19.76 89.776 19.364C89.776 19.076 89.596 18.896 89.272 18.896ZM116.488 30.308V30.488C116.488 33.26 113.68 34.124 112.6 34.124C112.276 34.124 112.06 34.016 111.916 33.62C111.556 32.756 108.784 31.496 108.784 31.208C108.784 31.172 108.82 31.172 108.928 31.172C109 31.172 109.108 31.172 109.288 31.208C110.44 31.424 111.268 31.496 111.916 31.496C113.68 31.496 113.824 30.812 113.86 29.912C113.896 28.616 113.968 26.924 113.968 25.124H108.352C108.352 28.292 108.388 31.424 108.46 33.26V33.296C108.46 34.016 107.668 34.592 106.84 34.592C106.192 34.592 105.652 34.268 105.652 33.584V33.512C105.904 29.516 105.976 23.648 105.976 19.724C105.976 18.248 105.976 17.096 105.94 16.376C105.94 15.944 105.796 13.352 105.544 12.2C105.544 12.128 105.508 12.056 105.508 12.02C105.508 11.912 105.544 11.912 105.616 11.912C105.976 11.912 108.28 12.92 109.072 13.46H109.108C109.108 13.46 109.144 13.46 109.144 13.496H113.284C113.428 13.496 113.608 13.46 113.716 13.28C114.004 12.884 114.508 12.272 114.76 12.272C114.76 12.272 117.532 13.316 117.532 14.18C117.532 14.468 117.244 14.684 116.884 14.9C116.2 15.332 116.344 15.512 116.308 16.16C116.272 17.168 116.236 18.428 116.236 19.832C116.236 22.496 116.308 25.592 116.38 28.22C116.38 28.832 116.452 29.696 116.488 30.308ZM129.736 30.344V30.524C129.736 33.404 127 34.376 125.416 34.376C125.056 34.376 124.876 34.268 124.624 33.908C123.976 32.936 120.664 31.352 120.664 31.064C120.664 31.028 120.664 31.028 120.736 31.028C120.808 31.028 120.916 31.028 121.06 31.064C122.752 31.388 124.012 31.568 124.912 31.568C126.424 31.568 127 31.064 127.036 30.02C127.072 28.184 127.108 25.808 127.108 23.432C127.108 19.4 127.036 13.892 126.64 11.84C126.604 11.732 126.604 11.66 126.604 11.624C126.604 11.552 126.64 11.552 126.748 11.552C127.18 11.552 130.996 12.092 130.996 12.884C130.996 13.172 130.672 13.46 130.312 13.676C129.7 14 129.7 13.856 129.628 15.08C129.52 16.592 129.484 18.608 129.484 20.804C129.484 22.64 129.52 24.872 129.736 30.344ZM133.012 9.824H114.04C112.06 9.824 107.056 9.896 103.852 10.22H103.816C103.168 10.22 102.16 8.816 102.16 8.348C105.832 8.78 112.132 8.924 114.184 8.924H119.332C120.088 7.916 122.032 4.712 122.608 2.048C122.644 1.76 122.644 1.652 122.752 1.652C123.22 1.652 126.748 3.668 126.748 4.316C126.748 4.604 126.388 4.784 125.704 4.784H125.344C124.912 4.784 124.84 4.928 124.516 5.216C123.544 6.152 121.672 7.736 120.088 8.924H127.324C127.576 8.924 127.828 8.78 127.936 8.6C128.116 8.312 129.52 6.08 130.204 6.08C130.276 6.08 130.348 6.08 130.42 6.116C131.464 6.476 133.804 8.744 133.804 9.392C133.804 9.608 133.624 9.824 133.012 9.824ZM122.824 27.572V27.644C122.824 28.652 121.888 29.048 121.276 29.048C120.7 29.048 120.196 28.688 120.196 27.824V27.68C120.376 25.196 120.448 22.64 120.448 20.48C120.448 19.364 120.412 15.512 120.052 13.748C120.016 13.64 120.016 13.568 120.016 13.532C120.016 13.46 120.052 13.424 120.124 13.424C120.232 13.424 124.228 14.108 124.228 14.936C124.228 15.188 123.94 15.44 123.58 15.656C122.968 16.016 122.896 15.872 122.824 16.88C122.716 17.96 122.716 19.58 122.716 21.272C122.716 23.612 122.752 26.096 122.824 27.572ZM113.932 19.832H108.352V24.188H113.968C113.968 22.748 113.932 21.272 113.932 19.832ZM113.392 14.468H108.748C108.424 14.684 108.46 14.828 108.424 15.476C108.424 15.98 108.388 17.24 108.388 18.896L113.932 18.86C113.932 17.384 113.896 16.052 113.86 14.9C113.86 14.648 113.716 14.468 113.392 14.468ZM114.076 7.808C113.464 7.808 112.816 7.448 112.384 6.476C111.952 5.54 110.836 3.956 109.936 3.164C109.648 2.912 109.504 2.768 109.504 2.696C109.504 2.66 109.576 2.624 109.684 2.624C111.844 2.624 115.66 3.776 115.66 6.116C115.66 7.088 114.904 7.808 114.076 7.808ZM168.472 14.864H157.24C159.976 17.492 164.944 20.12 170.956 20.48C171.172 20.48 171.28 20.516 171.28 20.588C171.28 20.876 168.112 21.848 167.248 22.856C167.104 23 166.96 23.072 166.78 23.072C165.484 23.072 159.328 19.976 156.52 14.864H152.416C146.116 23.216 138.196 24.98 137.8 24.98C137.692 24.98 137.62 24.98 137.62 24.908C137.62 24.836 137.836 24.656 138.268 24.44C142.192 22.532 146.332 19.148 149.356 14.864C146.836 14.9 142.948 15.008 140.464 15.26H140.428C139.78 15.26 138.808 13.892 138.808 13.424C141.904 13.784 147.16 13.964 149.968 14C151.192 12.2 151.624 11.048 151.912 9.932C151.948 9.824 151.984 9.752 151.984 9.716C149.464 10.112 146.944 10.436 144.496 10.796C144.136 10.832 143.92 11.228 143.668 11.228C143.272 11.228 141.76 8.708 141.76 7.988C141.76 7.916 141.76 7.916 141.832 7.916C141.868 7.916 141.94 7.916 142.084 7.952C143.164 8.132 144.424 8.24 145.036 8.24C146.188 8.24 147.412 8.204 148.672 8.168C148.78 7.952 150.364 4.28 150.544 1.976C150.58 1.724 150.544 1.616 150.652 1.616C151.012 1.616 154.792 2.876 154.792 3.596C154.792 3.884 154.468 4.136 153.712 4.172C153.208 4.208 153.064 4.316 152.812 4.676C152.02 5.756 150.904 7.052 149.86 8.096C153.1 7.952 156.592 7.664 160.048 7.304C159.184 6.404 158.14 5.576 156.952 4.784C156.772 4.676 156.664 4.568 156.664 4.496C156.664 4.424 156.736 4.388 156.88 4.388C157.42 4.388 165.088 6.008 165.088 9.212C165.088 10.076 164.476 10.76 163.684 10.76C163.108 10.76 162.496 10.436 161.92 9.572C161.56 9.032 161.2 8.528 160.732 7.988C157.888 8.672 155.008 9.212 152.164 9.68C152.2 9.68 152.272 9.68 152.344 9.716C152.452 9.752 155.836 10.976 155.836 11.696C155.836 11.912 155.548 12.092 154.9 12.164C154.396 12.2 154.216 12.236 153.964 12.632C153.676 13.1 153.388 13.568 153.064 14H162.928C163.18 14 163.432 13.856 163.54 13.676C163.9 13.1 165.124 11.264 165.7 11.264C165.808 11.264 165.88 11.264 165.952 11.3C167.176 11.732 169.264 13.856 169.264 14.468C169.264 14.684 169.084 14.864 168.472 14.864ZM164.008 26.852H163.684C163.504 26.816 163.36 26.816 163.252 26.816C163 26.816 162.928 26.888 162.64 27.14C158.176 31.208 152.164 34.412 141.616 34.52C141.004 34.52 140.644 34.448 140.644 34.34C140.644 34.268 140.896 34.16 141.472 34.088C152.668 32.792 159.832 27.032 161.164 23.72C161.236 23.576 161.236 23.468 161.308 23.468C161.38 23.468 164.908 25.412 164.908 26.384C164.908 26.672 164.62 26.852 164.008 26.852ZM159.256 23.432H158.896C158.788 23.432 158.716 23.396 158.644 23.396C158.248 23.396 158.104 23.576 157.816 23.828C151.984 28.796 144.676 30.56 143.092 30.56C142.912 30.56 142.804 30.524 142.804 30.488C142.804 30.38 143.092 30.236 143.668 30.056C149.14 28.148 155.332 23.684 156.52 20.624C156.592 20.444 156.628 20.3 156.736 20.3C157.024 20.3 160.156 22.136 160.156 23C160.156 23.288 159.868 23.432 159.256 23.432ZM155.08 19.868H154.792C154.432 19.868 154.432 19.976 154.144 20.264C150.22 24.152 144.496 26.636 143.38 26.636C143.272 26.636 143.236 26.6 143.236 26.564C143.236 26.456 143.416 26.312 143.812 26.096C147.232 24.26 152.02 19.94 152.776 17.456C152.812 17.312 152.848 17.168 152.956 17.168C153.244 17.168 156.196 18.752 156.196 19.4C156.196 19.688 155.764 19.868 155.08 19.868ZM204.4 31.856V31.892C204.4 32.828 203.464 33.26 202.708 33.26C202.06 33.26 201.484 32.936 201.484 32.144V32.108C201.484 31.496 201.52 30.74 201.52 29.876H195.616C195.616 30.992 195.652 31.964 195.652 32.648C195.652 33.476 194.788 33.98 193.996 33.98C193.348 33.98 192.736 33.62 192.736 32.828V32.72C192.988 28.976 193.096 20.66 193.096 15.872C193.096 14.432 193.06 13.316 193.06 12.704C193.06 12.236 192.952 9.716 192.664 8.42C192.664 8.348 192.628 8.276 192.628 8.24C192.628 8.168 192.664 8.132 192.736 8.132C192.736 8.132 194.932 8.816 196.264 9.644L196.48 9.788H200.692C200.872 9.788 201.088 9.68 201.232 9.5C201.376 9.32 202.096 8.348 202.492 8.348C202.6 8.348 205.588 9.572 205.588 10.508C205.588 10.832 205.264 11.084 204.832 11.372C204.184 11.768 204.184 11.84 204.148 12.632C204.148 12.992 204.112 13.892 204.112 15.08C204.112 19.544 204.22 28.508 204.4 31.856ZM182.836 33.116H182.764C182.548 33.116 182.332 32.972 182.188 32.684C181.864 31.892 179.272 30.344 178.408 29.66C176.176 32.684 172.756 34.412 172.288 34.412C172.252 34.412 172.216 34.412 172.216 34.376C172.216 34.232 172.54 33.908 172.936 33.584C178.48 28.904 180.172 20.768 180.64 12.776C179.092 12.812 177.292 12.92 175.924 13.064H175.888C175.276 13.064 174.304 11.696 174.304 11.264C176.212 11.516 178.732 11.66 180.712 11.732C180.784 10.544 180.82 9.356 180.82 8.168V7.484C180.82 5.972 180.712 4.568 180.496 3.272C180.46 3.164 180.46 3.056 180.46 3.02C180.46 2.912 180.496 2.876 180.604 2.876C180.712 2.876 185.104 3.272 185.104 4.316C185.104 4.604 184.852 4.892 184.312 5.144C183.736 5.432 183.664 5.468 183.628 6.944C183.592 8.564 183.52 10.184 183.412 11.768H186.184C186.58 11.768 186.688 11.66 186.796 11.48C187.12 11.048 187.696 10.328 187.948 10.328C188.38 10.328 191.044 11.804 191.044 12.74C191.044 13.028 190.792 13.352 190.252 13.64C189.46 14.036 189.388 14.144 189.388 15.08C189.244 28.796 187.66 32.756 182.836 33.116ZM195.616 28.94H201.52C201.556 26.276 201.556 22.856 201.556 19.724C201.556 15.872 201.556 12.416 201.484 11.228C201.484 10.976 201.376 10.724 200.944 10.724H196.336C196.3 10.76 196.264 10.832 196.192 10.868C195.724 11.156 195.688 11.084 195.652 12.128C195.616 13.28 195.58 16.88 195.58 20.804C195.58 23.576 195.616 26.564 195.616 28.94ZM186.328 12.74H183.34C182.872 19.292 181.648 25.16 178.588 29.408C180.208 29.804 181.468 30.092 182.512 30.092C184.6 30.092 185.572 28.832 186.22 24.728C186.76 21.2 186.76 15.836 186.832 13.28C186.832 12.812 186.688 12.74 186.328 12.74ZM235.252 14.432C230.572 22.748 224.812 29.012 216.316 31.568C215.704 31.748 215.308 31.82 215.092 31.82C214.984 31.82 214.912 31.82 214.912 31.748C214.912 31.64 215.38 31.316 216.1 30.956C226.18 26.096 232.768 13.028 232.768 12.452C232.768 12.02 232.408 11.696 231.868 11.696C231.796 11.696 229.888 11.696 223.984 13.532C222.544 14 221.68 14.396 220.708 14.396C218.656 14.396 215.848 12.308 215.848 11.408C215.848 10.652 216.1 10.364 216.424 10.364C216.712 10.364 217.072 10.616 217.252 10.94C217.504 11.372 218.62 11.552 219.988 11.552C222.544 11.552 230.536 10.292 231.076 10.184C231.94 10.004 232.372 9.176 233.164 9.176C234.136 9.176 237.664 10.508 237.664 11.624C237.664 12.056 237.196 12.452 236.62 12.884C236.08 13.244 235.72 13.604 235.252 14.432ZM259.062 18.212V17.024C259.062 15.26 258.63 14.504 257.586 14.468C257.154 14.468 256.758 14.432 256.758 14.144C256.758 13.82 257.334 13.064 258.198 13.064C258.702 13.064 261.186 13.892 261.186 15.548V15.692C261.15 16.124 261.006 16.664 260.97 17.204C260.97 17.42 260.934 17.672 260.934 17.924C261.294 17.852 261.618 17.816 261.87 17.708C262.554 17.456 262.806 17.168 263.562 17.168C263.922 17.168 266.658 17.528 266.658 18.716C266.658 19.184 266.118 19.58 265.29 19.58C265.182 19.58 265.002 19.58 264.858 19.544C263.994 19.4 263.094 19.328 262.158 19.328C261.762 19.328 261.33 19.328 260.898 19.364C260.898 21.236 261.042 23.648 261.078 25.556C261.078 26.312 261.186 26.96 261.222 27.536C261.258 27.824 261.294 28.148 261.294 28.436C261.294 28.76 261.258 29.048 261.222 29.372C261.042 31.028 260.43 31.928 259.674 31.928C259.026 31.928 258.666 31.244 258.522 30.524C258.342 29.552 257.37 28.256 256.182 26.996C255.822 26.636 255.678 26.384 255.678 26.24C255.678 26.168 255.714 26.132 255.822 26.132C255.966 26.132 256.254 26.204 256.578 26.42C257.334 26.888 258.45 27.5 258.99 27.788C259.026 27.788 259.062 27.824 259.098 27.824C259.206 27.824 259.242 27.716 259.242 27.572C259.278 26.996 259.278 26.384 259.278 25.808C259.278 24.332 259.206 22.82 259.17 21.344C253.878 28.724 247.578 30.092 247.47 30.092C247.362 30.092 247.29 30.056 247.29 29.984C247.29 29.84 247.614 29.552 248.298 29.156C251.97 27.032 255.462 23.324 257.802 19.832C257.118 19.976 256.434 20.084 255.822 20.228C254.706 20.516 254.31 20.804 253.59 20.804C252.006 20.804 250.134 19.832 250.134 18.752C250.134 18.572 250.17 18.032 250.458 18.032C250.638 18.032 250.89 18.212 251.142 18.32C252.042 18.716 252.906 18.896 253.914 18.896C254.598 18.896 255.138 18.824 258.63 18.284L259.062 18.212ZM307.41 17.96C307.41 18.716 305.646 19.292 304.458 19.328C302.73 19.364 299.022 19.364 295.35 19.508C292.758 19.616 290.202 19.796 288.474 20.192C287.682 20.372 286.998 20.516 286.35 20.516C284.73 20.516 281.562 18.86 281.562 17.096C281.562 16.772 281.67 16.628 281.85 16.628C281.958 16.628 282.138 16.7 282.354 16.808C283.074 17.24 283.866 17.636 286.422 17.636C288.834 17.636 302.514 16.772 302.622 16.772C302.982 16.736 303.414 16.736 303.882 16.736C306.006 16.736 307.41 17.132 307.41 17.96ZM333.146 26.42C329.438 27.824 324.326 29.336 320.258 30.272C319.862 30.344 319.466 30.632 319.034 30.776C318.71 30.884 318.386 30.956 318.098 30.956C316.694 30.956 314.858 29.048 314.858 27.608C314.858 26.564 315.902 25.952 316.01 25.952C316.226 25.952 316.298 26.276 316.406 26.708C316.586 27.392 317.27 27.68 318.53 27.68C318.782 27.68 319.034 27.644 319.286 27.644C320.798 24.332 324.47 14.936 324.47 12.128C324.47 11.228 324.11 10.904 323.426 10.832C322.958 10.76 322.598 10.58 322.598 10.292C322.598 10.076 323.03 9.356 324.11 9.356C324.902 9.356 328.43 10.544 328.43 12.272C328.43 13.1 327.602 13.964 327.026 15.26C325.118 19.544 322.238 24.836 320.438 27.536C323.678 27.176 329.006 26.24 332.678 25.484C331.778 23.864 330.626 22.388 329.438 21.164C329.042 20.768 328.79 20.48 328.79 20.372C328.79 20.336 328.826 20.3 328.898 20.3C329.51 20.3 337.394 24.548 337.394 28.256C337.394 29.372 336.638 30.128 335.81 30.128C335.162 30.128 334.478 29.66 334.082 28.544C333.83 27.86 333.506 27.14 333.146 26.42ZM370.838 15.044V16.376C370.838 19.184 371.018 21.776 371.126 23.864C371.162 24.44 371.198 25.088 371.198 25.736C374.366 26.708 376.814 28.724 376.814 30.236C376.814 31.1 376.238 31.82 375.554 31.82C375.122 31.82 374.618 31.532 374.15 30.74C373.394 29.48 372.206 28.436 371.09 27.788C370.478 30.92 367.922 32.828 365.294 32.828C362.81 32.828 360.362 31.064 360.362 28.904C360.362 26.888 362.882 25.088 367.13 25.088C367.778 25.088 368.462 25.124 369.146 25.232C369.182 24.656 369.182 24.152 369.182 23.684C369.146 22.136 369.074 18.752 369.038 15.44L368.75 15.512C368.282 15.584 367.85 15.62 367.382 15.62C363.17 15.62 361.478 12.416 361.478 11.984C361.478 11.912 361.514 11.876 361.586 11.876C361.73 11.876 362.054 11.984 362.486 12.128C363.278 12.416 364.43 12.956 365.186 13.172C365.942 13.388 366.698 13.496 367.454 13.496C367.85 13.496 368.498 13.46 369.038 13.352V11.156C369.038 7.88 368.822 7.7 367.598 7.376C367.202 7.268 366.914 7.196 366.914 6.98C366.914 6.656 367.778 5.72 368.714 5.72C369.65 5.72 371.45 7.124 371.45 8.456C371.45 8.744 371.414 9.068 371.342 9.428C371.63 9.536 374.33 10.4 374.762 10.472C375.338 10.58 375.734 11.012 375.734 11.66C375.734 12.704 374.726 14.072 370.838 15.044ZM350.714 6.368C350.714 6.368 350.858 6.152 351.218 6.152C352.55 6.152 355.394 9.248 355.394 11.948C355.394 13.28 354.746 14.396 354.026 16.16C353.054 18.536 352.082 21.128 352.082 23.432C352.082 23.9 352.19 25.52 352.514 25.52C352.622 25.52 352.73 25.376 352.91 25.016C353.702 23.18 356.33 17.888 356.87 17.888C356.942 17.888 356.942 17.924 356.942 17.996C356.942 18.176 356.87 18.5 356.654 18.968C355.43 21.704 353.882 26.564 353.882 29.336C353.882 29.912 353.954 30.452 354.134 30.92C354.314 31.316 354.386 31.676 354.386 32C354.386 32.828 353.882 33.368 353.27 33.368C351.362 33.368 350.354 29.156 350.354 25.7C350.354 22.028 351.47 18.752 352.298 15.332C352.586 14.108 352.838 12.992 352.838 11.84C352.838 10.328 352.406 8.78 351.038 6.908C350.858 6.692 350.714 6.512 350.714 6.368ZM368.966 27.068C367.958 26.744 366.842 26.564 365.762 26.564C363.278 26.564 361.514 27.644 361.514 28.76C361.514 29.912 363.026 30.596 364.61 30.596C366.734 30.596 368.534 29.3 368.966 27.068ZM371.27 9.752C371.27 9.824 371.162 10.148 370.946 12.92C372.926 12.308 373.106 11.768 373.106 11.408C373.106 10.976 372.71 10.508 371.27 9.752ZM405.326 10.472C405.326 11.048 404.606 11.516 403.49 11.552C401.258 11.624 398.594 13.064 397.046 14.216C396.506 14.612 396.146 14.792 396.002 14.792C395.93 14.792 395.894 14.756 395.894 14.684C395.894 14.54 396.074 14.252 396.434 13.82C397.658 12.38 398.09 11.624 398.09 11.444C398.09 11.3 397.946 11.264 397.622 11.228C397.154 11.192 396.65 11.192 396.182 11.12C392.222 10.616 391.142 8.096 391.142 8.024C391.142 7.952 391.178 7.916 391.286 7.916C391.502 7.916 391.934 8.06 392.438 8.24C393.878 8.744 395.462 8.852 397.118 8.852C398.234 8.852 399.422 8.816 400.61 8.744C401.15 8.708 401.654 8.636 402.194 8.636C403.742 8.636 405.326 9.5 405.326 10.472ZM407.846 29.12C407.846 31.388 402.23 32.108 399.674 32.108C393.914 32.108 389.126 29.552 389.126 26.132C389.126 24.332 390.746 22.46 391.142 22.46C391.25 22.46 391.286 22.532 391.286 22.676C391.286 22.892 391.142 23.252 390.962 23.576C390.638 24.116 390.458 24.656 390.458 25.16C390.458 27.68 394.67 29.228 398.594 29.228C399.746 29.228 400.898 29.084 401.978 28.832C403.274 28.508 404.03 28.004 404.894 27.86C405.182 27.824 405.47 27.788 405.722 27.788C407.054 27.788 407.846 28.364 407.846 29.12ZM431.236 9.212L431.056 10.04C432.064 9.5 433.072 8.888 433.684 8.528C434.008 8.348 434.368 8.24 434.692 8.24C435.34 8.24 435.844 8.6 435.844 9.14C435.844 10.256 434.296 11.3 430.552 12.812C429.868 16.88 429.472 19.58 429.472 21.164C429.472 22.1 429.688 22.172 429.868 22.172C430.336 22.172 432.208 21.164 432.892 20.696C434.296 19.76 435.952 19.148 437.644 19.148C440.2 19.148 443.908 20.912 443.908 24.476C443.908 25.916 443.332 27.356 442.504 28.544C439.876 32.36 433.072 33.764 429.76 33.764C429.364 33.764 429.148 33.728 429.148 33.656C429.148 33.512 429.724 33.296 431.056 32.972C435.196 31.964 441.028 28.868 441.028 24.476C441.028 22.28 439.192 20.66 436.924 20.66C434.224 20.66 431.452 23.648 430.66 25.772C430.336 26.708 429.796 27.212 429.256 27.212C428.788 27.212 427.348 26.492 427.348 23.72C427.348 22.676 427.492 21.416 427.78 20.192C428.104 18.68 428.572 15.872 428.896 13.28C428.32 13.496 427.744 13.568 427.24 13.568C424.684 13.568 422.92 11.408 422.92 10.184C422.92 10.004 422.992 9.932 423.136 9.932C423.28 9.932 423.568 10.076 424 10.292C425.26 10.976 426.052 11.264 426.952 11.264C427.528 11.264 428.176 11.12 429.04 10.904L429.148 10.868C429.184 10.148 429.22 9.428 429.22 8.852C429.22 5.972 428.572 5.9 428.248 5.9H427.96C427.672 5.9 427.564 5.864 427.564 5.684C427.564 5.324 428.248 4.136 429.508 4.136C430.408 4.136 431.668 4.784 431.668 6.548C431.668 7.34 431.416 8.24 431.236 9.212ZM469.468 9.716C468.676 9.464 467.668 9.284 466.912 9.284C464.86 9.284 464.356 10.508 464.356 11.516C464.356 11.876 464.428 12.236 464.536 12.596C464.788 13.388 464.86 13.964 464.86 14.504C464.86 15.368 464.644 16.16 464.356 17.636C464.14 18.788 463.924 20.552 463.924 22.028C463.924 23.18 464.068 24.836 465.04 24.836C465.328 24.836 465.688 24.656 466.12 24.368C466.984 23.792 467.92 22.82 469.612 21.74C470.836 20.948 472.276 20.552 473.608 20.552C476.416 20.552 479.548 22.532 479.548 25.808C479.548 31.208 472.348 34.628 466.156 34.628C465.868 34.628 465.688 34.592 465.688 34.556C465.688 34.448 466.156 34.304 467.128 34.052C471.196 33.08 476.74 29.804 476.74 25.772C476.74 23.396 474.688 21.884 472.78 21.884C470.332 21.884 469.108 23.648 466.804 27.176C466.264 28.004 465.724 28.4 465.148 28.4C464.068 28.4 461.872 27.032 461.872 22.784C461.872 20.912 462.196 18.644 462.484 16.88C462.592 16.304 462.808 14.972 462.808 13.928C462.808 13.748 462.772 13.568 462.772 13.388C462.736 13.136 462.736 12.92 462.736 12.704C462.736 10.868 463.672 9.752 465.22 8.744C465.904 8.312 466.624 7.952 467.308 7.52C467.56 7.376 467.992 7.016 467.992 6.512C467.992 6.404 467.956 6.296 467.92 6.152C467.668 5.576 467.236 5 467.092 4.64C466.984 4.316 466.876 4.064 466.876 3.956C466.876 3.848 466.912 3.812 467.056 3.812C467.92 3.812 472.42 6.044 472.42 8.42C472.42 9.32 471.736 10.076 470.98 10.076C470.548 10.076 470.008 9.932 469.468 9.716ZM517.924 23.972C517.564 23.972 517.204 23.864 516.952 23.72C516.52 23.468 515.26 23.504 513.856 23.468C512.848 23.468 512.452 23.396 512.452 23.288C512.452 23.18 512.956 23.036 513.748 22.892C514.648 22.712 517.528 22.172 517.528 19.832C517.528 17.204 514.828 16.232 512.92 15.476C512.164 15.188 511.624 14.972 511.624 14.864C511.624 14.792 511.804 14.756 512.2 14.756C519.544 14.756 520.48 19.292 520.48 20.444C520.48 22.712 518.932 23.972 517.924 23.972ZM502.552 14.144L502.876 14.036C503.416 13.856 503.92 13.748 504.46 13.748C506.584 13.748 508.348 15.404 508.348 20.084C508.348 27.968 503.884 31.316 500.716 31.316C500.32 31.316 499.924 31.28 499.6 31.172C497.764 30.632 498.736 29.3 498.088 27.608C497.836 26.924 497.728 26.528 497.728 26.312C497.728 26.204 497.764 26.168 497.8 26.168C497.98 26.168 498.34 26.528 498.808 27.14C499.492 28.04 500.428 28.508 501.292 28.508C504.316 28.508 506.188 23.072 506.188 18.968C506.188 15.548 505.072 15.008 504.28 15.008C503.596 15.008 502.804 15.404 501.796 16.088C499.96 20.516 497.044 26.42 495.244 29.732C494.524 31.064 493.3 31.892 492.436 31.892C491.896 31.892 491.536 31.604 491.536 30.956C491.536 30.488 491.716 29.624 492.868 28.184C494.884 25.664 498.052 20.876 499.816 16.808C498.52 17.456 496.648 18.356 495.496 18.356C493.804 18.356 492.652 17.096 492.652 15.62C492.652 14.648 492.868 14.252 493.012 14.252C493.228 14.252 493.48 14.612 493.804 15.008C494.236 15.512 494.956 15.656 495.784 15.656C497.188 15.656 498.772 15.404 500.572 14.792C500.896 13.82 501.256 12.092 501.256 10.904C501.256 9.824 500.968 8.996 500.176 8.888C499.672 8.816 499.312 8.672 499.312 8.42C499.312 8.06 500.428 7.016 501.76 7.016C503.056 7.016 503.776 8.06 503.776 9.392C503.776 10.4 503.2 12.344 502.588 14.036L502.552 14.144ZM541.468 9.716C540.676 9.464 539.668 9.284 538.912 9.284C536.86 9.284 536.356 10.508 536.356 11.516C536.356 11.876 536.428 12.236 536.536 12.596C536.788 13.388 536.86 13.964 536.86 14.504C536.86 15.368 536.644 16.16 536.356 17.636C536.14 18.788 535.924 20.552 535.924 22.028C535.924 23.18 536.068 24.836 537.04 24.836C537.328 24.836 537.688 24.656 538.12 24.368C538.984 23.792 539.92 22.82 541.612 21.74C542.836 20.948 544.276 20.552 545.608 20.552C548.416 20.552 551.548 22.532 551.548 25.808C551.548 31.208 544.348 34.628 538.156 34.628C537.868 34.628 537.688 34.592 537.688 34.556C537.688 34.448 538.156 34.304 539.128 34.052C543.196 33.08 548.74 29.804 548.74 25.772C548.74 23.396 546.688 21.884 544.78 21.884C542.332 21.884 541.108 23.648 538.804 27.176C538.264 28.004 537.724 28.4 537.148 28.4C536.068 28.4 533.872 27.032 533.872 22.784C533.872 20.912 534.196 18.644 534.484 16.88C534.592 16.304 534.808 14.972 534.808 13.928C534.808 13.748 534.772 13.568 534.772 13.388C534.736 13.136 534.736 12.92 534.736 12.704C534.736 10.868 535.672 9.752 537.22 8.744C537.904 8.312 538.624 7.952 539.308 7.52C539.56 7.376 539.992 7.016 539.992 6.512C539.992 6.404 539.956 6.296 539.92 6.152C539.668 5.576 539.236 5 539.092 4.64C538.984 4.316 538.876 4.064 538.876 3.956C538.876 3.848 538.912 3.812 539.056 3.812C539.92 3.812 544.42 6.044 544.42 8.42C544.42 9.32 543.736 10.076 542.98 10.076C542.548 10.076 542.008 9.932 541.468 9.716Z" fill="#FAECC0"/>
<path d="M16 21L4 27.9282L4 14.0718L16 21Z" fill="#F2DAA5"/>
<path d="M607 21L619 14.0718V27.9282L607 21Z" fill="#F2DAA5"/>
</svg>
