<svg width="322" height="96" viewBox="0 0 322 96" fill="none" xmlns="http://www.w3.org/2000/svg">
<path d="M38.496 61.872C39.792 61.872 43.344 65.52 43.344 66.336C43.344 66.624 43.104 66.912 42.288 66.912H19.488C16.896 66.912 10.32 67.008 6.24 67.44H6.192C5.328 67.44 3.984 65.52 3.984 64.944C6.336 65.232 9.552 65.472 12.528 65.568C12.576 63.216 12.624 61.536 12.624 60.048C12.624 53.376 12.336 50.208 12 48.384C11.952 48.192 11.952 48.096 11.952 48C11.952 47.952 11.952 47.952 12 47.952C12.192 47.952 18.096 48.672 18.096 49.92C18.096 50.256 17.808 50.64 17.232 50.976C16.32 51.552 16.128 51.408 16.08 52.896C15.984 55.248 15.984 56.544 15.984 58.56C15.984 60.192 15.984 62.256 16.032 65.664C17.568 65.712 18.864 65.712 19.68 65.712H22.416C22.464 61.824 22.512 58.32 22.512 55.392C22.512 48.912 22.368 43.392 21.888 40.848C21.84 40.656 21.84 40.56 21.84 40.464C21.84 40.416 21.84 40.416 21.888 40.416C22.8 40.416 28.128 41.328 28.128 42.48C28.128 42.816 27.84 43.2 27.264 43.536C26.304 44.112 26.112 43.968 26.064 45.456C25.968 47.424 25.92 50.112 25.92 53.232H29.952C30.24 53.232 30.528 53.04 30.672 52.8C32.688 49.92 33.072 49.488 33.456 49.488C34.56 49.488 38.064 52.944 38.064 53.856C38.064 54.144 37.824 54.432 37.056 54.432H25.92C25.92 57.888 25.968 61.776 26.016 65.712H34.8C35.088 65.712 35.472 65.52 35.616 65.28C36.624 63.744 37.92 61.872 38.496 61.872ZM47.04 45.552C47.28 45.6 47.376 45.648 47.376 45.744C47.376 46.08 43.488 46.656 41.616 48.24C41.376 48.432 41.136 48.528 40.896 48.528C39.792 48.528 29.76 41.616 24.624 31.008C24.528 31.152 24.384 31.296 24.192 31.632C14.496 46.992 2.208 51.504 1.248 51.504C1.152 51.504 1.104 51.456 1.104 51.408C1.104 51.312 1.344 51.072 1.968 50.688C8.928 46.176 15.504 38.4 19.872 30.384C20.352 29.472 20.784 27.888 20.976 26.928C21.024 26.688 20.976 26.592 21.12 26.592C21.552 26.592 27.12 28.704 27.12 29.76C27.12 30.144 26.688 30.432 25.728 30.624C25.632 30.624 25.536 30.672 25.44 30.672C29.472 35.568 37.92 43.44 47.04 45.552ZM82.08 58.656V58.752C82.08 59.808 81.024 60.48 80.112 60.48C79.296 60.48 78.576 60.048 78.576 58.992V57.792H65.424V59.616C65.424 60.672 64.272 61.248 63.408 61.248C62.64 61.248 61.92 60.816 61.92 59.856V59.712C62.208 55.392 62.256 49.92 62.256 46.176V42.96C62.256 42.336 62.112 38.976 61.728 37.2C61.68 37.056 61.68 36.96 61.68 36.912C61.68 36.816 61.728 36.768 61.776 36.768C62.112 36.768 65.088 38.016 66.384 38.88L66.48 38.976H70.224C70.224 38.16 70.176 37.488 70.176 37.008C70.128 35.904 70.176 32.736 69.984 31.248H66.864C64.176 31.248 57.6 31.344 53.376 31.776H53.328C52.464 31.776 51.12 29.904 51.12 29.28C55.968 29.856 64.272 30.048 67.056 30.048H84.192C84.528 30.048 84.816 29.856 84.96 29.616C85.824 28.32 87.312 26.4 87.888 26.4C87.984 26.4 88.08 26.4 88.176 26.448C89.808 27.024 92.64 29.76 92.64 30.672C92.64 30.96 92.4 31.248 91.584 31.248H74.112C74.4 31.344 74.928 31.632 74.928 31.872C74.928 32.16 74.64 32.496 74.112 32.736C73.632 32.928 73.584 33.264 73.584 38.976H77.616C77.808 38.976 78.048 38.928 78.24 38.688C78.576 38.304 78.912 37.728 79.248 37.44C79.44 37.296 79.536 37.152 79.776 37.152C80.544 37.152 83.712 39.264 83.712 40.08C83.712 40.512 83.28 40.848 82.656 41.232C81.744 41.808 81.792 41.76 81.744 42.864C81.744 43.344 81.696 44.016 81.696 44.784C81.696 48.336 81.888 54.576 82.08 58.656ZM90.528 67.536V67.584C90.528 68.64 89.424 69.408 88.272 69.408C87.408 69.408 86.592 68.928 86.592 67.776V67.728C86.592 67.008 86.64 66.24 86.64 65.472H57.264V67.632C57.264 68.736 56.064 69.456 55.008 69.456C54.192 69.456 53.472 69.024 53.472 67.968V67.776C53.856 61.968 54.096 55.44 54.096 49.344C54.096 40.704 53.664 38.592 53.472 37.68C53.424 37.536 53.424 37.44 53.424 37.392C53.424 37.248 53.472 37.2 53.568 37.2C54.144 37.2 59.52 38.352 59.52 39.456C59.52 39.84 59.136 40.224 58.416 40.608C57.696 41.04 57.648 41.28 57.6 42.24C57.408 45.456 57.264 56.784 57.264 64.224H86.688C86.736 61.344 86.784 58.32 86.784 55.344C86.784 47.376 86.64 40.704 85.92 37.68C85.872 37.536 85.872 37.44 85.872 37.392C85.872 37.248 85.92 37.2 86.016 37.2C86.112 37.2 92.16 38.256 92.16 39.456C92.16 39.84 91.728 40.224 91.056 40.608C90.096 41.184 90.048 41.52 90.048 48.288C90.048 53.952 90.24 61.728 90.528 67.536ZM73.488 56.592H78.576C78.576 54.048 78.672 51.168 78.672 48.48H73.488V56.592ZM65.376 56.592H70.272C70.272 55.056 70.32 51.888 70.32 48.48H65.328C65.328 51.12 65.328 54 65.376 56.592ZM73.488 47.28H78.672C78.672 44.544 78.624 42.144 78.576 40.8C78.576 40.416 78.336 40.176 77.904 40.176H73.488V47.28ZM70.32 47.28V40.176H66.384L66.048 40.416C65.328 40.896 65.328 41.184 65.328 47.28H70.32ZM136.992 28.848C138 28.848 140.88 30.816 140.88 31.632C140.88 31.968 140.592 32.352 139.872 32.64C139.152 32.928 138.96 32.976 138.912 34.08C138.72 37.584 138.48 40.8 137.328 43.152C135.888 46.08 133.44 47.664 130.608 47.664C129.744 47.664 129.312 47.472 129.12 46.944C128.544 45.504 125.472 43.536 125.472 43.248C125.472 43.2 125.472 43.2 125.52 43.2C125.616 43.2 125.76 43.248 125.952 43.296C127.488 43.776 128.976 44.304 130.368 44.304C135.12 44.304 135.504 37.776 135.6 32.352C135.6 31.824 135.552 31.728 135.12 31.728H128.832C130.416 31.968 130.512 32.256 130.512 32.496C130.512 32.832 129.936 33.168 129.456 33.36C128.832 33.648 128.928 33.744 128.736 34.56C127.152 41.664 122.976 45.648 116.976 47.952C117.024 48.192 117.024 48.384 117.024 48.576C117.024 49.92 116.112 50.832 115.152 50.832C114.384 50.832 113.616 50.208 113.376 48.672C113.328 48.24 113.232 47.808 113.136 47.376L110.592 48.144C110.976 48.288 111.168 48.48 111.168 48.72C111.168 48.912 110.976 49.152 110.592 49.344C110.016 49.68 109.968 49.728 109.968 54.912C109.968 58.896 110.064 64.224 110.16 67.632V67.728C110.16 68.832 109.104 69.552 108.048 69.552C107.28 69.552 106.56 69.072 106.56 67.968V67.776C106.896 62.544 107.04 57.552 107.04 53.424C107.04 52.08 107.04 50.448 106.944 49.152L102.336 50.352C101.856 50.496 101.616 50.928 101.232 50.928C100.272 50.928 98.736 46.896 98.736 46.848C98.736 46.8 98.736 46.752 98.832 46.752C98.928 46.752 99.024 46.8 99.168 46.8C100.608 46.992 102.432 47.04 103.296 47.04C103.584 47.04 103.872 46.992 104.16 46.992C105.696 44.736 110.928 36.48 111.552 32.496C111.6 32.112 111.6 31.968 111.744 31.968C111.792 31.968 111.888 32.016 112.032 32.064C112.512 32.208 116.544 34.08 116.544 34.944C116.544 35.28 116.16 35.616 115.2 35.664C114.72 35.712 114.432 35.952 114.096 36.384C111.552 39.792 107.952 44.352 105.408 46.944C107.904 46.848 110.784 46.608 112.848 46.416C112.416 45.216 111.84 44.112 111.36 43.344C111.168 43.056 111.072 42.864 111.072 42.768C111.072 42.672 111.12 42.672 111.216 42.672C112.08 42.672 115.632 44.928 116.688 47.088C124.944 42.144 125.472 33.456 125.472 31.776C123.36 31.872 120.912 32.016 119.088 32.208H119.04C118.368 32.208 116.88 30.432 116.88 29.76C120.96 30.288 125.76 30.48 128.16 30.48H134.976C135.312 30.48 135.504 30.288 135.648 30.096C135.888 29.76 136.32 29.136 136.656 28.944C136.752 28.848 136.848 28.848 136.992 28.848ZM135.36 49.92C136.224 49.92 139.392 51.936 139.392 52.848C139.392 53.28 138.96 53.616 138.384 54C137.424 54.624 137.376 54.768 137.376 57.6C137.376 60.048 137.52 63.552 137.76 66.72V66.864C137.76 68.112 136.512 68.64 135.648 68.64C134.832 68.64 134.064 68.208 134.064 67.152V65.376H123.552V67.344C123.552 68.256 122.784 69.12 121.44 69.12C120.576 69.12 119.856 68.64 119.856 67.68V67.488C120.144 63.696 120.24 60.768 120.24 58.56C120.24 57.504 120.192 56.64 120.192 55.872C120.192 55.248 120.048 51.696 119.664 49.92C119.664 49.776 119.616 49.728 119.616 49.632C119.616 49.584 119.664 49.536 119.712 49.536C120.048 49.536 123.312 50.928 124.56 51.744H124.608C124.608 51.744 124.656 51.744 124.656 51.792H133.056C133.296 51.792 133.536 51.744 133.728 51.456C134.304 50.688 134.928 49.92 135.36 49.92ZM134.112 64.128C134.16 61.968 134.16 59.952 134.16 58.176C134.16 56.4 134.16 54.864 134.064 53.712C134.064 53.376 133.92 53.088 133.344 53.088H124.512L124.176 53.376C123.456 53.856 123.456 53.856 123.456 60.336C123.456 61.584 123.504 62.832 123.504 64.128H134.112ZM106.176 26.112C106.512 26.112 111.264 27.792 111.264 28.8C111.264 29.136 110.928 29.472 110.016 29.568C109.44 29.664 109.248 29.808 108.96 30.336C107.904 32.16 105.888 34.992 104.448 36.816C105.36 37.296 106.992 38.112 106.992 39.888C106.992 40.944 106.224 41.808 105.312 41.808C104.688 41.808 104.016 41.424 103.488 40.416C102.528 38.592 101.184 37.248 100.08 36.336C99.744 36.048 99.6 35.904 99.6 35.808C99.6 35.712 99.744 35.712 99.984 35.712C101.232 35.712 103.056 36.24 103.536 36.432C105.504 31.104 106.08 28.128 106.08 26.928V26.352C106.08 26.16 106.08 26.112 106.176 26.112ZM101.472 52.656C101.712 52.656 106.512 53.904 106.512 54.96C106.512 55.296 106.176 55.584 105.36 55.776C104.64 55.92 104.592 56.208 104.352 56.88C101.376 64.272 98.352 67.296 98.016 67.296C97.968 67.296 97.968 67.248 97.968 67.2C97.968 67.056 98.016 66.864 98.16 66.528C99.648 63.408 101.376 56.688 101.376 53.136C101.376 52.656 101.472 52.656 101.472 52.656ZM111.024 53.136C111.744 53.136 117.36 56.592 117.36 60.096C117.36 61.488 116.448 62.448 115.536 62.448C114.768 62.448 114.048 61.824 113.712 60.432C113.184 58.128 112.32 55.536 111.312 53.856C111.072 53.52 110.976 53.28 110.976 53.184C110.976 53.184 110.976 53.136 111.024 53.136ZM168.528 30.336C168.384 30.48 168.288 30.672 168.096 30.912C159.744 43.968 146.64 50.016 145.296 50.016C145.248 50.016 145.2 49.968 145.2 49.92C145.2 49.824 145.44 49.584 146.064 49.2C152.976 44.64 159.408 37.584 163.824 29.616C164.352 28.704 164.736 27.12 164.928 26.16C164.976 25.92 164.928 25.824 165.072 25.824C165.216 25.824 171.072 27.888 171.072 29.04C171.072 29.424 170.592 29.712 169.632 29.904C169.536 29.904 169.488 29.952 169.392 29.952C173.28 34.848 181.728 42.144 191.04 44.544C191.28 44.592 191.376 44.64 191.376 44.736C191.376 45.12 187.2 45.696 185.616 47.184C185.424 47.376 185.184 47.52 184.944 47.52C183.6 47.52 173.52 40.368 168.528 30.336ZM163.68 46.944V50.976C163.536 59.712 159.888 67.296 148.224 69.648C147.792 69.744 147.36 69.792 147.072 69.792C146.736 69.792 146.544 69.744 146.544 69.648C146.544 69.504 146.928 69.312 147.792 69.024C158.448 65.616 160.032 56.544 160.032 49.68C160.032 49.44 160.032 44.88 159.6 42.96C159.552 42.816 159.552 42.72 159.552 42.672C159.552 42.576 159.6 42.528 159.696 42.528C159.84 42.528 165.6 43.056 165.6 44.208C165.6 44.448 165.312 44.784 164.688 45.072C163.68 45.504 163.68 45.552 163.68 46.944ZM175.2 67.152V67.2C175.2 68.256 174 68.88 172.896 68.88C171.984 68.88 171.168 68.4 171.168 67.344V67.296C171.264 63.6 171.36 58.656 171.36 54.144C171.36 48.288 171.168 44.64 170.784 42.768C170.736 42.624 170.736 42.576 170.736 42.48C170.736 42.432 170.784 42.384 170.88 42.384C171.168 42.384 176.784 43.2 176.784 44.112C176.784 44.4 176.4 44.736 175.872 45.024C174.96 45.504 174.864 45.504 174.816 46.944C174.768 48.192 174.768 49.584 174.768 51.024C174.768 56.016 174.96 61.872 175.2 67.152Z" fill="#FAECC0"/>
<path d="M229.176 49.168C229.176 55.024 223.512 55.824 220.312 55.824C219.96 55.824 219.8 55.6 219.8 55.376C219.8 55.12 219.96 54.896 220.184 54.896C220.216 54.896 220.28 54.896 220.312 54.896C223.064 54.896 225.272 52.88 225.272 49.808C225.272 49.168 225.176 43.824 220.312 43.824C218.584 43.824 218.52 44.528 218.52 48.048C218.488 50.224 218.456 53.2 218.456 55.824C218.456 57.52 218.488 59.088 218.52 60.208C218.68 64.112 218.424 65.072 221.72 65.328C221.912 65.488 222.008 65.68 222.008 65.872C222.008 66.096 221.88 66.288 221.656 66.288C221.656 66.288 218.936 66.064 216.152 66.064C214.744 66.064 213.336 66.128 212.248 66.288C212.216 66.288 212.184 66.288 212.152 66.288C211.928 66.288 211.832 66.128 211.832 65.936C211.832 65.712 211.96 65.456 212.152 65.328C215 65.04 214.776 63.76 214.84 60.208C214.872 58.96 214.872 55.728 214.872 52.848C214.872 50.768 214.872 48.848 214.84 48.048C214.744 44.304 214.488 44.144 212.056 43.888C211.832 43.728 211.768 43.536 211.768 43.376C211.768 43.12 211.928 42.928 212.088 42.928C212.12 42.928 212.12 42.928 212.12 42.928C213.176 42.992 214.104 43.024 214.968 43.024C216.728 43.024 218.264 42.928 220.216 42.832C220.44 42.832 220.664 42.832 220.888 42.832C225.112 42.832 229.176 44.592 229.176 49.168ZM240.269 52.112C241.837 52.112 242.445 52.752 242.445 53.488C242.445 54.448 241.485 55.504 240.429 55.504C240.045 55.504 239.661 55.376 239.309 55.056C238.765 54.544 238.189 54.32 237.741 54.32C236.269 54.32 236.237 55.824 236.237 57.808C236.237 58.864 236.237 60.08 236.269 60.88C236.269 61.392 236.269 61.904 236.269 62.384C236.269 64.688 236.429 65.136 239.021 65.424C239.149 65.552 239.245 65.776 239.245 65.968C239.245 66.16 239.149 66.352 238.989 66.352C238.989 66.352 236.557 66.192 234.221 66.192C233.037 66.192 231.853 66.224 231.021 66.352C230.989 66.352 230.989 66.352 230.957 66.352C230.797 66.352 230.733 66.224 230.733 66.032C230.733 65.808 230.829 65.552 230.925 65.456C233.005 65.328 233.005 64.624 233.005 61.072C233.005 59.536 233.005 57.744 232.973 56.592C232.941 54.832 232.493 54.288 231.277 54.032C231.149 54 231.085 53.84 231.085 53.68C231.085 53.52 231.149 53.328 231.309 53.296C232.621 53.04 234.285 52.4 235.597 51.856C235.693 51.824 235.789 51.824 235.853 51.824C236.109 51.824 236.173 51.984 236.173 52.304C236.173 52.368 236.173 52.464 236.173 52.528L236.109 53.744C236.109 53.872 236.141 53.936 236.205 53.936C236.237 53.936 236.269 53.936 236.333 53.872C237.517 52.912 239.149 52.112 240.269 52.112ZM258.847 59.568C258.847 63.408 256.063 66.768 251.391 66.768C246.847 66.768 243.807 63.632 243.807 59.568C243.807 55.504 247.007 52.208 251.391 52.208C255.999 52.208 258.847 55.536 258.847 59.568ZM255.103 60.368C255.103 55.056 253.023 53.072 251.135 53.072C248.639 53.072 247.519 55.76 247.519 58.704C247.519 60.112 247.807 65.872 251.615 65.872C254.911 65.872 255.103 61.68 255.103 60.368ZM266.786 45.168C266.786 46.48 265.762 47.6 264.418 47.6C263.074 47.6 262.018 46.48 262.018 45.168C262.018 43.856 263.074 42.8 264.418 42.8C265.73 42.8 266.786 43.888 266.786 45.168ZM266.562 52.56C266.434 54.032 266.338 56.496 266.338 58.736C266.338 59.344 266.37 59.952 266.37 60.496C266.402 61.648 266.434 63.248 266.434 64.56C266.434 65.168 266.434 65.712 266.402 66.128C266.114 74.032 259.681 76.624 259.681 76.624C259.457 76.624 259.137 76.368 259.137 76.112C259.137 75.984 259.201 75.856 259.329 75.76C262.914 72.944 262.914 68.624 262.914 61.392C262.914 59.152 262.882 57.072 262.818 55.952C262.722 54.704 262.21 54.576 260.993 54.288C260.866 54.224 260.77 54.064 260.77 53.872C260.77 53.68 260.866 53.52 261.09 53.488C262.402 53.264 264.098 52.688 265.762 52.016C266.018 51.92 266.178 51.856 266.338 51.856C266.498 51.856 266.562 51.984 266.562 52.336C266.562 52.4 266.562 52.464 266.562 52.56ZM277.545 52.176C281.417 52.176 282.985 54.736 282.985 56.272C282.985 57.2 282.281 57.808 280.137 57.904C278.409 57.968 275.977 58.096 274.313 58.096C273.577 58.096 273.545 58.096 273.545 59.28C273.545 62.224 275.305 65.264 278.633 65.264C279.817 65.264 281.193 64.72 282.217 63.92C282.281 63.856 282.377 63.824 282.441 63.824C282.697 63.824 282.953 64.112 282.953 64.368C282.953 64.72 280.841 66.8 277.257 66.8C272.745 66.8 270.089 63.6 270.089 59.728C270.089 55.664 273.129 52.176 277.545 52.176ZM278.505 56.496C278.729 56.464 279.273 56.304 279.273 55.76C279.273 55.088 278.953 53.168 276.969 53.168C274.345 53.168 273.833 56.624 273.833 56.784C273.833 56.976 273.929 57.2 274.121 57.2C274.153 57.2 274.153 57.2 274.185 57.2C275.401 56.912 277.097 56.624 278.505 56.496ZM298.084 63.888C298.084 64.304 295.748 66.768 292.228 66.768C288.164 66.768 284.964 64.176 284.964 59.984C284.964 55.76 288.324 52.272 292.644 52.208C293.092 52.208 293.604 52.272 294.116 52.336C294.532 52.368 294.916 52.432 295.236 52.432C295.364 52.432 295.492 52.432 295.62 52.4C295.716 52.368 295.812 52.368 295.908 52.368C296.868 52.368 297.892 54.256 297.892 55.408C297.892 56.304 297.316 56.368 297.156 56.368C296.612 56.368 296.036 55.824 295.556 55.024C295.012 54.096 293.956 53.2 292.484 53.2C289.988 53.2 288.484 55.728 288.484 58.736C288.484 62.384 290.532 64.976 293.476 64.976C294.852 64.976 296.452 64.208 297.252 63.44C297.348 63.344 297.444 63.312 297.54 63.312C297.828 63.312 298.084 63.632 298.084 63.888ZM309.917 64.944C309.917 65.168 308.317 66.736 305.725 66.736C303.357 66.736 301.693 65.392 301.533 63.024C301.469 62.16 301.437 61.008 301.437 59.824C301.437 57.936 301.501 55.92 301.565 54.576C301.565 54.288 301.469 54.224 301.277 54.224C301.245 54.224 301.213 54.224 301.181 54.224C300.829 54.224 300.285 54.352 299.965 54.352C299.965 54.352 299.965 54.352 299.933 54.352C299.773 54.352 299.677 54.128 299.677 53.872C299.677 53.648 299.773 53.392 299.965 53.328C302.077 52.752 303.645 51.248 304.285 49.712C304.349 49.552 304.541 49.488 304.765 49.488C305.021 49.488 305.277 49.584 305.277 49.776C305.277 50.32 305.213 51.856 305.181 52.272C305.181 52.56 305.245 52.656 305.501 52.656C305.853 52.656 307.677 52.56 309.021 52.272C309.053 52.272 309.053 52.272 309.085 52.272C309.341 52.272 309.469 52.624 309.469 52.976C309.469 53.392 309.341 53.808 309.053 53.808C307.613 53.808 305.981 53.936 305.469 53.968C304.957 53.968 304.925 54.32 304.925 58.736C304.925 63.056 304.925 64.976 307.069 64.976C307.165 64.976 308.093 64.976 309.437 64.4C309.469 64.4 309.469 64.4 309.501 64.4C309.693 64.4 309.917 64.72 309.917 64.944ZM320.306 62.416C320.306 66.128 316.53 66.736 315.186 66.736C313.554 66.736 312.018 66.32 311.218 65.712C311.026 65.552 310.61 65.232 310.61 62.576C310.61 62.352 310.802 62.288 310.994 62.288C311.186 62.288 311.378 62.352 311.41 62.448C312.146 64.272 313.33 65.776 315.154 65.776C315.346 65.776 317.714 65.776 317.714 63.632C317.714 62.416 316.53 61.648 315.282 60.848C311.954 58.864 311.378 57.2 311.378 55.92C311.378 52.88 314.93 52.112 316.242 52.112C316.914 52.112 319.346 52.24 319.698 53.168C319.826 53.52 320.114 54.8 320.114 55.408C320.114 55.6 319.89 55.728 319.666 55.728C319.538 55.728 319.41 55.664 319.346 55.568C318.642 54.192 317.714 53.04 316.21 53.04C314.162 53.04 314.13 54.576 314.13 54.864C314.13 55.952 314.802 56.464 315.986 57.136C316.498 57.456 317.042 57.744 317.554 58.096C319.09 59.088 320.306 60.272 320.306 62.416Z" fill="#FAECC0"/>
</svg>
