<svg width="305" height="96" viewBox="0 0 305 96" fill="none" xmlns="http://www.w3.org/2000/svg">
<path d="M44.304 63.312C45.024 63.744 45.36 64.32 45.36 64.896C45.36 66.576 43.104 67.968 35.424 67.968C30.96 67.968 27.12 67.68 27.12 63.84V63.648C27.168 62.928 27.216 61.104 27.216 59.04H21.504V60.72C21.504 61.776 20.448 62.4 19.536 62.4C18.768 62.4 18.096 62.016 18.096 61.008V60.816C18.432 56.016 18.432 52.128 18.432 50.064C18.432 49.392 18.288 46.128 17.904 44.448C17.904 44.304 17.856 44.256 17.856 44.16C17.856 44.112 17.904 44.064 17.952 44.064C18.384 44.064 21.648 45.456 22.416 46.032H22.464C22.464 46.032 22.512 46.032 22.512 46.08H35.616C35.808 46.08 35.856 45.984 36.048 45.744C36.24 45.456 36.96 44.352 37.44 44.352C38.16 44.352 41.376 46.128 41.376 47.088C41.376 47.52 40.944 47.856 40.416 48.192C39.552 48.768 39.504 49.008 39.504 51.168C39.504 53.568 39.696 56.352 39.84 59.424V59.52C39.84 60.672 38.784 61.344 37.872 61.344C37.104 61.344 36.384 60.864 36.384 59.808L36.432 59.04H30.24C30.24 60.816 30.288 62.304 30.288 62.976C30.384 64.464 30.816 64.992 34.944 64.992C41.472 64.992 41.616 64.608 42.624 58.416C42.672 58.176 42.72 58.08 42.768 58.08C43.008 58.08 43.44 62.736 44.304 63.312ZM41.04 37.968C41.904 37.968 45.072 40.512 45.072 41.664C45.072 41.952 44.88 42.192 44.16 42.192H28.656C26.208 42.192 21.168 42.336 17.04 42.72H16.992C16.272 42.72 15.264 41.472 14.928 40.704C12.384 48.912 10.8 54.096 10.8 58.272C10.8 60.096 11.088 61.728 11.808 63.456C12.192 64.368 12.336 65.184 12.336 65.856C12.336 67.776 11.088 68.736 10.032 68.736C8.832 68.736 7.632 67.584 7.632 64.944V64.704C7.68 63.312 7.92 61.92 7.92 60.672C7.92 58.656 7.248 56.976 4.032 56.256C3.168 56.064 2.736 55.872 2.736 55.728C2.736 55.584 3.216 55.44 4.08 55.392C5.904 55.296 6.864 54.912 7.728 53.04C8.784 50.736 15.552 34.272 17.328 30.816C17.76 29.952 18.048 29.616 18.192 29.616C18.24 29.616 18.288 29.712 18.288 29.856C18.288 29.952 18.288 30.192 17.616 32.208C20.976 32.592 24.72 32.736 27.312 32.784V32.112C27.312 30.24 27.168 28.464 26.832 26.976C26.784 26.832 26.784 26.736 26.784 26.688C26.784 26.592 26.832 26.592 26.928 26.592C27.456 26.592 32.592 27.264 32.592 28.224C32.592 28.512 32.304 28.848 31.632 29.184C30.816 29.616 30.672 29.424 30.624 30.624C30.624 31.008 30.576 32.016 30.576 32.832H35.28C35.616 32.832 35.856 32.64 36 32.4C36.624 31.44 37.968 29.904 38.304 29.904C39.264 29.904 42.192 32.208 42.192 33.456C42.192 33.744 41.952 34.032 41.28 34.032H29.088C26.64 34.032 23.136 34.08 19.056 34.464H19.008C18.48 34.464 17.76 33.744 17.328 33.072C16.704 34.944 15.888 37.536 15.024 40.32C19.728 40.896 26.4 41.04 28.896 41.04H30.288C31.776 37.536 31.92 35.424 31.968 34.848V34.464C31.968 34.368 31.968 34.32 32.064 34.32C32.496 34.32 37.056 36.288 37.056 37.296C37.056 37.632 36.528 37.872 35.664 37.872C35.184 37.872 34.896 38.112 34.464 38.496C34.032 38.928 32.4 40.32 31.392 41.04H37.92C38.256 41.04 38.496 40.848 38.64 40.608C39.12 39.888 40.56 37.968 41.04 37.968ZM36.48 53.088H30.288C30.288 54.576 30.24 56.208 30.24 57.792H36.432C36.432 56.208 36.48 54.624 36.48 53.088ZM7.248 28.224C11.136 28.224 14.304 29.904 14.304 32.208C14.304 33.504 13.344 34.512 12.24 34.512C11.52 34.512 10.752 34.08 10.128 32.976C9.456 31.776 7.968 29.952 6.576 28.944C6.24 28.704 6 28.512 6 28.416C6 28.368 6 28.224 7.248 28.224ZM27.216 57.792V53.088H21.456C21.456 54.576 21.504 56.208 21.504 57.792H27.216ZM36.48 51.84C36.48 50.304 36.48 48.96 36.432 47.952C36.432 47.568 36.192 47.376 35.856 47.376H31.344C31.44 47.472 31.488 47.568 31.488 47.664C31.488 47.904 31.248 48.144 30.912 48.288C30.336 48.624 30.288 48.672 30.288 51.84H36.48ZM4.56 39.024C10.08 39.024 10.272 41.76 10.272 42.288C10.272 43.488 9.408 44.544 8.304 44.544C7.728 44.544 7.056 44.208 6.432 43.392C5.616 42.336 3.888 40.656 2.496 39.888C2.064 39.648 1.872 39.504 1.872 39.408C1.872 39.024 4.464 39.024 4.56 39.024ZM27.216 51.84V50.4C27.216 49.776 27.216 48.432 27.12 47.376H22.368C22.272 47.472 22.08 47.52 21.936 47.616C21.552 47.856 21.504 47.952 21.504 48.864C21.504 49.632 21.456 50.64 21.456 51.84H27.216ZM21.504 35.088C25.056 35.088 27.168 36.864 27.168 38.688C27.168 39.84 26.256 40.752 25.296 40.752C24.576 40.752 23.904 40.272 23.52 39.072C23.184 37.968 22.32 36.432 21.6 35.568C21.408 35.328 21.312 35.184 21.312 35.136C21.312 35.088 21.36 35.088 21.504 35.088ZM95.04 48.144C95.28 48.192 95.376 48.24 95.376 48.288C95.376 48.624 91.296 49.2 89.712 50.64C89.52 50.832 89.328 50.88 89.136 50.88C87.408 50.88 78.336 44.592 73.44 33.936C73.344 34.032 73.2 34.128 73.008 34.224C72.336 34.56 72 34.464 71.616 35.184C69.648 38.976 67.152 42.384 64.416 45.216C67.536 45.648 69.84 45.792 71.712 45.792H73.104C73.296 45.792 73.488 45.648 73.632 45.408C74.112 44.64 74.928 43.584 75.504 42.96C75.6 42.864 75.744 42.816 75.84 42.816C75.984 42.816 76.08 42.864 76.128 42.864C77.376 43.392 79.728 45.36 79.728 46.416C79.728 46.656 79.536 46.944 78.864 46.944H71.616C69.744 46.944 68.112 47.136 66.096 47.424H66.048C65.52 47.424 64.464 46.32 64.08 45.552C57.408 52.416 50.64 54.432 49.968 54.432C49.776 54.432 49.68 54.384 49.68 54.336C49.68 54.144 50.112 53.76 50.976 53.328C61.344 47.952 68.4 34.224 68.4 33.36C68.4 33.216 68.304 33.12 68.016 33.12H61.92C61.104 34.224 60.192 35.328 59.28 36.384L59.472 36.336C59.952 36.24 60.576 36.144 61.2 36.144C63.264 36.144 64.752 36.96 64.752 38.496C64.752 39.312 64.128 40.032 63.36 40.032C62.88 40.032 62.4 39.792 61.92 39.168C61.248 38.256 60.288 37.344 59.376 36.768L59.088 36.576C55.68 40.464 51.552 43.488 50.592 43.488C50.496 43.488 50.448 43.44 50.448 43.392C50.448 43.2 50.736 42.864 51.312 42.336C54.816 39.12 60.624 30.624 61.296 26.592C61.344 26.352 61.344 26.256 61.488 26.256C61.776 26.256 66.096 27.84 66.096 28.752C66.096 29.136 65.568 29.472 64.8 29.52C64.416 29.568 64.272 29.808 62.88 31.776H68.352C68.64 31.776 68.88 31.728 69.072 31.488C69.984 30.432 70.176 30.432 70.272 30.432C70.848 30.432 72.48 31.728 72.576 31.824C72.384 31.2 72.048 30.192 72.048 29.952C72.048 29.76 72.192 29.568 72.432 29.568C72.528 29.568 72.672 29.664 72.768 29.856C74.16 33.168 76.608 36.768 79.872 39.936C81.648 37.536 84.192 33.312 84.192 32.688C84.192 32.592 84.096 32.496 83.808 32.496H81.552C81.12 32.496 79.2 32.688 77.712 32.88H77.664C77.136 32.88 75.744 31.392 75.744 30.48C78.528 31.056 81.216 31.2 81.648 31.2H83.952C84.336 31.2 84.432 30.96 84.72 30.72C85.008 30.48 85.44 29.952 85.68 29.76C85.824 29.616 85.968 29.568 86.064 29.568C86.16 29.568 90.24 31.824 90.24 33.168C90.24 33.792 89.52 34.032 89.088 34.176C88.512 34.368 88.08 34.32 87.168 35.04C86.304 35.712 83.328 38.688 80.544 40.56C84.48 44.208 89.472 47.136 95.04 48.144ZM83.424 49.584C84.336 49.92 87.504 52.176 87.504 53.232C87.504 53.52 87.264 53.808 86.496 53.808H75.264C75.456 53.904 75.552 54.048 75.552 54.192C75.552 54.384 75.312 54.576 74.88 54.768C74.064 55.152 74.064 55.2 74.064 58.512C74.064 59.328 74.112 60.096 74.112 60.768C74.112 61.584 74.208 62.88 74.256 63.84V64.032C74.256 68.16 69.936 69.168 68.544 69.168C68.064 69.168 67.872 68.976 67.584 68.448C66.864 67.104 62.064 65.184 62.064 64.848C62.064 64.8 62.112 64.8 62.208 64.8C62.304 64.8 62.496 64.8 62.688 64.848C64.752 65.184 66.336 65.376 67.584 65.376C70.8 65.376 70.848 64.464 70.848 60.768C70.848 60.24 70.8 55.536 70.56 53.808H69.12C66.816 53.808 62.64 53.952 58.944 54.336H58.896C58.128 54.336 56.736 52.512 56.736 51.936C61.008 52.512 66.912 52.656 69.312 52.656H79.968C80.208 52.656 80.496 52.464 80.64 52.224C80.88 51.84 82.56 49.536 83.136 49.536C83.232 49.536 83.328 49.584 83.424 49.584ZM62.496 55.968C63.024 55.968 66.576 59.04 66.576 59.712C66.576 60 66.336 60.24 65.808 60.24C65.616 60.24 65.376 60.192 65.136 60.144C64.992 60.096 64.896 60.096 64.8 60.096C64.512 60.096 64.368 60.24 63.936 60.624C59.136 64.992 51.744 67.344 50.544 67.344C50.352 67.344 50.208 67.296 50.208 67.248C50.208 67.104 50.496 66.912 51.072 66.624C54.912 64.8 61.584 59.136 62.304 56.4C62.352 56.16 62.352 55.968 62.496 55.968ZM77.424 57.072C78.48 57.072 88.512 59.52 88.512 63.888C88.512 65.136 87.6 66.192 86.544 66.192C85.872 66.192 85.104 65.76 84.48 64.704C83.088 62.448 80.448 59.52 77.664 57.552C77.424 57.36 77.232 57.216 77.232 57.12C77.232 57.072 77.328 57.072 77.424 57.072ZM56.832 40.272C60.144 40.272 61.104 41.904 61.104 42.912C61.104 43.872 60.384 44.544 59.568 44.544C59.04 44.544 58.464 44.256 58.08 43.536C57.504 42.576 56.592 41.424 55.728 40.752C55.488 40.608 55.392 40.512 55.392 40.416C55.392 40.368 55.968 40.272 56.832 40.272ZM124.08 51.6H123.648C120.336 51.6 113.424 54.528 113.424 59.376C113.424 62.304 115.92 64.608 120.864 64.608C122.88 64.608 125.184 64.224 127.104 63.264C127.68 62.976 128.256 62.832 128.736 62.832C130.08 62.832 130.992 63.744 130.992 64.752C130.992 67.344 125.472 68.352 122.304 68.352C114.048 68.352 111.264 63.12 111.264 60C111.264 55.92 114.912 51.696 119.712 49.392C117.12 48.144 116.448 45.456 116.448 42.528C116.448 40.272 116.832 37.872 117.072 35.904C117.216 34.752 117.312 33.744 117.312 32.88C117.312 30.672 116.496 30.48 115.056 30.144C114.384 30 114.096 29.808 114.096 29.52C114.096 29.28 114.768 27.936 116.496 27.936C118.8 27.936 121.104 30.576 121.104 32.736C121.104 33.744 120.816 34.704 120.576 35.712C120.048 37.968 119.28 40.848 119.28 43.392C119.28 45.36 119.664 47.664 121.872 48.528C122.832 48.144 123.456 47.76 124.656 47.424C125.184 47.28 125.856 47.136 126.48 47.136C127.488 47.136 128.784 47.52 128.784 48.864C128.784 50.256 127.104 51.648 124.704 51.648C124.512 51.648 124.272 51.6 124.08 51.6ZM179.664 43.392V45.168C179.664 48.912 179.904 52.368 180.048 55.152C180.096 55.92 180.144 56.784 180.144 57.648C184.368 58.944 187.632 61.632 187.632 63.648C187.632 64.8 186.864 65.76 185.952 65.76C185.376 65.76 184.704 65.376 184.08 64.32C183.072 62.64 181.488 61.248 180 60.384C179.184 64.56 175.776 67.104 172.272 67.104C168.96 67.104 165.696 64.752 165.696 61.872C165.696 59.184 169.056 56.784 174.72 56.784C175.584 56.784 176.496 56.832 177.408 56.976C177.456 56.208 177.456 55.536 177.456 54.912C177.408 52.848 177.312 48.336 177.264 43.92L176.88 44.016C176.256 44.112 175.68 44.16 175.056 44.16C169.44 44.16 167.184 39.888 167.184 39.312C167.184 39.216 167.232 39.168 167.328 39.168C167.52 39.168 167.952 39.312 168.528 39.504C169.584 39.888 171.12 40.608 172.128 40.896C173.136 41.184 174.144 41.328 175.152 41.328C175.68 41.328 176.544 41.28 177.264 41.136V38.208C177.264 33.84 176.976 33.6 175.344 33.168C174.816 33.024 174.432 32.928 174.432 32.64C174.432 32.208 175.584 30.96 176.832 30.96C178.08 30.96 180.48 32.832 180.48 34.608C180.48 34.992 180.432 35.424 180.336 35.904C180.72 36.048 184.32 37.2 184.896 37.296C185.664 37.44 186.192 38.016 186.192 38.88C186.192 40.272 184.848 42.096 179.664 43.392ZM152.832 31.824C152.832 31.824 153.024 31.536 153.504 31.536C155.28 31.536 159.072 35.664 159.072 39.264C159.072 41.04 158.208 42.528 157.248 44.88C155.952 48.048 154.656 51.504 154.656 54.576C154.656 55.2 154.8 57.36 155.232 57.36C155.376 57.36 155.52 57.168 155.76 56.688C156.816 54.24 160.32 47.184 161.04 47.184C161.136 47.184 161.136 47.232 161.136 47.328C161.136 47.568 161.04 48 160.752 48.624C159.12 52.272 157.056 58.752 157.056 62.448C157.056 63.216 157.152 63.936 157.392 64.56C157.632 65.088 157.728 65.568 157.728 66C157.728 67.104 157.056 67.824 156.24 67.824C153.696 67.824 152.352 62.208 152.352 57.6C152.352 52.704 153.84 48.336 154.944 43.776C155.328 42.144 155.664 40.656 155.664 39.12C155.664 37.104 155.088 35.04 153.264 32.544C153.024 32.256 152.832 32.016 152.832 31.824ZM177.168 59.424C175.824 58.992 174.336 58.752 172.896 58.752C169.584 58.752 167.232 60.192 167.232 61.68C167.232 63.216 169.248 64.128 171.36 64.128C174.192 64.128 176.592 62.4 177.168 59.424ZM180.24 36.336C180.24 36.432 180.096 36.864 179.808 40.56C182.448 39.744 182.688 39.024 182.688 38.544C182.688 37.968 182.16 37.344 180.24 36.336Z" fill="#FAECC0"/>
<path d="M234.008 65.328C234.136 65.424 234.232 65.648 234.232 65.872C234.232 66.096 234.104 66.32 233.72 66.32C233.688 66.32 231.32 66.096 228.824 66.096C227.64 66.096 226.456 66.128 225.464 66.288C225.432 66.288 225.432 66.288 225.4 66.288C225.208 66.288 225.112 66.128 225.112 65.968C225.112 65.744 225.208 65.488 225.432 65.36C226.744 65.168 227.352 64.88 227.352 64.144C227.352 63.504 225.496 58.096 225.048 56.944C224.952 56.656 224.664 56.656 224.408 56.656C223.288 56.592 222.136 56.528 221.016 56.528C218.296 56.528 218.008 56.56 217.784 57.264C217.304 58.8 215.96 62.768 215.768 63.632C215.736 63.76 215.736 63.888 215.736 64.016C215.736 64.976 216.664 65.168 217.976 65.328C218.2 65.52 218.296 65.744 218.296 65.936C218.296 66.16 218.168 66.352 217.944 66.352C217.912 66.352 216.312 66.096 214.392 66.096C213.432 66.096 212.408 66.16 211.448 66.352C211.384 66.352 211.352 66.352 211.288 66.352C211 66.352 210.872 66.192 210.872 65.968C210.872 65.744 211 65.52 211.192 65.36C213.4 65.04 213.752 64.432 217.144 54.992C218.264 51.792 219.512 48.208 220.632 45.232C220.696 45.136 220.696 45.04 220.696 44.944C220.696 44.848 220.664 44.72 220.6 44.56C220.568 44.464 220.536 44.4 220.536 44.304C220.536 44.112 220.632 43.952 220.888 43.792C221.496 43.472 222.168 43.12 222.872 42.192C223.032 41.968 223.192 41.872 223.32 41.872C223.512 41.872 223.672 42.064 223.736 42.416C224.12 44.112 224.632 45.488 225.176 46.928C227.16 52.304 229.624 58.864 231.128 62.704C231.608 63.952 232.504 65.104 234.008 65.328ZM224.344 54.992C224.344 54.8 221.56 46.96 221.336 46.96C221.112 46.96 219.864 50.736 218.52 54.96V54.992C218.52 55.12 218.712 55.184 218.904 55.184C219.448 55.216 220.44 55.216 221.432 55.216C222.456 55.216 223.48 55.216 224.056 55.184C224.184 55.184 224.344 55.152 224.344 54.992ZM245.77 52.112C249.194 52.112 252.618 54.576 252.618 59.216C252.618 63.088 249.866 66.64 245.226 66.64C243.402 66.64 242.218 66.128 240.778 65.328C240.682 65.264 240.586 65.232 240.522 65.232C240.362 65.232 239.69 65.744 239.178 66.128C238.986 66.288 238.794 66.352 238.634 66.352C238.41 66.352 238.25 66.192 238.25 65.904C238.25 65.872 238.25 65.872 238.25 65.84C238.378 64.176 238.634 55.056 238.634 49.904C238.634 43.824 238.602 43.792 236.714 43.44C236.586 43.408 236.522 43.216 236.522 43.024C236.522 42.864 236.586 42.672 236.714 42.64C238.442 42.416 240.362 41.584 241.578 41.072C241.674 41.04 241.77 41.008 241.834 41.008C242.058 41.008 242.186 41.168 242.186 41.488C242.122 42.736 242.026 44.432 241.994 46.096C241.962 48.016 241.962 50.448 241.898 52.368C241.898 52.528 241.898 52.688 241.898 52.816C241.898 52.88 241.898 52.944 241.898 53.008C241.898 53.104 241.93 53.136 241.962 53.136C241.994 53.136 242.026 53.136 242.09 53.104C242.954 52.688 244.106 52.112 245.77 52.112ZM248.97 60.304C248.97 56.624 247.562 53.296 244.97 53.296C243.274 53.296 241.866 54.736 241.802 55.6C241.802 55.856 241.77 57.008 241.77 58.16C241.77 59.312 241.802 60.464 241.802 60.784C241.93 63.568 242.986 65.712 245.354 65.712C247.05 65.712 248.97 64.24 248.97 60.304ZM271.359 59.568C271.359 63.408 268.575 66.768 263.903 66.768C259.359 66.768 256.319 63.632 256.319 59.568C256.319 55.504 259.519 52.208 263.903 52.208C268.511 52.208 271.359 55.536 271.359 59.568ZM267.615 60.368C267.615 55.056 265.535 53.072 263.647 53.072C261.151 53.072 260.031 55.76 260.031 58.704C260.031 60.112 260.319 65.872 264.127 65.872C267.423 65.872 267.615 61.68 267.615 60.368ZM291.49 65.52C290.21 65.808 288.162 66.448 287.65 66.8C287.49 66.896 287.362 66.96 287.266 66.96C287.106 66.96 286.786 66.8 286.146 64.784C286.114 64.656 286.082 64.592 286.018 64.592C285.954 64.592 285.89 64.656 285.826 64.72C284.802 65.712 283.234 66.768 281.538 66.768C281.506 66.768 281.474 66.768 281.474 66.768C278.562 66.768 276.77 65.008 276.642 62.16C276.61 61.616 276.61 60.944 276.61 60.24C276.61 58.64 276.642 56.912 276.674 56.048C276.674 55.984 276.674 55.92 276.674 55.856C276.674 54.544 276.354 54.128 275.202 53.936C275.042 53.904 274.978 53.776 274.978 53.616C274.978 53.424 275.074 53.232 275.234 53.2C276.546 53.008 278.754 52.304 279.458 51.92C279.586 51.856 279.714 51.824 279.842 51.824C280.034 51.824 280.162 51.952 280.162 52.272C280.162 52.304 280.162 52.304 280.162 52.336C279.938 57.36 279.938 57.392 279.938 58.64C279.938 63.056 279.938 64.976 282.498 64.976C284.354 64.976 285.826 63.568 285.858 62.512C285.89 62.096 285.922 60.368 285.922 58.64C285.922 54.256 285.858 54.256 284.098 53.936C283.938 53.904 283.874 53.776 283.874 53.616C283.874 53.424 284.002 53.232 284.162 53.2C285.602 53.04 287.81 52.336 288.514 51.984C288.674 51.92 288.802 51.888 288.93 51.888C289.154 51.888 289.314 52.048 289.314 52.464C289.314 52.464 289.314 52.496 289.314 52.528C289.154 54.96 289.122 59.12 289.122 60.304C289.122 63.6 289.122 64.752 290.754 64.752C290.946 64.752 291.106 64.752 291.298 64.72H291.33C291.554 64.72 291.682 64.976 291.682 65.2C291.682 65.328 291.618 65.488 291.49 65.52ZM304.724 64.944C304.724 65.168 303.124 66.736 300.532 66.736C298.164 66.736 296.5 65.392 296.34 63.024C296.276 62.16 296.244 61.008 296.244 59.824C296.244 57.936 296.308 55.92 296.372 54.576C296.372 54.288 296.276 54.224 296.084 54.224C296.052 54.224 296.02 54.224 295.988 54.224C295.636 54.224 295.092 54.352 294.772 54.352C294.772 54.352 294.772 54.352 294.74 54.352C294.58 54.352 294.484 54.128 294.484 53.872C294.484 53.648 294.58 53.392 294.772 53.328C296.884 52.752 298.452 51.248 299.092 49.712C299.156 49.552 299.348 49.488 299.572 49.488C299.828 49.488 300.084 49.584 300.084 49.776C300.084 50.32 300.02 51.856 299.988 52.272C299.988 52.56 300.052 52.656 300.308 52.656C300.66 52.656 302.484 52.56 303.828 52.272C303.86 52.272 303.86 52.272 303.892 52.272C304.148 52.272 304.276 52.624 304.276 52.976C304.276 53.392 304.148 53.808 303.86 53.808C302.42 53.808 300.788 53.936 300.276 53.968C299.764 53.968 299.732 54.32 299.732 58.736C299.732 63.056 299.732 64.976 301.876 64.976C301.972 64.976 302.9 64.976 304.244 64.4C304.276 64.4 304.276 64.4 304.308 64.4C304.5 64.4 304.724 64.72 304.724 64.944Z" fill="#FAECC0"/>
</svg>
