<svg width="244" height="478" viewBox="0 0 244 478" fill="none" xmlns="http://www.w3.org/2000/svg">
<path d="M216.75 80.25H131C111.75 80.25 101.5 81.25 91.25 82.75C91 82.75 91 82.75 90.75 82.75C88 82.75 83.75 79.25 81 76C70.25 106.25 61 139.25 61 162.25C61 169 61.75 175.25 63.75 180C68.5 192.25 63.5 200.5 57.5 200.5C53.5 200.5 49.5 196.25 49.5 186.5C49.5 186 49.5 185.5 49.5 184.75C49.5 184 49.5 183.25 49.5 182.5C49.5 167.75 42.5 163 19 163C18.5 163 17.75 163 17.25 163C15 163 13.75 160.5 13.75 158C13.75 155.75 14.75 153.5 16.5 153.5C26.5 152.5 33.75 153.25 39.75 152.5C44.75 152 47.25 149.5 49.5 141.25C59.75 99 86.5 32.75 99.75 3.99999C100.25 2.99999 101.25 2.5 102.5 2.5C105.25 2.5 108.75 4.75 108.75 6.74999C108.75 6.74999 108.75 7 108.75 7.24999C106 13.25 102 22.25 97.5 33C110.5 33.75 124.75 34.75 137.75 34.75H138C138 17.25 138 17.25 138 17.25C138 13 137.25 6.74999 136.25 3.99999C136 3.24999 135.75 2.74999 135.75 1.99999C135.75 0.999985 136.5 0.499992 137.75 0.499992C139 0.499992 159.5 1.74999 159.5 6.74999C159.5 8.49999 157.25 10.25 153 12C150 13 150 13.75 150 34.75H166.75C169.5 34.75 170.75 34 172.5 31.75C173 31.25 181.5 21 185 21C191.25 21 202.75 32.75 202.75 38.5C202.75 41.25 200.75 43 195.75 43H159.25C159.5 43 159.75 43.25 160 43.25C166.5 46 175 51 175 54.75C175 56.5 173 57.75 168.5 57.75C168.25 57.75 168 57.75 167.75 57.75C165.75 57.75 165 58.75 164 60.5C162 63 159 67.75 156.5 71.5H186.25C189.25 71.5 191.25 71 192.75 68.75C201 58.5 203.5 57.5 205.5 57.5C212.75 57.5 223.75 70.5 223.75 75.75C223.75 78.5 221.75 80.25 216.75 80.25ZM225 148.75L222.75 167.75C222.75 168.5 222.75 169.25 222.75 170C222.75 172.75 223.25 175 226 176.5C229.25 178 231.25 179.25 231.25 182.25C231.25 190.25 215.25 195 176 195C153.25 195 136.75 195 136.75 172.25C136.75 172 136.75 171.5 136.75 171.25C136.75 166.75 137 160.5 137.25 153.75H110.25C110.5 158 110.5 162 110.5 165.75C110.5 169.5 106.5 171.5 103 171.5C100.25 171.5 97.75 170.25 97.75 167C97.75 166.75 97.75 166.5 97.75 166.25C99 154 99.5 138.75 99.5 125.25C99.5 118.25 99.25 111.75 99 106.25C99 100.75 98 95 97.25 89.75C97.25 89.5 97.25 89.25 97.25 88.75C97.25 88.25 97.5 87.75 98 87.75C100.25 87.75 109.5 93 113 95.25H173C176.75 95.25 176.75 94 179 91.75C180.25 90.5 181.25 89.5 182.75 89.5C183 89.5 183.75 89.5 184.25 89.75C185.5 90 197.75 94.5 197.75 100.25C197.75 102 196.25 103.75 192.25 105.75C189.5 107.25 189 107.75 189 117.25C189 128.5 189.75 148.25 190.75 161.5C191.25 166.25 185 167.25 183 167.25C180.25 167.25 177.75 166 177.75 162.75V162.5C177.75 159.75 178 157 178 153.75H148.25V168.25C148.25 183.25 153.5 184.5 179 184.5C210.5 184.5 210.5 183.5 216.75 147.5C217 145.75 218.75 145 220.5 145C222.75 145 225 146.25 225 148.5V148.75ZM132.25 71.5H147.25C156.25 51.25 156.25 51.25 157.75 44.25C158 43.75 158 43.25 158.25 43H136.5C126 43 115.75 43.75 103 45.5C102.75 45.5 102.5 45.5 102.25 45.5C100 45.5 97 43.25 94.5 40.75C90.75 49.75 87 59.5 83.25 69.75C101.75 71 108.25 71.5 128.25 71.5C126.5 70.75 124.75 69 123.5 65.75C121.25 60 118 55.75 113 51.5C112.5 51 112.25 50.5 112.25 50C112.25 48 115.5 45.75 118 45.75C119.25 45.75 136.75 54.5 136.75 64.5C136.75 67.75 134.75 70.5 132.25 71.5ZM58.25 91.75C58.25 95.25 55.75 98 51.75 98C49.5 98 46.75 97 43.75 95C35.75 89.75 21.25 84.75 11 84C10 84 9.5 83 9.5 81.75C9.5 79.25 11 76 12.75 76C13.75 76 14.75 76 16 76C32.25 76 58.25 78.25 58.25 91.75ZM68 51.75C65.75 51.75 62.75 50.5 60 47C51.25 36.25 40.75 29 32.5 25.25C32 25 31.75 24.5 31.75 23.75C31.75 21.5 34.25 18.25 36 18.25C36.25 18.25 36.25 18.25 36.5 18.25C72.5 29.25 74 40.75 74 44.25C74 48.5 71.5 51.75 68 51.75ZM178.25 145V128.5H148.5C148.25 133.25 148.25 139.25 148.25 145H178.25ZM137.75 128.5H109.75C110 134 110 139.5 110 145H137.5C137.5 139.25 137.5 133.5 137.75 128.5ZM137.75 119.75V116.75C137.75 111.25 137.25 107.5 137 105.25C137 104.75 136.75 104.5 136.75 104H112.75L112.25 104.5C110.75 105.5 109.75 107 109.75 108.25V119.75H137.75ZM178.25 119.5V107C178.25 105.5 178 104 175 104H152.25C154.25 104.75 155.25 105.75 155.25 106.5C155.25 107.75 153.5 109 151.5 109.5C149.75 110 149.75 113 149.5 115.5C149.25 116.75 149 118.25 149 119.75L178.25 119.5ZM149.75 375.75H120.75C109 375.75 103 376.25 96.25 377C96 377 96 377 95.75 377C91.5 377 84.25 368.5 84.25 365.75V365.5C45 413.5 7.5 427 6.25 427C3.5 427 1.8999e-07 423.5 1.8999e-07 421C1.8999e-07 420.25 0.5 419.5 1.5 419C53.75 395.25 88.75 343 102.75 313.25C103 312.75 103.25 312.25 103.25 312C103.25 311.5 102.75 311.25 101.75 311.25H77C73.75 315.75 70.25 320.75 66.25 325.75C83.5 329.25 84 334.5 84 337.5C84 340.5 81.5 343.25 78.5 343.25C77 343.25 75.25 342.5 73.5 341C69.5 337.75 64.75 335 60 333.25C55.25 338.75 50.5 344.25 45.5 349.5C58.75 352.5 65.75 356.75 65.75 362.75C65.75 366 63.5 368.25 60.5 368.25C58.75 368.25 56.75 367.5 55 365.75C50.5 361.5 44.5 358 38.75 356.25C38.25 356.75 24.75 369.5 21.5 369.5C18.5 369.5 15.5 366.75 15.5 364.5C15.5 364 15.75 363.5 16.25 363C44.5 340.75 79.75 287.75 79.75 279.25C80 278.5 79.75 277.25 81 277.25C82.25 277.25 100.5 283.25 100.5 287.75C100.5 289.25 98.5 290.75 93.25 291.25C91 291.5 90 291 88.25 294L83 302.25H103.25C105.5 302.25 106.75 301 108.25 299.5C109.25 298.25 110.25 297.5 111.5 297.5C114.75 297.5 125 305 125 309C125 311 123.5 312.75 120.75 313.75C117.75 314.75 116.75 315.5 115.75 317.5C109.25 330.25 98.75 347.5 84.75 365C85 364.75 85.25 364.75 85.75 364.75C93.25 365.75 104.5 367.25 118.25 367.25H122.5C126 367.25 127.25 366.5 129 364.5C130.5 362.75 133.75 357.5 135.25 356.25C136.5 355.25 137.75 354.5 139 354.5C145 354.5 155 367.75 155 372.25C155 374.25 153.5 375.75 149.75 375.75ZM175.75 310.75H170.5C170.5 310.75 157.5 311.75 152.75 312.5C149.25 313 141.5 303.5 141.5 300C141.5 299.25 141.75 299 142.25 299H142.5C151.75 300.5 157.75 302 168 302H178.25C180.5 302 181.25 300.25 182.5 299C183.5 297.75 184.5 297 186 297C189.75 297 203.5 305.75 203.5 311.75C203.5 313.5 202.25 315.25 198.5 316.25C196 317 192.75 317.25 191 319C185.5 326 168.75 344.25 162.5 349C181.75 372.25 208 390.5 242.25 396C243.25 396.25 243.5 397 243.5 398C243.5 400.25 242 403.25 240.75 403.5C236 404.5 216.75 405.75 210.5 409.75C209.75 410.25 208.5 410.5 207.25 410.5C206.25 410.5 205.25 410.25 204.5 409.75C140 360.25 122.25 294.5 122.25 293C122.25 291 124.75 289.5 127.25 289.5C128.5 289.5 130 290.25 130.5 291.5C136.25 308.75 145.25 326.25 157 342C163.25 334.25 174.25 319 177.25 312.75C177.5 312.25 177.5 312 177.5 311.75C177.5 311 177 310.75 175.75 310.75ZM178 407H132.5C133 407.5 133.25 408 133.25 408.5C133.25 409.25 132.5 410.25 129.5 411C128.25 411.5 127.75 413.25 127.75 415.25C127.5 417 127.5 420.5 127.5 424.75C127.5 435 128 449.75 128.25 457.25C128.25 457.5 128.25 457.5 128.25 457.75C128.25 474.5 108 477.25 107 477.25C106 477.25 105.25 476.75 104.5 475.5C101.25 470.75 88.5 469.25 83.5 468.25C81.75 468 81 465.75 81 463.75C81 461.25 82 459 84 459H84.25C92.75 460 99.25 461 104 461C112.25 461 115.75 458.75 116 452.25C116.25 447.75 116.25 441.5 116.25 434.75C116.25 428.25 116.25 421 116 415.25L115.5 407H104.5C93.25 407 80.75 408.25 68.5 409.75C64.5 410.25 57.25 400 57.25 397C57.25 396.25 57.5 395.75 58.25 395.75H58.5C76 397.75 92.75 398.75 105.5 398.75H148C151.5 398.75 153 396.75 154.75 394.5C155.5 393.25 161.25 385.25 165.25 385.25C171 385.25 183 398.5 183 403.5C183 405.75 181.75 407 178 407ZM98 434.5C98 436 96.75 437.25 93.75 437.25C92.75 437.25 91.5 437 90 436.75C89.75 436.75 89.5 436.75 89.5 436.75C87.75 436.75 86 437.75 84.75 438.75C61.25 458.5 32.75 468 30 468C26.75 468 24 464.25 24 462C24 461 24.5 460 25.5 459.75C50 451.5 75 431.5 80.25 421.75C80.75 420.75 81.25 420.5 82.25 420.5C82.75 420.5 83.25 420.5 84 421C86 422.25 98 430.5 98 434.5ZM197.75 462C194.75 462 191.25 460.5 187.5 456.25C175.75 442.5 158.75 434.5 148 429.5C147 429 146.5 428.25 146.5 427.5C146.5 425 149.5 422 152.25 422C153.75 422 204.25 437 204.25 455C204.25 459.25 201.5 462 197.75 462Z" fill="#FAECC0"/>
</svg>
