<svg width="75" height="17" viewBox="0 0 75 17" fill="none" xmlns="http://www.w3.org/2000/svg">
<path d="M8.612 1.392L10.178 1.5C10.25 1.5 12.356 1.284 14.336 0.348L15.29 1.59C15.506 1.86 15.56 1.95 15.56 2.112C15.56 2.184 15.506 2.238 15.416 2.238C15.362 2.238 15.11 2.166 15.056 2.166C14.876 2.166 14.66 2.22 14.498 2.256C12.176 2.796 11.78 2.886 10.376 3.048V5.55H15.578V7.098H13.814V15.792H12.104V7.098H10.376V9.294C10.376 13.398 8.756 15.576 8.378 16.08L6.578 15.306C7.532 14.28 8.612 12.678 8.612 9.294V1.392ZM5.318 9.924V10.086C6.182 11.31 7.046 11.868 7.568 12.192L6.362 13.56C5.804 13.128 5.552 12.822 5.318 12.48V15.9H3.572V12.516C2.942 13.524 2.42 14.208 1.646 14.982L0.152 13.92C1.988 12.498 3.032 10.41 3.284 9.924H0.584V8.43H3.572V7.008H0.53V5.496H2.312C2.222 5.19 1.754 3.858 1.664 3.588L2.726 3.264H0.782V1.77H3.572V0.204L5.3 0.348C5.426 0.366 5.75 0.383999 5.75 0.545999C5.75 0.618 5.732 0.635999 5.498 0.852C5.372 0.977999 5.372 1.086 5.372 1.23V1.77H8V3.264H6.074L7.082 3.516C7.388 3.588 7.478 3.624 7.478 3.768C7.478 3.822 7.46 3.876 7.208 3.984C7.154 4.02 7.082 4.056 7.028 4.236C6.902 4.704 6.848 4.92 6.614 5.496H8.198V7.008H5.318V8.43H7.892V9.924H5.318ZM2.87 5.496H4.976C5.228 4.74 5.426 3.948 5.552 3.264H3.23C3.518 4.002 3.68 4.398 3.914 5.172L2.87 5.496ZM24.272 7.656H19.952V6.252H26.882V5.37H22.076V4.092H26.882V3.246H20.6V1.914H24.056C23.912 1.626 23.642 1.05 23.372 0.635999L25.046 0.221999C25.442 0.743999 25.694 1.14 25.946 1.644L25.064 1.914H29.15C29.492 1.428 29.726 0.995999 29.996 0.348L31.832 0.528C32.012 0.545999 32.156 0.581999 32.156 0.707999C32.156 0.852 32.048 0.905999 31.76 1.032C31.58 1.104 31.544 1.158 31.364 1.482C31.256 1.698 31.184 1.806 31.112 1.914H35V3.246H28.682V4.092H33.38V5.37H28.682V6.252H35.594V7.656H26.216C26.036 7.98 25.856 8.232 25.622 8.538H33.326V16.044H31.526V15.486H25.334V16.044H23.642V10.968C22.598 12.084 21.284 12.858 20.87 13.11L19.412 11.85C22.04 10.518 23.318 9.15 24.272 7.656ZM31.526 12.39V11.508H25.334V12.39H31.526ZM31.526 14.298V13.362H25.334V14.298H31.526ZM31.526 10.536V9.672H25.334V10.536H31.526ZM44.396 8.916V14.46C44.396 15.648 42.164 15.792 41.372 15.846L40.544 13.992C41.354 14.028 42.596 14.064 42.596 13.308V9.708C42.308 9.834 40.778 10.482 40.724 10.572C40.58 10.806 40.562 10.824 40.472 10.824C40.328 10.824 40.31 10.698 40.292 10.446L40.13 8.574C41.624 8.16 42.182 7.98 42.596 7.836V4.776H40.166V2.976H42.596V0.293999L44.18 0.348C44.594 0.366 44.846 0.401999 44.846 0.563999C44.846 0.653999 44.81 0.671999 44.558 0.852C44.54 0.87 44.396 0.977999 44.396 1.122V2.976H46.16V4.776H44.396V7.224C45.044 6.972 45.278 6.864 45.602 6.738V8.376C45.422 8.466 44.558 8.844 44.396 8.916ZM53.864 4.038L55.322 4.632C55.178 6.342 55.034 7.152 53.882 7.152H52.262C51.254 7.152 51.002 6.81 51.002 5.982V2.598H48.788C48.824 5.136 48.518 6.018 47.006 7.584L45.548 6.468C47.06 5.172 47.06 3.588 47.06 2.634C47.06 2.526 47.06 1.986 47.006 0.942H52.838V4.65C52.838 4.938 52.838 5.406 53.216 5.406C53.612 5.406 53.738 4.902 53.864 4.038ZM46.7 10.626L48.122 9.564C48.68 10.32 49.202 10.896 49.886 11.526C50.246 11.184 51.056 10.356 51.578 9.528H46.232V7.836H53.45L54.188 8.664C53.234 10.626 52.118 11.85 51.308 12.642C52.334 13.344 53.036 13.704 55.286 14.334L54.17 16.044C52.172 15.396 51.056 14.73 49.832 13.812C48.986 14.424 47.906 15.108 46.016 16.044L44.594 14.334C46.214 13.884 47.384 13.272 48.482 12.606C48.176 12.264 46.952 10.914 46.7 10.626ZM72.242 10.86V14.028H69.506V14.838H68.264V10.86H72.242ZM69.506 12.984H70.946V11.85H69.506V12.984ZM66.878 7.962V4.146H73.484V7.962H66.878ZM68.534 6.612H71.882V5.478H68.534V6.612ZM65.708 8.682H74.798V14.514C74.798 15.684 73.556 15.864 72.332 15.99L71.558 14.352C72.656 14.298 73.106 14.28 73.106 13.506V10.032H67.418V15.9H65.708V9.474L64.97 10.266C64.448 9.672 64.232 9.42 63.872 8.952V15.9H62.126V9.78C61.514 11.04 61.19 11.634 60.758 12.39L59.408 11.382C60.704 9.42 61.442 7.71 61.91 6.036H59.696V4.398H62.126V2.526C61.73 2.562 61.46 2.58 60.398 2.598L59.822 0.959999C62.864 0.977999 64.088 0.69 65.006 0.311999L65.906 1.518C65.996 1.626 66.032 1.716 66.068 1.806H69.164V0.401999L71.054 0.509999C71.162 0.509999 71.504 0.528 71.504 0.707999C71.504 0.78 71.468 0.797999 71.18 1.014C71.054 1.104 71.054 1.23 71.054 1.338V1.806H74.942V3.408H65.618V2.094C65.33 2.094 64.124 2.328 63.872 2.346V4.398H65.852V6.036H63.872V6.234C64.304 7.098 64.826 7.836 65.708 8.682Z" fill="#3E3E3E"/>
</svg>
