<?xml version="1.0" encoding="UTF-8"?>
<svg xmlns="http://www.w3.org/2000/svg" viewBox="0 0 998 466.33">
  <g fill="#00f930" stroke-width="2" stroke="#00f930">
    <path d="M57.86,207.76l-50.17-8.31-1.03,6.25-6.66-1.1,3.24-19.56,6.66,1.1-1.02,6.17,50.17,8.31-1.18,7.14ZM57.25,173l-2.82,8.86,8.01,3.85-1.97,6.19-52.5-24.94,3.02-9.49,57.22,10.12-2.2,6.9-8.76-1.5ZM48.27,178.95l2.27-7.13-6.94-1.26c-11.42-2.09-21-4.28-28.55-6.08,7.19,2.9,16.3,6.58,26.82,11.49l6.39,2.99ZM19.12,136.41l3.32-6.44,22.9,11.79c-1.2-1.27-1.96-2.12-2.87-3.24l-14.98-18.36,3.28-6.36,18.49,23.22,32.9,2.79-3.47,6.73-24.82-2.14c-1.51-.13-3.05-.37-4.81-.72l24.58,12.66-3.32,6.44-51.21-26.38ZM38.04,103.02l4.13-5.95,47.32,32.83-4.13,5.95-47.32-32.83ZM77.47,57.69l10.51-8.46c5.96-4.8,9-4.18,14.21,2.3l9.08,11.28c5.21,6.47,5.17,9.57-.79,14.37l-4.87,3.92,13.62,16.92-5.64,4.54-36.12-44.87ZM105.29,72.7c2.56-2.06,2.05-3.23-.38-6.24l-7.64-9.49c-2.42-3.01-3.46-3.77-6.02-1.7l-3.91,3.15,14.03,17.43,3.91-3.15ZM107.46,35.38l6.24-3.68,25.86,43.79,8.15-4.81,3.43,5.81-14.38,8.5-29.29-49.6ZM165.88,60.47l-8.6,3.53,2.2,8.61-6.01,2.47-14.63-56.25,9.21-3.78,29.02,50.35-6.7,2.75-4.48-7.68ZM155.56,57.42l6.93-2.84-3.49-6.13c-5.74-10.09-10.22-18.84-13.69-25.78,2.4,7.37,5.43,16.71,8.44,27.93l1.82,6.81ZM167.56,8.36l18.79-4.57,1.48,6.08-1.52,46.27,12.07-2.94,1.6,6.56-19.43,4.73-1.48-6.08,1.52-46.27-11.43,2.78-1.6-6.56ZM219.68,48.66l-9.26.83-.44,8.88-6.47.58,2.62-58.06,9.91-.89,12.87,56.67-7.21.65-2.02-8.66ZM210.72,42.69l7.46-.67-1.53-6.88c-2.51-11.34-4.21-21.02-5.47-28.67.12,7.75.26,17.57-.18,29.18l-.27,7.05ZM281,30.92l11.04,2.65-5.04,21.04c-1.94,8.08-4.41,9.94-11.86,8.16l-3.84-.92c-7.36-1.76-8.81-4.57-6.87-12.65l8.63-36.01c1.94-8.08,4.49-9.92,11.86-8.16l3.84.92c7.44,1.78,8.81,4.56,6.87,12.65l-2.28,9.52-6.64-1.59,2.01-8.4c.9-3.76.87-5.04-2.41-5.82l-1.68-.4c-3.28-.79-3.89.34-4.79,4.1l-8.09,33.77c-.9,3.76-.87,5.04,2.41,5.82l1.68.4c3.28.79,3.89-.34,4.79-4.1l3.2-13.36-4.4-1.05,1.57-6.56ZM308.15,64.52l-8.56-3.63-4.57,7.62-5.98-2.54,29.68-49.98,9.17,3.89-15.36,56.05-6.67-2.83,2.3-8.59ZM303.06,55.03l6.89,2.92,1.9-6.79c3.13-11.18,6.2-20.52,8.69-27.87-3.55,6.9-8.05,15.62-13.92,25.65l-3.56,6.09ZM342.35,82.58c-1.99,3.12-3.62,6.28-4.41,9.19l-6.38-4.07c.32-2.04,2.11-4.99,4.06-8.05l5.93-9.29c2.13-3.33,2.54-5.21-.51-7.16l-4.09-2.61-13.86,21.71-6.1-3.9,31-48.54,11.79,7.53c6.45,4.12,6.83,7.19,2.36,14.2l-4.21,6.59c-3.23,5.06-5.68,6.91-9.24,5.91,2.36,2.88,1.71,5.88-1.56,11.01l-4.78,7.49ZM355.42,48.66c2.08-3.26,2.54-4.43-.38-6.29l-4.58-2.92-9.88,15.47,4.58,2.92c2.84,1.82,3.79.95,5.87-2.31l4.38-6.87ZM381.29,52.88l10.27,9.38c5.65,5.16,5.56,8.31-.05,14.45l-24.42,26.73c-5.61,6.13-8.74,6.51-14.38,1.35l-10.26-9.38,38.86-42.52ZM356.34,98.97c2.49,2.28,3.57,1.59,6.18-1.27l22.87-25.02c2.61-2.86,3.2-3.99.71-6.27l-4.01-3.66-29.75,32.56,4.01,3.66ZM395.26,101.54l5.6,7-5.27,4.22-5.61-7-15.61,12.5,6.74,8.41-5.27,4.22-11.26-14.07,44.96-36,11.26,14.07-5.27,4.22-6.74-8.42-13.55,10.85ZM412.29,126.21c2.74-2.51,5.43-4.6,8.12-6.7-2.89,1.74-5.78,3.48-9.07,5.35l-28.82,16.41-3.09-5.44,50.06-28.5,4.52,7.94-23.37,21.16c-2.74,2.51-5.39,4.67-8.07,6.77,2.89-1.74,5.7-3.62,8.92-5.46l26.68-15.18,3.13,5.51-50.06,28.5-4.07-7.15,25.14-23.21ZM428.04,158.51l3.15,8.4-6.32,2.37-3.15-8.4-18.72,7.03,3.79,10.09-6.32,2.37-6.34-16.87,53.92-20.25,6.34,16.87-6.32,2.37-3.79-10.09-16.25,6.11ZM416.94,207.17c-3.63.75-7.03,1.78-9.67,3.25l-1.52-7.42c1.69-1.19,5.06-1.96,8.6-2.69l10.8-2.22c3.87-.79,5.51-1.8,4.78-5.35l-.98-4.75-25.23,5.19-1.46-7.09,56.42-11.6,2.82,13.7c1.54,7.5-.4,9.91-8.54,11.58l-7.66,1.57c-5.88,1.21-8.92.74-10.68-2.51-.42,3.7-3.02,5.33-8.99,6.55l-8.7,1.79ZM450.38,192.91c3.79-.78,4.95-1.27,4.25-4.65l-1.09-5.32-17.97,3.7,1.09,5.32c.68,3.3,1.96,3.38,5.74,2.6l7.98-1.64ZM406.47,258.59l50.17,8.32,1.04-6.25,6.66,1.1-3.25,19.56-6.66-1.1,1.02-6.17-50.17-8.32,1.18-7.14ZM407.09,293.33l2.82-8.86-8.01-3.85,1.97-6.19,52.5,24.94-3.02,9.49-57.22-10.12,2.2-6.9,8.76,1.5ZM416.07,287.38l-2.27,7.13,6.94,1.26c11.42,2.09,21,4.28,28.55,6.08-7.19-2.9-16.3-6.58-26.82-11.49l-6.39-2.99ZM445.22,329.92l-3.32,6.44-22.9-11.79c1.2,1.27,1.96,2.12,2.87,3.24l14.98,18.36-3.28,6.37-18.49-23.22-32.9-2.79,3.47-6.73,24.82,2.14c1.51.13,3.05.37,4.81.72l-24.58-12.66,3.32-6.44,51.21,26.38ZM426.3,363.31l-4.13,5.95-47.32-32.83,4.13-5.95,47.32,32.83ZM386.87,408.64l-10.51,8.46c-5.96,4.8-9,4.18-14.21-2.3l-9.08-11.28c-5.21-6.47-5.17-9.57.79-14.37l4.87-3.92-13.62-16.92,5.64-4.54,36.12,44.87ZM359.05,393.63c-2.56,2.06-2.05,3.23.38,6.24l7.64,9.49c2.42,3.01,3.46,3.77,6.02,1.7l3.91-3.15-14.04-17.44-3.91,3.15ZM356.88,430.95l-6.24,3.68-25.86-43.79-8.15,4.81-3.43-5.81,14.38-8.5,29.29,49.6ZM298.46,405.86l8.6-3.53-2.2-8.61,6.01-2.47,14.63,56.25-9.21,3.78-29.02-50.35,6.7-2.75,4.48,7.68ZM308.78,408.92l-6.93,2.84,3.49,6.13c5.74,10.09,10.22,18.84,13.69,25.78-2.4-7.37-5.43-16.71-8.44-27.93l-1.82-6.81ZM296.78,457.97l-18.79,4.57-1.48-6.08,1.52-46.27-12.07,2.94-1.6-6.56,19.43-4.73,1.48,6.08-1.52,46.27,11.43-2.78,1.6,6.56ZM244.64,417.67l9.26-.83.44-8.88,6.47-.58-2.62,58.06-9.92.89-12.87-56.67,7.21-.65,2.02,8.66ZM253.61,423.64l-7.46.67,1.53,6.88c2.51,11.34,4.21,21.02,5.47,28.67-.12-7.75-.26-17.57.18-29.18l.27-7.05ZM183.34,435.4l-11.04-2.65,5.04-21.05c1.94-8.08,4.41-9.94,11.86-8.16l3.84.92c7.36,1.76,8.81,4.56,6.87,12.65l-8.63,36.01c-1.94,8.08-4.49,9.92-11.86,8.16l-3.84-.92c-7.44-1.78-8.81-4.57-6.87-12.65l2.28-9.52,6.64,1.59-2.01,8.4c-.9,3.76-.87,5.04,2.41,5.83l1.68.4c3.28.79,3.89-.34,4.79-4.1l8.09-33.77c.9-3.76.87-5.04-2.41-5.82l-1.68-.4c-3.28-.79-3.89.34-4.79,4.1l-3.2,13.36,4.4,1.05-1.57,6.56ZM156.19,401.81l8.56,3.63,4.57-7.62,5.98,2.54-29.68,49.98-9.17-3.89,15.36-56.05,6.67,2.83-2.3,8.59ZM161.28,411.3l-6.89-2.92-1.9,6.79c-3.13,11.18-6.2,20.52-8.69,27.87,3.55-6.9,8.05-15.62,13.91-25.65l3.56-6.09ZM121.99,383.75c1.99-3.12,3.62-6.28,4.41-9.2l6.38,4.07c-.33,2.04-2.12,5-4.06,8.05l-5.93,9.29c-2.13,3.33-2.54,5.21.51,7.16l4.09,2.61,13.86-21.71,6.1,3.9-31,48.55-11.79-7.53c-6.45-4.12-6.83-7.19-2.36-14.2l4.21-6.59c3.23-5.06,5.68-6.92,9.24-5.91-2.36-2.88-1.71-5.88,1.56-11.01l4.78-7.49ZM108.92,417.68c-2.08,3.26-2.54,4.43.38,6.29l4.58,2.92,9.87-15.47-4.58-2.92c-2.84-1.82-3.79-.95-5.87,2.31l-4.38,6.87ZM83.05,413.45l-10.27-9.38c-5.65-5.16-5.56-8.31.05-14.45l24.43-26.73c5.61-6.13,8.74-6.51,14.38-1.35l10.27,9.38-38.86,42.52ZM108,367.36c-2.49-2.28-3.57-1.59-6.17,1.27l-22.87,25.03c-2.61,2.85-3.2,3.99-.71,6.26l4.01,3.66,29.75-32.56-4.01-3.67ZM69.06,364.77l-5.6-7,5.27-4.22,5.6,7,15.61-12.49-6.73-8.42,5.27-4.22,11.26,14.07-44.97,35.99-11.26-14.07,5.27-4.22,6.73,8.42,13.56-10.85ZM52.06,340.13c-2.74,2.51-5.43,4.6-8.12,6.7,2.89-1.74,5.78-3.48,9.07-5.35l28.82-16.4,3.09,5.44-50.06,28.49-4.52-7.94,23.37-21.16c2.74-2.51,5.39-4.67,8.07-6.77-2.89,1.74-5.7,3.62-8.92,5.46l-26.67,15.18-3.13-5.51,50.06-28.5,4.07,7.15-25.14,23.21ZM36.3,307.82l-3.15-8.4,6.32-2.37,3.15,8.4,18.72-7.03-3.79-10.09,6.32-2.37,6.34,16.87-53.92,20.25-6.33-16.87,6.32-2.37,3.79,10.09,16.25-6.1ZM47.4,259.16c3.63-.75,7.03-1.78,9.67-3.25l1.52,7.41c-1.69,1.19-5.06,1.96-8.6,2.69l-10.8,2.22c-3.87.8-5.51,1.81-4.78,5.35l.98,4.75,25.23-5.19,1.46,7.09-56.42,11.6-2.82-13.7c-1.54-7.49.4-9.91,8.54-11.58l7.66-1.58c5.88-1.21,8.92-.74,10.68,2.51.42-3.7,3.02-5.33,8.99-6.55l8.7-1.79ZM13.96,273.42c-3.79.78-4.95,1.27-4.25,4.65l1.09,5.32,17.97-3.7-1.09-5.32c-.68-3.3-1.95-3.38-5.74-2.6l-7.98,1.64ZM226.72,330.02l.09-86.5c0-1.93-1.56-3.5-3.5-3.5h0c-1.93,0-3.5,1.57-3.5,3.5l-.09,86.5c0,1.93,1.56,3.5,3.5,3.5h0c1.93,0,3.5-1.57,3.5-3.5ZM243.32,330.02l.09-86.5c0-1.93-1.56-3.5-3.5-3.5h0c-1.93,0-3.5,1.57-3.5,3.5l-.09,86.5c0,1.93,1.56,3.5,3.5,3.5h0c1.93,0,3.5-1.57,3.5-3.5ZM181.54,234.11c-10.76,0-26.6-.65-39.82-6.25-15.84-6.72-23.88-18.74-23.88-35.74,0-10.18,3.86-18.91,11.15-25.25,8.27-7.18,20.38-10.83,35.98-10.83,38.69,0,61.79,27.87,61.79,74.56v3.5h-45.22ZM164.98,163.05c-36.22,0-40.13,20.33-40.13,29.07,0,14.12,6.41,23.7,19.61,29.29,12.05,5.11,26.94,5.7,37.09,5.7h38.18c-.51-18.28-5.02-33.67-13.14-44.67-9.48-12.87-23.48-19.39-41.6-19.39ZM282.8,234.11h-45.22v-3.5c0-46.69,23.1-74.56,61.79-74.56,15.6,0,27.71,3.64,35.98,10.83,7.3,6.34,11.15,15.07,11.15,25.25,0,17-8.03,29.02-23.88,35.74-13.22,5.61-29.06,6.25-39.82,6.25ZM244.62,227.11h0s38.17,0,38.17,0c10.15,0,25.04-.59,37.09-5.7,13.2-5.59,19.61-15.18,19.61-29.29,0-8.74-3.91-29.07-40.13-29.07-18.12,0-32.12,6.52-41.6,19.39-8.11,11-12.63,26.39-13.14,44.67Z"/>
    <g transform="translate(520 233.165) scale(1.1) translate(-800 -241)">
      <path d="M817.87,156.32v-88.07h-15.75v-8.41h40.46v8.41h-15.61v88.07h-9.1Z"/>
      <path d="M880.62,140.75h-17.64l-2.21,15.57h-8.13l13.51-96.48h12.54l13.37,96.48h-9.1l-2.34-15.57ZM864.08,132.34h15.44l-2.76-20.4c-2.34-17.64-4-32.67-4.96-43.83-.83,11.17-2.34,26.33-4.82,43.83l-2.89,20.4Z"/>
      <path d="M911.63,59.84h9.1v43.83c.96-2.62,1.79-4.41,2.89-6.62l18.06-37.21h8.96l-22.74,45.35,23.57,51.13h-9.65l-18.33-40.52c-.96-2.07-1.93-4.41-2.76-7.17v47.69h-9.1V59.84Z"/>
      <path d="M969.24,59.84h9.1v96.48h-9.1V59.84Z"/>
      <path d="M806.76,193.98h20.4c11.72,0,14.89,3.72,14.89,16.4v25.78c0,12.82-3.17,16.54-14.89,16.54h-11.3v37.77h-9.1v-96.48ZM825.65,244.29c6.62,0,7.3-2.48,7.3-9.79v-22.33c0-7.44-.69-9.79-7.3-9.79h-9.79v41.9h9.79Z"/>
      <path d="M862.03,193.98h9.1v88.08h16.54v8.41h-25.64v-96.48Z"/>
      <path d="M929.71,274.88h-17.64l-2.21,15.58h-8.13l13.51-96.48h12.54l13.37,96.48h-9.1l-2.34-15.58ZM913.17,266.48h15.44l-2.76-20.4c-2.34-17.64-4-32.67-4.96-43.83-.83,11.17-2.34,26.33-4.82,43.83l-2.89,20.4Z"/>
      <path d="M958.24,193.98h29.63v7.86l-21.36,80.22h21.36v8.41h-30.74v-7.86l21.36-80.22h-20.26v-8.41Z"/>
      <path d="M1031.56,274.88h-17.64l-2.21,15.58h-8.13l13.51-96.48h12.54l13.37,96.48h-9.1l-2.34-15.58ZM1015.02,266.48h15.44l-2.76-20.4c-2.34-17.64-4-32.67-4.96-43.83-.83,11.17-2.34,26.33-4.82,43.83l-2.89,20.4Z"/>
      <path d="M823.99,372.22h17.64v36.66c0,12.68-3.03,16.4-14.89,16.4h-5.93c-11.85,0-15.02-3.72-15.02-16.4v-65.06c0-12.68,3.17-16.4,15.02-16.4h5.93c11.85,0,14.89,3.72,14.89,16.4v17.78h-8.68v-15.99c0-7.44-.41-9.79-7.17-9.79h-3.58c-6.75,0-7.17,2.34-7.17,9.79v61.47c0,7.44.41,9.79,7.17,9.79h3.58c6.75,0,7.17-2.34,7.17-9.79v-26.46h-8.96v-8.41Z"/>
      <path d="M887.81,409.02h-17.64l-2.21,15.58h-8.13l13.51-96.48h12.54l13.37,96.48h-9.1l-2.34-15.58ZM871.27,400.62h15.44l-2.76-20.4c-2.34-17.64-4-32.67-4.96-43.83-.83,11.16-2.34,26.33-4.82,43.83l-2.89,20.4Z"/>
      <path d="M954.93,407.64c0,6.2.41,12.13,1.79,16.95h-9.65c-1.24-3.17-1.24-8.96-1.24-15.02v-19.02c0-7.58-1.24-10.75-8.13-10.75h-9.92v44.8h-9.1v-96.48h21.23c11.85,0,15.02,3.72,15.02,16.4v15.58c0,9.51-1.79,13.92-7.72,15.58,5.93,1.65,7.72,6.06,7.72,15.58v16.4ZM945.83,346.31c0-7.44-.55-9.79-7.3-9.79h-10.75v34.87h10.75c6.62,0,7.3-2.48,7.3-9.79v-15.3Z"/>
      <path d="M977.67,328.12h21.23c11.85,0,15.02,3.72,15.02,16.4v63.68c0,12.68-3.17,16.4-15.02,16.4h-21.23v-96.48ZM997.52,416.19c6.75,0,7.3-2.34,7.3-9.79v-60.09c0-7.44-.55-9.79-7.3-9.79h-10.75v79.67h10.75Z"/>
      <path d="M1045.76,369.88h15.85v8.27h-15.85v38.04h18.61v8.41h-27.71v-96.48h27.71v8.41h-18.61v33.36Z"/>
      <path d="M1095.51,361.06c-1.38-5.79-2.34-11.16-3.17-16.4.14,5.24.28,10.61.28,16.68v63.27h-7.86v-96.48h11.72l13.92,59.41c1.38,5.93,2.34,11.3,3.17,16.54-.14-5.24-.41-10.61-.41-16.68v-59.27h7.99v96.48h-10.2l-15.44-63.54Z"/>
      <path d="M1153.82,369.88h15.85v8.27h-15.85v38.04h18.61v8.41h-27.71v-96.48h27.71v8.41h-18.61v33.36Z"/>
      <path d="M1229.07,407.64c0,6.2.41,12.13,1.79,16.95h-9.65c-1.24-3.17-1.24-8.96-1.24-15.02v-19.02c0-7.58-1.24-10.75-8.13-10.75h-9.92v44.8h-9.1v-96.48h21.23c11.85,0,15.02,3.72,15.02,16.4v15.58c0,9.51-1.79,13.92-7.72,15.58,5.93,1.65,7.72,6.06,7.72,15.58v16.4ZM1219.97,346.31c0-7.44-.55-9.79-7.3-9.79h-10.75v34.87h10.75c6.62,0,7.3-2.48,7.3-9.79v-15.3Z"/>
    </g>
  </g>
</svg>